%TF.GenerationSoftware,KiCad,Pcbnew,9.0.2*%
%TF.CreationDate,2025-07-25T22:05:18+05:30*%
%TF.ProjectId,mcu,6d63752e-6b69-4636-9164-5f7063625858,rev?*%
%TF.SameCoordinates,Original*%
%TF.FileFunction,Legend,Top*%
%TF.FilePolarity,Positive*%
%FSLAX46Y46*%
G04 Gerber Fmt 4.6, Leading zero omitted, Abs format (unit mm)*
G04 Created by KiCad (PCBNEW 9.0.2) date 2025-07-25 22:05:18*
%MOMM*%
%LPD*%
G01*
G04 APERTURE LIST*
%ADD10C,0.090000*%
%ADD11C,0.150000*%
%ADD12C,0.120000*%
%ADD13C,0.127000*%
%ADD14C,0.200000*%
G04 APERTURE END LIST*
D10*
X113235415Y-102136190D02*
X113235415Y-102593333D01*
X113235415Y-102364761D02*
X112435415Y-102364761D01*
X112435415Y-102364761D02*
X112549700Y-102440952D01*
X112549700Y-102440952D02*
X112625891Y-102517142D01*
X112625891Y-102517142D02*
X112663986Y-102593333D01*
X112435415Y-101640951D02*
X112435415Y-101564761D01*
X112435415Y-101564761D02*
X112473510Y-101488570D01*
X112473510Y-101488570D02*
X112511605Y-101450475D01*
X112511605Y-101450475D02*
X112587796Y-101412380D01*
X112587796Y-101412380D02*
X112740177Y-101374285D01*
X112740177Y-101374285D02*
X112930653Y-101374285D01*
X112930653Y-101374285D02*
X113083034Y-101412380D01*
X113083034Y-101412380D02*
X113159224Y-101450475D01*
X113159224Y-101450475D02*
X113197320Y-101488570D01*
X113197320Y-101488570D02*
X113235415Y-101564761D01*
X113235415Y-101564761D02*
X113235415Y-101640951D01*
X113235415Y-101640951D02*
X113197320Y-101717142D01*
X113197320Y-101717142D02*
X113159224Y-101755237D01*
X113159224Y-101755237D02*
X113083034Y-101793332D01*
X113083034Y-101793332D02*
X112930653Y-101831428D01*
X112930653Y-101831428D02*
X112740177Y-101831428D01*
X112740177Y-101831428D02*
X112587796Y-101793332D01*
X112587796Y-101793332D02*
X112511605Y-101755237D01*
X112511605Y-101755237D02*
X112473510Y-101717142D01*
X112473510Y-101717142D02*
X112435415Y-101640951D01*
X113235415Y-101031427D02*
X112435415Y-101031427D01*
X112930653Y-100955237D02*
X113235415Y-100726665D01*
X112702081Y-100726665D02*
X113006843Y-101031427D01*
X116022081Y-102552856D02*
X116555415Y-102552856D01*
X115717320Y-102743332D02*
X116288748Y-102933809D01*
X116288748Y-102933809D02*
X116288748Y-102438570D01*
X116479224Y-102133808D02*
X116517320Y-102095713D01*
X116517320Y-102095713D02*
X116555415Y-102133808D01*
X116555415Y-102133808D02*
X116517320Y-102171904D01*
X116517320Y-102171904D02*
X116479224Y-102133808D01*
X116479224Y-102133808D02*
X116555415Y-102133808D01*
X115755415Y-101829047D02*
X115755415Y-101295713D01*
X115755415Y-101295713D02*
X116555415Y-101638571D01*
X116555415Y-100990951D02*
X115755415Y-100990951D01*
X116250653Y-100914761D02*
X116555415Y-100686189D01*
X116022081Y-100686189D02*
X116326843Y-100990951D01*
D11*
X102364819Y-113044762D02*
X102364819Y-113616190D01*
X102364819Y-113330476D02*
X101364819Y-113330476D01*
X101364819Y-113330476D02*
X101507676Y-113425714D01*
X101507676Y-113425714D02*
X101602914Y-113520952D01*
X101602914Y-113520952D02*
X101650533Y-113616190D01*
X101364819Y-112425714D02*
X101364819Y-112330476D01*
X101364819Y-112330476D02*
X101412438Y-112235238D01*
X101412438Y-112235238D02*
X101460057Y-112187619D01*
X101460057Y-112187619D02*
X101555295Y-112140000D01*
X101555295Y-112140000D02*
X101745771Y-112092381D01*
X101745771Y-112092381D02*
X101983866Y-112092381D01*
X101983866Y-112092381D02*
X102174342Y-112140000D01*
X102174342Y-112140000D02*
X102269580Y-112187619D01*
X102269580Y-112187619D02*
X102317200Y-112235238D01*
X102317200Y-112235238D02*
X102364819Y-112330476D01*
X102364819Y-112330476D02*
X102364819Y-112425714D01*
X102364819Y-112425714D02*
X102317200Y-112520952D01*
X102317200Y-112520952D02*
X102269580Y-112568571D01*
X102269580Y-112568571D02*
X102174342Y-112616190D01*
X102174342Y-112616190D02*
X101983866Y-112663809D01*
X101983866Y-112663809D02*
X101745771Y-112663809D01*
X101745771Y-112663809D02*
X101555295Y-112616190D01*
X101555295Y-112616190D02*
X101460057Y-112568571D01*
X101460057Y-112568571D02*
X101412438Y-112520952D01*
X101412438Y-112520952D02*
X101364819Y-112425714D01*
X101364819Y-111473333D02*
X101364819Y-111378095D01*
X101364819Y-111378095D02*
X101412438Y-111282857D01*
X101412438Y-111282857D02*
X101460057Y-111235238D01*
X101460057Y-111235238D02*
X101555295Y-111187619D01*
X101555295Y-111187619D02*
X101745771Y-111140000D01*
X101745771Y-111140000D02*
X101983866Y-111140000D01*
X101983866Y-111140000D02*
X102174342Y-111187619D01*
X102174342Y-111187619D02*
X102269580Y-111235238D01*
X102269580Y-111235238D02*
X102317200Y-111282857D01*
X102317200Y-111282857D02*
X102364819Y-111378095D01*
X102364819Y-111378095D02*
X102364819Y-111473333D01*
X102364819Y-111473333D02*
X102317200Y-111568571D01*
X102317200Y-111568571D02*
X102269580Y-111616190D01*
X102269580Y-111616190D02*
X102174342Y-111663809D01*
X102174342Y-111663809D02*
X101983866Y-111711428D01*
X101983866Y-111711428D02*
X101745771Y-111711428D01*
X101745771Y-111711428D02*
X101555295Y-111663809D01*
X101555295Y-111663809D02*
X101460057Y-111616190D01*
X101460057Y-111616190D02*
X101412438Y-111568571D01*
X101412438Y-111568571D02*
X101364819Y-111473333D01*
X101698152Y-110711428D02*
X102364819Y-110711428D01*
X101793390Y-110711428D02*
X101745771Y-110663809D01*
X101745771Y-110663809D02*
X101698152Y-110568571D01*
X101698152Y-110568571D02*
X101698152Y-110425714D01*
X101698152Y-110425714D02*
X101745771Y-110330476D01*
X101745771Y-110330476D02*
X101841009Y-110282857D01*
X101841009Y-110282857D02*
X102364819Y-110282857D01*
X101698152Y-109949523D02*
X101698152Y-109568571D01*
X102364819Y-109806666D02*
X101507676Y-109806666D01*
X101507676Y-109806666D02*
X101412438Y-109759047D01*
X101412438Y-109759047D02*
X101364819Y-109663809D01*
X101364819Y-109663809D02*
X101364819Y-109568571D01*
D10*
X119527143Y-103872081D02*
X119527143Y-104405415D01*
X119336667Y-103567320D02*
X119146190Y-104138748D01*
X119146190Y-104138748D02*
X119641429Y-104138748D01*
X119946191Y-104329224D02*
X119984286Y-104367320D01*
X119984286Y-104367320D02*
X119946191Y-104405415D01*
X119946191Y-104405415D02*
X119908095Y-104367320D01*
X119908095Y-104367320D02*
X119946191Y-104329224D01*
X119946191Y-104329224D02*
X119946191Y-104405415D01*
X120250952Y-103605415D02*
X120784286Y-103605415D01*
X120784286Y-103605415D02*
X120441428Y-104405415D01*
X121089048Y-104405415D02*
X121089048Y-103605415D01*
X121165238Y-104100653D02*
X121393810Y-104405415D01*
X121393810Y-103872081D02*
X121089048Y-104176843D01*
X103961605Y-121432500D02*
X103923510Y-121394404D01*
X103923510Y-121394404D02*
X103885415Y-121318214D01*
X103885415Y-121318214D02*
X103885415Y-121127738D01*
X103885415Y-121127738D02*
X103923510Y-121051547D01*
X103923510Y-121051547D02*
X103961605Y-121013452D01*
X103961605Y-121013452D02*
X104037796Y-120975357D01*
X104037796Y-120975357D02*
X104113986Y-120975357D01*
X104113986Y-120975357D02*
X104228272Y-121013452D01*
X104228272Y-121013452D02*
X104685415Y-121470595D01*
X104685415Y-121470595D02*
X104685415Y-120975357D01*
X103961605Y-120670595D02*
X103923510Y-120632499D01*
X103923510Y-120632499D02*
X103885415Y-120556309D01*
X103885415Y-120556309D02*
X103885415Y-120365833D01*
X103885415Y-120365833D02*
X103923510Y-120289642D01*
X103923510Y-120289642D02*
X103961605Y-120251547D01*
X103961605Y-120251547D02*
X104037796Y-120213452D01*
X104037796Y-120213452D02*
X104113986Y-120213452D01*
X104113986Y-120213452D02*
X104228272Y-120251547D01*
X104228272Y-120251547D02*
X104685415Y-120708690D01*
X104685415Y-120708690D02*
X104685415Y-120213452D01*
X104152081Y-119870594D02*
X104952081Y-119870594D01*
X104190177Y-119870594D02*
X104152081Y-119794404D01*
X104152081Y-119794404D02*
X104152081Y-119642023D01*
X104152081Y-119642023D02*
X104190177Y-119565832D01*
X104190177Y-119565832D02*
X104228272Y-119527737D01*
X104228272Y-119527737D02*
X104304462Y-119489642D01*
X104304462Y-119489642D02*
X104533034Y-119489642D01*
X104533034Y-119489642D02*
X104609224Y-119527737D01*
X104609224Y-119527737D02*
X104647320Y-119565832D01*
X104647320Y-119565832D02*
X104685415Y-119642023D01*
X104685415Y-119642023D02*
X104685415Y-119794404D01*
X104685415Y-119794404D02*
X104647320Y-119870594D01*
X104152081Y-119261070D02*
X104152081Y-118956308D01*
X104685415Y-119146784D02*
X103999700Y-119146784D01*
X103999700Y-119146784D02*
X103923510Y-119108689D01*
X103923510Y-119108689D02*
X103885415Y-119032499D01*
X103885415Y-119032499D02*
X103885415Y-118956308D01*
X100925415Y-103006190D02*
X100925415Y-103463333D01*
X100925415Y-103234761D02*
X100125415Y-103234761D01*
X100125415Y-103234761D02*
X100239700Y-103310952D01*
X100239700Y-103310952D02*
X100315891Y-103387142D01*
X100315891Y-103387142D02*
X100353986Y-103463333D01*
X100125415Y-102510951D02*
X100125415Y-102434761D01*
X100125415Y-102434761D02*
X100163510Y-102358570D01*
X100163510Y-102358570D02*
X100201605Y-102320475D01*
X100201605Y-102320475D02*
X100277796Y-102282380D01*
X100277796Y-102282380D02*
X100430177Y-102244285D01*
X100430177Y-102244285D02*
X100620653Y-102244285D01*
X100620653Y-102244285D02*
X100773034Y-102282380D01*
X100773034Y-102282380D02*
X100849224Y-102320475D01*
X100849224Y-102320475D02*
X100887320Y-102358570D01*
X100887320Y-102358570D02*
X100925415Y-102434761D01*
X100925415Y-102434761D02*
X100925415Y-102510951D01*
X100925415Y-102510951D02*
X100887320Y-102587142D01*
X100887320Y-102587142D02*
X100849224Y-102625237D01*
X100849224Y-102625237D02*
X100773034Y-102663332D01*
X100773034Y-102663332D02*
X100620653Y-102701428D01*
X100620653Y-102701428D02*
X100430177Y-102701428D01*
X100430177Y-102701428D02*
X100277796Y-102663332D01*
X100277796Y-102663332D02*
X100201605Y-102625237D01*
X100201605Y-102625237D02*
X100163510Y-102587142D01*
X100163510Y-102587142D02*
X100125415Y-102510951D01*
X100925415Y-101901427D02*
X100125415Y-101901427D01*
X100620653Y-101825237D02*
X100925415Y-101596665D01*
X100392081Y-101596665D02*
X100696843Y-101901427D01*
X122453809Y-104255415D02*
X121996666Y-104255415D01*
X122225238Y-104255415D02*
X122225238Y-103455415D01*
X122225238Y-103455415D02*
X122149047Y-103569700D01*
X122149047Y-103569700D02*
X122072857Y-103645891D01*
X122072857Y-103645891D02*
X121996666Y-103683986D01*
X122949048Y-103455415D02*
X123025238Y-103455415D01*
X123025238Y-103455415D02*
X123101429Y-103493510D01*
X123101429Y-103493510D02*
X123139524Y-103531605D01*
X123139524Y-103531605D02*
X123177619Y-103607796D01*
X123177619Y-103607796D02*
X123215714Y-103760177D01*
X123215714Y-103760177D02*
X123215714Y-103950653D01*
X123215714Y-103950653D02*
X123177619Y-104103034D01*
X123177619Y-104103034D02*
X123139524Y-104179224D01*
X123139524Y-104179224D02*
X123101429Y-104217320D01*
X123101429Y-104217320D02*
X123025238Y-104255415D01*
X123025238Y-104255415D02*
X122949048Y-104255415D01*
X122949048Y-104255415D02*
X122872857Y-104217320D01*
X122872857Y-104217320D02*
X122834762Y-104179224D01*
X122834762Y-104179224D02*
X122796667Y-104103034D01*
X122796667Y-104103034D02*
X122758571Y-103950653D01*
X122758571Y-103950653D02*
X122758571Y-103760177D01*
X122758571Y-103760177D02*
X122796667Y-103607796D01*
X122796667Y-103607796D02*
X122834762Y-103531605D01*
X122834762Y-103531605D02*
X122872857Y-103493510D01*
X122872857Y-103493510D02*
X122949048Y-103455415D01*
X123558572Y-104255415D02*
X123558572Y-103455415D01*
X123634762Y-103950653D02*
X123863334Y-104255415D01*
X123863334Y-103722081D02*
X123558572Y-104026843D01*
X123451428Y-107925415D02*
X123946666Y-107925415D01*
X123946666Y-107925415D02*
X123680000Y-108230177D01*
X123680000Y-108230177D02*
X123794285Y-108230177D01*
X123794285Y-108230177D02*
X123870476Y-108268272D01*
X123870476Y-108268272D02*
X123908571Y-108306367D01*
X123908571Y-108306367D02*
X123946666Y-108382558D01*
X123946666Y-108382558D02*
X123946666Y-108573034D01*
X123946666Y-108573034D02*
X123908571Y-108649224D01*
X123908571Y-108649224D02*
X123870476Y-108687320D01*
X123870476Y-108687320D02*
X123794285Y-108725415D01*
X123794285Y-108725415D02*
X123565714Y-108725415D01*
X123565714Y-108725415D02*
X123489523Y-108687320D01*
X123489523Y-108687320D02*
X123451428Y-108649224D01*
X124213333Y-107925415D02*
X124708571Y-107925415D01*
X124708571Y-107925415D02*
X124441905Y-108230177D01*
X124441905Y-108230177D02*
X124556190Y-108230177D01*
X124556190Y-108230177D02*
X124632381Y-108268272D01*
X124632381Y-108268272D02*
X124670476Y-108306367D01*
X124670476Y-108306367D02*
X124708571Y-108382558D01*
X124708571Y-108382558D02*
X124708571Y-108573034D01*
X124708571Y-108573034D02*
X124670476Y-108649224D01*
X124670476Y-108649224D02*
X124632381Y-108687320D01*
X124632381Y-108687320D02*
X124556190Y-108725415D01*
X124556190Y-108725415D02*
X124327619Y-108725415D01*
X124327619Y-108725415D02*
X124251428Y-108687320D01*
X124251428Y-108687320D02*
X124213333Y-108649224D01*
X125203810Y-107925415D02*
X125280000Y-107925415D01*
X125280000Y-107925415D02*
X125356191Y-107963510D01*
X125356191Y-107963510D02*
X125394286Y-108001605D01*
X125394286Y-108001605D02*
X125432381Y-108077796D01*
X125432381Y-108077796D02*
X125470476Y-108230177D01*
X125470476Y-108230177D02*
X125470476Y-108420653D01*
X125470476Y-108420653D02*
X125432381Y-108573034D01*
X125432381Y-108573034D02*
X125394286Y-108649224D01*
X125394286Y-108649224D02*
X125356191Y-108687320D01*
X125356191Y-108687320D02*
X125280000Y-108725415D01*
X125280000Y-108725415D02*
X125203810Y-108725415D01*
X125203810Y-108725415D02*
X125127619Y-108687320D01*
X125127619Y-108687320D02*
X125089524Y-108649224D01*
X125089524Y-108649224D02*
X125051429Y-108573034D01*
X125051429Y-108573034D02*
X125013333Y-108420653D01*
X125013333Y-108420653D02*
X125013333Y-108230177D01*
X125013333Y-108230177D02*
X125051429Y-108077796D01*
X125051429Y-108077796D02*
X125089524Y-108001605D01*
X125089524Y-108001605D02*
X125127619Y-107963510D01*
X125127619Y-107963510D02*
X125203810Y-107925415D01*
X104001605Y-117310000D02*
X103963510Y-117271904D01*
X103963510Y-117271904D02*
X103925415Y-117195714D01*
X103925415Y-117195714D02*
X103925415Y-117005238D01*
X103925415Y-117005238D02*
X103963510Y-116929047D01*
X103963510Y-116929047D02*
X104001605Y-116890952D01*
X104001605Y-116890952D02*
X104077796Y-116852857D01*
X104077796Y-116852857D02*
X104153986Y-116852857D01*
X104153986Y-116852857D02*
X104268272Y-116890952D01*
X104268272Y-116890952D02*
X104725415Y-117348095D01*
X104725415Y-117348095D02*
X104725415Y-116852857D01*
X104001605Y-116548095D02*
X103963510Y-116509999D01*
X103963510Y-116509999D02*
X103925415Y-116433809D01*
X103925415Y-116433809D02*
X103925415Y-116243333D01*
X103925415Y-116243333D02*
X103963510Y-116167142D01*
X103963510Y-116167142D02*
X104001605Y-116129047D01*
X104001605Y-116129047D02*
X104077796Y-116090952D01*
X104077796Y-116090952D02*
X104153986Y-116090952D01*
X104153986Y-116090952D02*
X104268272Y-116129047D01*
X104268272Y-116129047D02*
X104725415Y-116586190D01*
X104725415Y-116586190D02*
X104725415Y-116090952D01*
X104192081Y-115748094D02*
X104992081Y-115748094D01*
X104230177Y-115748094D02*
X104192081Y-115671904D01*
X104192081Y-115671904D02*
X104192081Y-115519523D01*
X104192081Y-115519523D02*
X104230177Y-115443332D01*
X104230177Y-115443332D02*
X104268272Y-115405237D01*
X104268272Y-115405237D02*
X104344462Y-115367142D01*
X104344462Y-115367142D02*
X104573034Y-115367142D01*
X104573034Y-115367142D02*
X104649224Y-115405237D01*
X104649224Y-115405237D02*
X104687320Y-115443332D01*
X104687320Y-115443332D02*
X104725415Y-115519523D01*
X104725415Y-115519523D02*
X104725415Y-115671904D01*
X104725415Y-115671904D02*
X104687320Y-115748094D01*
X104192081Y-115138570D02*
X104192081Y-114833808D01*
X104725415Y-115024284D02*
X104039700Y-115024284D01*
X104039700Y-115024284D02*
X103963510Y-114986189D01*
X103963510Y-114986189D02*
X103925415Y-114909999D01*
X103925415Y-114909999D02*
X103925415Y-114833808D01*
X115005415Y-108529999D02*
X115005415Y-108453809D01*
X115005415Y-108453809D02*
X115043510Y-108377618D01*
X115043510Y-108377618D02*
X115081605Y-108339523D01*
X115081605Y-108339523D02*
X115157796Y-108301428D01*
X115157796Y-108301428D02*
X115310177Y-108263333D01*
X115310177Y-108263333D02*
X115500653Y-108263333D01*
X115500653Y-108263333D02*
X115653034Y-108301428D01*
X115653034Y-108301428D02*
X115729224Y-108339523D01*
X115729224Y-108339523D02*
X115767320Y-108377618D01*
X115767320Y-108377618D02*
X115805415Y-108453809D01*
X115805415Y-108453809D02*
X115805415Y-108529999D01*
X115805415Y-108529999D02*
X115767320Y-108606190D01*
X115767320Y-108606190D02*
X115729224Y-108644285D01*
X115729224Y-108644285D02*
X115653034Y-108682380D01*
X115653034Y-108682380D02*
X115500653Y-108720476D01*
X115500653Y-108720476D02*
X115310177Y-108720476D01*
X115310177Y-108720476D02*
X115157796Y-108682380D01*
X115157796Y-108682380D02*
X115081605Y-108644285D01*
X115081605Y-108644285D02*
X115043510Y-108606190D01*
X115043510Y-108606190D02*
X115005415Y-108529999D01*
X115729224Y-107920475D02*
X115767320Y-107882380D01*
X115767320Y-107882380D02*
X115805415Y-107920475D01*
X115805415Y-107920475D02*
X115767320Y-107958571D01*
X115767320Y-107958571D02*
X115729224Y-107920475D01*
X115729224Y-107920475D02*
X115805415Y-107920475D01*
X115805415Y-107120476D02*
X115805415Y-107577619D01*
X115805415Y-107349047D02*
X115005415Y-107349047D01*
X115005415Y-107349047D02*
X115119700Y-107425238D01*
X115119700Y-107425238D02*
X115195891Y-107501428D01*
X115195891Y-107501428D02*
X115233986Y-107577619D01*
X115272081Y-106434761D02*
X115805415Y-106434761D01*
X115272081Y-106777618D02*
X115691129Y-106777618D01*
X115691129Y-106777618D02*
X115767320Y-106739523D01*
X115767320Y-106739523D02*
X115805415Y-106663333D01*
X115805415Y-106663333D02*
X115805415Y-106549047D01*
X115805415Y-106549047D02*
X115767320Y-106472856D01*
X115767320Y-106472856D02*
X115729224Y-106434761D01*
X115272081Y-106168094D02*
X115272081Y-105863332D01*
X115805415Y-106053808D02*
X115119700Y-106053808D01*
X115119700Y-106053808D02*
X115043510Y-106015713D01*
X115043510Y-106015713D02*
X115005415Y-105939523D01*
X115005415Y-105939523D02*
X115005415Y-105863332D01*
D11*
X95354285Y-113721009D02*
X95497142Y-113768628D01*
X95497142Y-113768628D02*
X95544761Y-113816247D01*
X95544761Y-113816247D02*
X95592380Y-113911485D01*
X95592380Y-113911485D02*
X95592380Y-114054342D01*
X95592380Y-114054342D02*
X95544761Y-114149580D01*
X95544761Y-114149580D02*
X95497142Y-114197200D01*
X95497142Y-114197200D02*
X95401904Y-114244819D01*
X95401904Y-114244819D02*
X95020952Y-114244819D01*
X95020952Y-114244819D02*
X95020952Y-113244819D01*
X95020952Y-113244819D02*
X95354285Y-113244819D01*
X95354285Y-113244819D02*
X95449523Y-113292438D01*
X95449523Y-113292438D02*
X95497142Y-113340057D01*
X95497142Y-113340057D02*
X95544761Y-113435295D01*
X95544761Y-113435295D02*
X95544761Y-113530533D01*
X95544761Y-113530533D02*
X95497142Y-113625771D01*
X95497142Y-113625771D02*
X95449523Y-113673390D01*
X95449523Y-113673390D02*
X95354285Y-113721009D01*
X95354285Y-113721009D02*
X95020952Y-113721009D01*
X95878095Y-113244819D02*
X96449523Y-113244819D01*
X96163809Y-114244819D02*
X96163809Y-113244819D01*
X97306666Y-114244819D02*
X96735238Y-114244819D01*
X97020952Y-114244819D02*
X97020952Y-113244819D01*
X97020952Y-113244819D02*
X96925714Y-113387676D01*
X96925714Y-113387676D02*
X96830476Y-113482914D01*
X96830476Y-113482914D02*
X96735238Y-113530533D01*
X96918628Y-118796190D02*
X97394819Y-118796190D01*
X96394819Y-119129523D02*
X96918628Y-118796190D01*
X96918628Y-118796190D02*
X96394819Y-118462857D01*
X96490057Y-118177142D02*
X96442438Y-118129523D01*
X96442438Y-118129523D02*
X96394819Y-118034285D01*
X96394819Y-118034285D02*
X96394819Y-117796190D01*
X96394819Y-117796190D02*
X96442438Y-117700952D01*
X96442438Y-117700952D02*
X96490057Y-117653333D01*
X96490057Y-117653333D02*
X96585295Y-117605714D01*
X96585295Y-117605714D02*
X96680533Y-117605714D01*
X96680533Y-117605714D02*
X96823390Y-117653333D01*
X96823390Y-117653333D02*
X97394819Y-118224761D01*
X97394819Y-118224761D02*
X97394819Y-117605714D01*
D10*
X123755714Y-105995415D02*
X123374762Y-105995415D01*
X123374762Y-105995415D02*
X123374762Y-105195415D01*
X124022381Y-105576367D02*
X124289047Y-105576367D01*
X124403333Y-105995415D02*
X124022381Y-105995415D01*
X124022381Y-105995415D02*
X124022381Y-105195415D01*
X124022381Y-105195415D02*
X124403333Y-105195415D01*
X124746191Y-105995415D02*
X124746191Y-105195415D01*
X124746191Y-105195415D02*
X124936667Y-105195415D01*
X124936667Y-105195415D02*
X125050953Y-105233510D01*
X125050953Y-105233510D02*
X125127143Y-105309700D01*
X125127143Y-105309700D02*
X125165238Y-105385891D01*
X125165238Y-105385891D02*
X125203334Y-105538272D01*
X125203334Y-105538272D02*
X125203334Y-105652558D01*
X125203334Y-105652558D02*
X125165238Y-105804939D01*
X125165238Y-105804939D02*
X125127143Y-105881129D01*
X125127143Y-105881129D02*
X125050953Y-105957320D01*
X125050953Y-105957320D02*
X124936667Y-105995415D01*
X124936667Y-105995415D02*
X124746191Y-105995415D01*
D11*
X100264819Y-108659999D02*
X100264819Y-108564761D01*
X100264819Y-108564761D02*
X100312438Y-108469523D01*
X100312438Y-108469523D02*
X100360057Y-108421904D01*
X100360057Y-108421904D02*
X100455295Y-108374285D01*
X100455295Y-108374285D02*
X100645771Y-108326666D01*
X100645771Y-108326666D02*
X100883866Y-108326666D01*
X100883866Y-108326666D02*
X101074342Y-108374285D01*
X101074342Y-108374285D02*
X101169580Y-108421904D01*
X101169580Y-108421904D02*
X101217200Y-108469523D01*
X101217200Y-108469523D02*
X101264819Y-108564761D01*
X101264819Y-108564761D02*
X101264819Y-108659999D01*
X101264819Y-108659999D02*
X101217200Y-108755237D01*
X101217200Y-108755237D02*
X101169580Y-108802856D01*
X101169580Y-108802856D02*
X101074342Y-108850475D01*
X101074342Y-108850475D02*
X100883866Y-108898094D01*
X100883866Y-108898094D02*
X100645771Y-108898094D01*
X100645771Y-108898094D02*
X100455295Y-108850475D01*
X100455295Y-108850475D02*
X100360057Y-108802856D01*
X100360057Y-108802856D02*
X100312438Y-108755237D01*
X100312438Y-108755237D02*
X100264819Y-108659999D01*
X101169580Y-107898094D02*
X101217200Y-107850475D01*
X101217200Y-107850475D02*
X101264819Y-107898094D01*
X101264819Y-107898094D02*
X101217200Y-107945713D01*
X101217200Y-107945713D02*
X101169580Y-107898094D01*
X101169580Y-107898094D02*
X101264819Y-107898094D01*
X101264819Y-106898095D02*
X101264819Y-107469523D01*
X101264819Y-107183809D02*
X100264819Y-107183809D01*
X100264819Y-107183809D02*
X100407676Y-107279047D01*
X100407676Y-107279047D02*
X100502914Y-107374285D01*
X100502914Y-107374285D02*
X100550533Y-107469523D01*
X100598152Y-106040952D02*
X101264819Y-106040952D01*
X100598152Y-106469523D02*
X101121961Y-106469523D01*
X101121961Y-106469523D02*
X101217200Y-106421904D01*
X101217200Y-106421904D02*
X101264819Y-106326666D01*
X101264819Y-106326666D02*
X101264819Y-106183809D01*
X101264819Y-106183809D02*
X101217200Y-106088571D01*
X101217200Y-106088571D02*
X101169580Y-106040952D01*
X100598152Y-105707618D02*
X100598152Y-105326666D01*
X101264819Y-105564761D02*
X100407676Y-105564761D01*
X100407676Y-105564761D02*
X100312438Y-105517142D01*
X100312438Y-105517142D02*
X100264819Y-105421904D01*
X100264819Y-105421904D02*
X100264819Y-105326666D01*
D12*
%TO.C,R5*%
X113605000Y-101667064D02*
X113605000Y-101212936D01*
X115075000Y-101667064D02*
X115075000Y-101212936D01*
%TO.C,J1*%
X101900000Y-126620000D02*
X101900000Y-125240000D01*
X103280000Y-126620000D02*
X101900000Y-126620000D01*
X104550000Y-123860000D02*
X124980000Y-123860000D01*
X104550000Y-126620000D02*
X104550000Y-123860000D01*
X104550000Y-126620000D02*
X124980000Y-126620000D01*
X124980000Y-126620000D02*
X124980000Y-123860000D01*
%TO.C,R7*%
X116885000Y-101717064D02*
X116885000Y-101262936D01*
X118355000Y-101717064D02*
X118355000Y-101262936D01*
%TO.C,C3*%
X102725000Y-111258748D02*
X102725000Y-111781252D01*
X104195000Y-111258748D02*
X104195000Y-111781252D01*
%TO.C,R3*%
X119435000Y-101717064D02*
X119435000Y-101262936D01*
X120905000Y-101717064D02*
X120905000Y-101262936D01*
%TO.C,C5*%
X101905000Y-120493752D02*
X101905000Y-119971248D01*
X103375000Y-120493752D02*
X103375000Y-119971248D01*
%TO.C,R4*%
X101475000Y-102302936D02*
X101475000Y-102757064D01*
X102945000Y-102302936D02*
X102945000Y-102757064D01*
%TO.C,R6*%
X121885000Y-101727064D02*
X121885000Y-101272936D01*
X123355000Y-101727064D02*
X123355000Y-101272936D01*
%TO.C,R2*%
X121497064Y-107665000D02*
X121042936Y-107665000D01*
X121497064Y-109135000D02*
X121042936Y-109135000D01*
%TO.C,Y1*%
X95230000Y-103495000D02*
X95230000Y-101415000D01*
X96550000Y-99695000D02*
X97630000Y-99695000D01*
X97630000Y-105215000D02*
X96550000Y-105215000D01*
X97630000Y-106265000D02*
X97630000Y-105215000D01*
X98950000Y-101415000D02*
X98950000Y-103495000D01*
X98950000Y-103495000D02*
X99950000Y-103495000D01*
%TO.C,D2*%
X98730000Y-109700000D02*
X98730000Y-112560000D01*
X100650000Y-109700000D02*
X98730000Y-109700000D01*
X100650000Y-112560000D02*
X100650000Y-109700000D01*
D13*
%TO.C,U3*%
X106310000Y-99960000D02*
X110310000Y-99960000D01*
X106310000Y-105000000D02*
X110310000Y-105000000D01*
D14*
X103965000Y-99985000D02*
G75*
G02*
X103765000Y-99985000I-100000J0D01*
G01*
X103765000Y-99985000D02*
G75*
G02*
X103965000Y-99985000I100000J0D01*
G01*
D12*
%TO.C,J4*%
X105740000Y-105960000D02*
X105740000Y-111260000D01*
X110930000Y-105960000D02*
X105740000Y-105960000D01*
X110930000Y-105960000D02*
X110930000Y-108610000D01*
X110930000Y-108610000D02*
X113580000Y-108610000D01*
X112200000Y-105960000D02*
X113580000Y-105960000D01*
X113580000Y-105960000D02*
X113580000Y-107340000D01*
X113580000Y-108610000D02*
X113580000Y-111260000D01*
X113580000Y-111260000D02*
X105740000Y-111260000D01*
%TO.C,C4*%
X101945000Y-116371252D02*
X101945000Y-115848748D01*
X103415000Y-116371252D02*
X103415000Y-115848748D01*
%TO.C,C1*%
X116385000Y-107068748D02*
X116385000Y-107591252D01*
X117855000Y-107068748D02*
X117855000Y-107591252D01*
D13*
%TO.C,U4*%
X108400000Y-113930000D02*
X108400000Y-114035000D01*
X108400000Y-113930000D02*
X108505000Y-113930000D01*
X108400000Y-120930000D02*
X108400000Y-120825000D01*
X108400000Y-120930000D02*
X108505000Y-120930000D01*
X115400000Y-113930000D02*
X115295000Y-113930000D01*
X115400000Y-113930000D02*
X115400000Y-114035000D01*
X115400000Y-120930000D02*
X115295000Y-120930000D01*
X115400000Y-120930000D02*
X115400000Y-120825000D01*
D14*
X106160000Y-114630000D02*
G75*
G02*
X105960000Y-114630000I-100000J0D01*
G01*
X105960000Y-114630000D02*
G75*
G02*
X106160000Y-114630000I100000J0D01*
G01*
D12*
%TO.C,BT1*%
X94780000Y-109985000D02*
X94780000Y-107335000D01*
X97540000Y-107335000D02*
X94780000Y-107335000D01*
X97540000Y-109985000D02*
X94780000Y-109985000D01*
X97540000Y-109985000D02*
X97540000Y-107335000D01*
X97540000Y-111255000D02*
X97540000Y-112635000D01*
X97540000Y-112635000D02*
X96160000Y-112635000D01*
%TO.C,J2*%
X126610000Y-107080000D02*
X126610000Y-114760000D01*
X126610000Y-107080000D02*
X129270000Y-107080000D01*
X126610000Y-114760000D02*
X129270000Y-114760000D01*
X127940000Y-104480000D02*
X129270000Y-104480000D01*
X129270000Y-104480000D02*
X129270000Y-105810000D01*
X129270000Y-107080000D02*
X129270000Y-114760000D01*
%TO.C,Y2*%
X95280000Y-119310000D02*
X95280000Y-117230000D01*
X96600000Y-115510000D02*
X97680000Y-115510000D01*
X97680000Y-121030000D02*
X96600000Y-121030000D01*
X97680000Y-122080000D02*
X97680000Y-121030000D01*
X99000000Y-117230000D02*
X99000000Y-119310000D01*
X99000000Y-119310000D02*
X100000000Y-119310000D01*
%TO.C,U1*%
X118145000Y-119047500D02*
X118145000Y-116847500D01*
X118145000Y-119047500D02*
X118145000Y-121247500D01*
X121365000Y-119047500D02*
X121365000Y-116847500D01*
X121365000Y-119047500D02*
X121365000Y-121247500D01*
X118320000Y-121947500D02*
X117990000Y-122187500D01*
X117990000Y-121707500D01*
X118320000Y-121947500D01*
G36*
X118320000Y-121947500D02*
G01*
X117990000Y-122187500D01*
X117990000Y-121707500D01*
X118320000Y-121947500D01*
G37*
%TO.C,U2*%
X122155000Y-118997500D02*
X122155000Y-116797500D01*
X122155000Y-118997500D02*
X122155000Y-121197500D01*
X125375000Y-118997500D02*
X125375000Y-116797500D01*
X125375000Y-118997500D02*
X125375000Y-121197500D01*
X122330000Y-121897500D02*
X122000000Y-122137500D01*
X122000000Y-121657500D01*
X122330000Y-121897500D01*
G36*
X122330000Y-121897500D02*
G01*
X122000000Y-122137500D01*
X122000000Y-121657500D01*
X122330000Y-121897500D01*
G37*
%TO.C,D1*%
X119412500Y-105300000D02*
X119412500Y-107220000D01*
X119412500Y-107220000D02*
X122272500Y-107220000D01*
X122272500Y-105300000D02*
X119412500Y-105300000D01*
%TO.C,C2*%
X101505000Y-107381252D02*
X101505000Y-106858748D01*
X102975000Y-107381252D02*
X102975000Y-106858748D01*
%TO.C,J3*%
X126580000Y-123840000D02*
X126580000Y-116160000D01*
X126580000Y-126440000D02*
X126580000Y-125110000D01*
X127910000Y-126440000D02*
X126580000Y-126440000D01*
X129240000Y-116160000D02*
X126580000Y-116160000D01*
X129240000Y-123840000D02*
X126580000Y-123840000D01*
X129240000Y-123840000D02*
X129240000Y-116160000D01*
%TD*%
M02*
