%TF.GenerationSoftware,KiCad,Pcbnew,9.0.2*%
%TF.CreationDate,2025-07-25T22:05:18+05:30*%
%TF.ProjectId,mcu,6d63752e-6b69-4636-9164-5f7063625858,rev?*%
%TF.SameCoordinates,Original*%
%TF.FileFunction,Copper,L2,Bot*%
%TF.FilePolarity,Positive*%
%FSLAX46Y46*%
G04 Gerber Fmt 4.6, Leading zero omitted, Abs format (unit mm)*
G04 Created by KiCad (PCBNEW 9.0.2) date 2025-07-25 22:05:18*
%MOMM*%
%LPD*%
G01*
G04 APERTURE LIST*
%TA.AperFunction,ComponentPad*%
%ADD10R,1.700000X1.700000*%
%TD*%
%TA.AperFunction,ComponentPad*%
%ADD11C,1.700000*%
%TD*%
%TA.AperFunction,ViaPad*%
%ADD12C,0.600000*%
%TD*%
%TA.AperFunction,Conductor*%
%ADD13C,0.200000*%
%TD*%
G04 APERTURE END LIST*
D10*
%TO.P,J1,1,Pin_1*%
%TO.N,/D2*%
X103280000Y-125240000D03*
D11*
%TO.P,J1,2,Pin_2*%
%TO.N,/D3*%
X105820000Y-125240000D03*
%TO.P,J1,3,Pin_3*%
%TO.N,/D4*%
X108360000Y-125240000D03*
%TO.P,J1,4,Pin_4*%
%TO.N,/D5*%
X110900000Y-125240000D03*
%TO.P,J1,5,Pin_5*%
%TO.N,/D6*%
X113440000Y-125240000D03*
%TO.P,J1,6,Pin_6*%
%TO.N,/D7*%
X115980000Y-125240000D03*
%TO.P,J1,7,Pin_7*%
%TO.N,/D8*%
X118520000Y-125240000D03*
%TO.P,J1,8,Pin_8*%
%TO.N,GND*%
X121060000Y-125240000D03*
%TO.P,J1,9,Pin_9*%
%TO.N,/VCC*%
X123600000Y-125240000D03*
%TD*%
D10*
%TO.P,J4,1,Pin_1*%
%TO.N,/MISO*%
X112200000Y-107340000D03*
D11*
%TO.P,J4,2,Pin_2*%
%TO.N,/VCC*%
X112200000Y-109880000D03*
%TO.P,J4,3,Pin_3*%
%TO.N,/SCL*%
X109660000Y-107340000D03*
%TO.P,J4,4,Pin_4*%
%TO.N,/MOSI*%
X109660000Y-109880000D03*
%TO.P,J4,5,Pin_5*%
%TO.N,/RESET*%
X107120000Y-107340000D03*
%TO.P,J4,6,Pin_6*%
%TO.N,GND*%
X107120000Y-109880000D03*
%TD*%
D10*
%TO.P,BT1,1,+*%
%TO.N,Net-(BT1-+)*%
X96160000Y-111255000D03*
D11*
%TO.P,BT1,2,-*%
%TO.N,GND*%
X96160000Y-108715000D03*
%TD*%
D10*
%TO.P,J2,1,Pin_1*%
%TO.N,GND*%
X127940000Y-105810000D03*
D11*
%TO.P,J2,2,Pin_2*%
%TO.N,/VCC*%
X127940000Y-108350000D03*
%TO.P,J2,3,Pin_3*%
%TO.N,/SCL*%
X127940000Y-110890000D03*
%TO.P,J2,4,Pin_4*%
%TO.N,/SDA*%
X127940000Y-113430000D03*
%TD*%
D10*
%TO.P,J3,1,Pin_1*%
%TO.N,GND*%
X127910000Y-125110000D03*
D11*
%TO.P,J3,2,Pin_2*%
%TO.N,/VCC*%
X127910000Y-122570000D03*
%TO.P,J3,3,Pin_3*%
%TO.N,/RX*%
X127910000Y-120030000D03*
%TO.P,J3,4,Pin_4*%
%TO.N,/TX*%
X127910000Y-117490000D03*
%TD*%
D12*
%TO.N,GND*%
X101200000Y-115000000D03*
X101200000Y-121275000D03*
X103910000Y-104370000D03*
X103930000Y-108200000D03*
X116990000Y-106280000D03*
%TO.N,Net-(BT1-+)*%
X109260000Y-117080000D03*
X110980000Y-117210000D03*
%TO.N,/VCC*%
X123100000Y-110690000D03*
X124550000Y-109890000D03*
%TO.N,/SCL*%
X124490000Y-106270000D03*
X117620000Y-103785000D03*
X118140000Y-119260000D03*
X120080000Y-117500000D03*
X123720000Y-113920000D03*
%TO.N,/D2*%
X105640000Y-113260000D03*
%TO.N,/D4*%
X106010000Y-115420000D03*
%TO.N,/D3*%
X105670000Y-114650000D03*
%TO.N,/SDA*%
X124720000Y-114837500D03*
X120799265Y-114559265D03*
%TO.N,/TX*%
X113750000Y-115210000D03*
%TO.N,/RX*%
X113790000Y-116070000D03*
%TO.N,/MOSI*%
X111630000Y-119910000D03*
%TO.N,/RESET*%
X122570000Y-102570000D03*
%TO.N,/MISO*%
X112580000Y-119500000D03*
%TD*%
D13*
%TO.N,GND*%
X103910000Y-108180000D02*
X103930000Y-108200000D01*
X101200000Y-115000000D02*
X101200000Y-121275000D01*
X105211000Y-101969000D02*
X124099000Y-101969000D01*
X103910000Y-103270000D02*
X105211000Y-101969000D01*
X116990000Y-103565057D02*
X117384057Y-103171000D01*
X117384057Y-103171000D02*
X124979000Y-103171000D01*
X124979000Y-103171000D02*
X125140000Y-103010000D01*
X103910000Y-104370000D02*
X103910000Y-108180000D01*
X116990000Y-106280000D02*
X116990000Y-103565057D01*
X103910000Y-104370000D02*
X103910000Y-103270000D01*
X103930000Y-108200000D02*
X101200000Y-110930000D01*
X101200000Y-110930000D02*
X101200000Y-115000000D01*
X124099000Y-101969000D02*
X125140000Y-103010000D01*
X125140000Y-103010000D02*
X127940000Y-105810000D01*
%TO.N,Net-(BT1-+)*%
X110980000Y-117210000D02*
X109390000Y-117210000D01*
X109390000Y-117210000D02*
X109260000Y-117080000D01*
%TO.N,/VCC*%
X129220000Y-108350000D02*
X129400000Y-108530000D01*
X124590000Y-109860000D02*
X124580000Y-109860000D01*
X127940000Y-108350000D02*
X126430000Y-109860000D01*
X129455939Y-108574060D02*
X129390000Y-108640000D01*
X125790000Y-124530000D02*
X125790000Y-122990000D01*
X124580000Y-109860000D02*
X124550000Y-109890000D01*
X112200000Y-109880000D02*
X113040000Y-110720000D01*
X123600000Y-125240000D02*
X125080000Y-125240000D01*
X123070000Y-110720000D02*
X123100000Y-110690000D01*
X126430000Y-109860000D02*
X124590000Y-109860000D01*
X125790000Y-122990000D02*
X126210000Y-122570000D01*
X127940000Y-108350000D02*
X129220000Y-108350000D01*
X129390000Y-108640000D02*
X129390000Y-121810000D01*
X113040000Y-110720000D02*
X123070000Y-110720000D01*
X125080000Y-125240000D02*
X125790000Y-124530000D01*
X126210000Y-122570000D02*
X127910000Y-122570000D01*
X129411879Y-108530000D02*
X129455939Y-108574060D01*
X129400000Y-108530000D02*
X129411879Y-108530000D01*
X129390000Y-121810000D02*
X128630000Y-122570000D01*
X128630000Y-122570000D02*
X127910000Y-122570000D01*
%TO.N,/SCL*%
X118200000Y-119260000D02*
X119405599Y-118054401D01*
X124580000Y-110830000D02*
X124630000Y-110830000D01*
X124490000Y-106270000D02*
X123600000Y-107160000D01*
X118140000Y-119260000D02*
X118200000Y-119260000D01*
X123600000Y-110030000D02*
X124400000Y-110830000D01*
X124490000Y-105180000D02*
X124490000Y-106270000D01*
X123480000Y-104170000D02*
X124490000Y-105180000D01*
X124580000Y-113060000D02*
X124580000Y-110830000D01*
X123600000Y-107160000D02*
X123600000Y-110030000D01*
X123720000Y-113920000D02*
X124580000Y-113060000D01*
X119525599Y-118054401D02*
X120080000Y-117500000D01*
X124630000Y-110830000D02*
X124690000Y-110890000D01*
X124690000Y-110890000D02*
X127940000Y-110890000D01*
X117620000Y-103785000D02*
X118005000Y-104170000D01*
X124400000Y-110830000D02*
X124630000Y-110830000D01*
X119405599Y-118054401D02*
X119525599Y-118054401D01*
X118005000Y-104170000D02*
X123480000Y-104170000D01*
%TO.N,/D2*%
X104650000Y-122710000D02*
X104675000Y-122735000D01*
X105640000Y-113260000D02*
X104650000Y-114250000D01*
X103280000Y-124130000D02*
X103280000Y-125240000D01*
X104675000Y-122735000D02*
X103280000Y-124130000D01*
X104650000Y-114250000D02*
X104650000Y-122710000D01*
%TO.N,/D4*%
X106010000Y-115420000D02*
X107630000Y-115420000D01*
X107630000Y-115420000D02*
X108380000Y-116170000D01*
X108360000Y-116190000D02*
X108360000Y-125240000D01*
X108380000Y-116170000D02*
X108360000Y-116190000D01*
%TO.N,/D3*%
X105670000Y-114650000D02*
X105250000Y-115070000D01*
X105250000Y-115070000D02*
X105250000Y-124670000D01*
X105250000Y-124670000D02*
X105820000Y-125240000D01*
%TO.N,/SDA*%
X124402500Y-114520000D02*
X124720000Y-114837500D01*
X120838530Y-114520000D02*
X124402500Y-114520000D01*
X120799265Y-114559265D02*
X120838530Y-114520000D01*
%TO.N,/TX*%
X113750000Y-115210000D02*
X114170000Y-115210000D01*
X115420000Y-116460000D02*
X126880000Y-116460000D01*
X114170000Y-115210000D02*
X115420000Y-116460000D01*
X126880000Y-116460000D02*
X127910000Y-117490000D01*
%TO.N,/RX*%
X119720000Y-120010000D02*
X119740000Y-120030000D01*
X113790000Y-116070000D02*
X117730000Y-120010000D01*
X117730000Y-120010000D02*
X119720000Y-120010000D01*
X119740000Y-120030000D02*
X127910000Y-120030000D01*
%TO.N,/MOSI*%
X111630000Y-118880000D02*
X111620000Y-118870000D01*
X109830000Y-109880000D02*
X109660000Y-109880000D01*
X111620000Y-118870000D02*
X111620000Y-111670000D01*
X111630000Y-119910000D02*
X111630000Y-118880000D01*
X111620000Y-111670000D02*
X109830000Y-109880000D01*
%TO.N,/RESET*%
X107120000Y-103490000D02*
X107120000Y-107340000D01*
X108040000Y-102570000D02*
X107120000Y-103490000D01*
X122570000Y-102570000D02*
X108040000Y-102570000D01*
%TO.N,/MISO*%
X112021000Y-112681000D02*
X112021000Y-111503900D01*
X112940000Y-107340000D02*
X112200000Y-107340000D01*
X110920000Y-110402900D02*
X110920000Y-108620000D01*
X112100000Y-112760000D02*
X112021000Y-112681000D01*
X112580000Y-119500000D02*
X112100000Y-119020000D01*
X112580000Y-119500000D02*
X112620000Y-119460000D01*
X110920000Y-108620000D02*
X112200000Y-107340000D01*
X112021000Y-111503900D02*
X110920000Y-110402900D01*
X112100000Y-119020000D02*
X112100000Y-112760000D01*
%TD*%
M02*
