%TF.GenerationSoftware,KiCad,Pcbnew,9.0.2*%
%TF.CreationDate,2025-07-25T22:05:17+05:30*%
%TF.ProjectId,mcu,6d63752e-6b69-4636-9164-5f7063625858,rev?*%
%TF.SameCoordinates,Original*%
%TF.FileFunction,Drillmap*%
%TF.FilePolarity,Positive*%
%FSLAX45Y45*%
G04 Gerber Fmt 4.5, Leading zero omitted, Abs format (unit mm)*
G04 Created by KiCad (PCBNEW 9.0.2) date 2025-07-25 22:05:17*
%MOMM*%
%LPD*%
G01*
G04 APERTURE LIST*
%ADD10C,0.050000*%
%ADD11C,0.200000*%
%ADD12C,0.100000*%
G04 APERTURE END LIST*
D10*
X13022500Y-12732500D02*
X9641038Y-12729505D01*
X9372925Y-9811000D02*
X12726962Y-9798495D01*
X13017950Y-10093087D02*
X13022500Y-12732500D01*
X9350047Y-12434913D02*
X9372000Y-9811000D01*
X12726962Y-9798495D02*
G75*
G02*
X13017953Y-10093087I-2J-291015D01*
G01*
X9641038Y-12729505D02*
G75*
G02*
X9350047Y-12434913I2J291015D01*
G01*
D11*
D12*
X10105000Y-11485000D02*
X10135000Y-11515000D01*
X10135000Y-11485000D02*
X10105000Y-11515000D01*
X10105000Y-12112500D02*
X10135000Y-12142500D01*
X10135000Y-12112500D02*
X10105000Y-12142500D01*
X10376000Y-10422000D02*
X10406000Y-10452000D01*
X10406000Y-10422000D02*
X10376000Y-10452000D01*
X10378000Y-10805000D02*
X10408000Y-10835000D01*
X10408000Y-10805000D02*
X10378000Y-10835000D01*
X10549000Y-11311000D02*
X10579000Y-11341000D01*
X10579000Y-11311000D02*
X10549000Y-11341000D01*
X10552000Y-11450000D02*
X10582000Y-11480000D01*
X10582000Y-11450000D02*
X10552000Y-11480000D01*
X10586000Y-11527000D02*
X10616000Y-11557000D01*
X10616000Y-11527000D02*
X10586000Y-11557000D01*
X10911000Y-11693000D02*
X10941000Y-11723000D01*
X10941000Y-11693000D02*
X10911000Y-11723000D01*
X11083000Y-11706000D02*
X11113000Y-11736000D01*
X11113000Y-11706000D02*
X11083000Y-11736000D01*
X11148000Y-11976000D02*
X11178000Y-12006000D01*
X11178000Y-11976000D02*
X11148000Y-12006000D01*
X11243000Y-11935000D02*
X11273000Y-11965000D01*
X11273000Y-11935000D02*
X11243000Y-11965000D01*
X11360000Y-11506000D02*
X11390000Y-11536000D01*
X11390000Y-11506000D02*
X11360000Y-11536000D01*
X11364000Y-11592000D02*
X11394000Y-11622000D01*
X11394000Y-11592000D02*
X11364000Y-11622000D01*
X11684000Y-10613000D02*
X11714000Y-10643000D01*
X11714000Y-10613000D02*
X11684000Y-10643000D01*
X11747000Y-10363500D02*
X11777000Y-10393500D01*
X11777000Y-10363500D02*
X11747000Y-10393500D01*
X11799000Y-11911000D02*
X11829000Y-11941000D01*
X11829000Y-11911000D02*
X11799000Y-11941000D01*
X11993000Y-11735000D02*
X12023000Y-11765000D01*
X12023000Y-11735000D02*
X11993000Y-11765000D01*
X12064926Y-11440926D02*
X12094926Y-11470926D01*
X12094926Y-11440926D02*
X12064926Y-11470926D01*
X12242000Y-10242000D02*
X12272000Y-10272000D01*
X12272000Y-10242000D02*
X12242000Y-10272000D01*
X12295000Y-11054000D02*
X12325000Y-11084000D01*
X12325000Y-11054000D02*
X12295000Y-11084000D01*
X12357000Y-11377000D02*
X12387000Y-11407000D01*
X12387000Y-11377000D02*
X12357000Y-11407000D01*
X12434000Y-10612000D02*
X12464000Y-10642000D01*
X12464000Y-10612000D02*
X12434000Y-10642000D01*
X12440000Y-10974000D02*
X12470000Y-11004000D01*
X12470000Y-10974000D02*
X12440000Y-11004000D01*
X12457000Y-11468750D02*
X12487000Y-11498750D01*
X12487000Y-11468750D02*
X12457000Y-11498750D01*
X9666000Y-10871500D02*
G75*
G02*
X9566000Y-10871500I-50000J0D01*
G01*
X9566000Y-10871500D02*
G75*
G02*
X9666000Y-10871500I50000J0D01*
G01*
X9666000Y-11125500D02*
G75*
G02*
X9566000Y-11125500I-50000J0D01*
G01*
X9566000Y-11125500D02*
G75*
G02*
X9666000Y-11125500I50000J0D01*
G01*
X10378000Y-12524000D02*
G75*
G02*
X10278000Y-12524000I-50000J0D01*
G01*
X10278000Y-12524000D02*
G75*
G02*
X10378000Y-12524000I50000J0D01*
G01*
X10632000Y-12524000D02*
G75*
G02*
X10532000Y-12524000I-50000J0D01*
G01*
X10532000Y-12524000D02*
G75*
G02*
X10632000Y-12524000I50000J0D01*
G01*
X10762000Y-10734000D02*
G75*
G02*
X10662000Y-10734000I-50000J0D01*
G01*
X10662000Y-10734000D02*
G75*
G02*
X10762000Y-10734000I50000J0D01*
G01*
X10762000Y-10988000D02*
G75*
G02*
X10662000Y-10988000I-50000J0D01*
G01*
X10662000Y-10988000D02*
G75*
G02*
X10762000Y-10988000I50000J0D01*
G01*
X10886000Y-12524000D02*
G75*
G02*
X10786000Y-12524000I-50000J0D01*
G01*
X10786000Y-12524000D02*
G75*
G02*
X10886000Y-12524000I50000J0D01*
G01*
X11016000Y-10734000D02*
G75*
G02*
X10916000Y-10734000I-50000J0D01*
G01*
X10916000Y-10734000D02*
G75*
G02*
X11016000Y-10734000I50000J0D01*
G01*
X11016000Y-10988000D02*
G75*
G02*
X10916000Y-10988000I-50000J0D01*
G01*
X10916000Y-10988000D02*
G75*
G02*
X11016000Y-10988000I50000J0D01*
G01*
X11140000Y-12524000D02*
G75*
G02*
X11040000Y-12524000I-50000J0D01*
G01*
X11040000Y-12524000D02*
G75*
G02*
X11140000Y-12524000I50000J0D01*
G01*
X11270000Y-10734000D02*
G75*
G02*
X11170000Y-10734000I-50000J0D01*
G01*
X11170000Y-10734000D02*
G75*
G02*
X11270000Y-10734000I50000J0D01*
G01*
X11270000Y-10988000D02*
G75*
G02*
X11170000Y-10988000I-50000J0D01*
G01*
X11170000Y-10988000D02*
G75*
G02*
X11270000Y-10988000I50000J0D01*
G01*
X11394000Y-12524000D02*
G75*
G02*
X11294000Y-12524000I-50000J0D01*
G01*
X11294000Y-12524000D02*
G75*
G02*
X11394000Y-12524000I50000J0D01*
G01*
X11648000Y-12524000D02*
G75*
G02*
X11548000Y-12524000I-50000J0D01*
G01*
X11548000Y-12524000D02*
G75*
G02*
X11648000Y-12524000I50000J0D01*
G01*
X11902000Y-12524000D02*
G75*
G02*
X11802000Y-12524000I-50000J0D01*
G01*
X11802000Y-12524000D02*
G75*
G02*
X11902000Y-12524000I50000J0D01*
G01*
X12156000Y-12524000D02*
G75*
G02*
X12056000Y-12524000I-50000J0D01*
G01*
X12056000Y-12524000D02*
G75*
G02*
X12156000Y-12524000I50000J0D01*
G01*
X12410000Y-12524000D02*
G75*
G02*
X12310000Y-12524000I-50000J0D01*
G01*
X12310000Y-12524000D02*
G75*
G02*
X12410000Y-12524000I50000J0D01*
G01*
X12841000Y-11749000D02*
G75*
G02*
X12741000Y-11749000I-50000J0D01*
G01*
X12741000Y-11749000D02*
G75*
G02*
X12841000Y-11749000I50000J0D01*
G01*
X12841000Y-12003000D02*
G75*
G02*
X12741000Y-12003000I-50000J0D01*
G01*
X12741000Y-12003000D02*
G75*
G02*
X12841000Y-12003000I50000J0D01*
G01*
X12841000Y-12257000D02*
G75*
G02*
X12741000Y-12257000I-50000J0D01*
G01*
X12741000Y-12257000D02*
G75*
G02*
X12841000Y-12257000I50000J0D01*
G01*
X12841000Y-12511000D02*
G75*
G02*
X12741000Y-12511000I-50000J0D01*
G01*
X12741000Y-12511000D02*
G75*
G02*
X12841000Y-12511000I50000J0D01*
G01*
X12844000Y-10581000D02*
G75*
G02*
X12744000Y-10581000I-50000J0D01*
G01*
X12744000Y-10581000D02*
G75*
G02*
X12844000Y-10581000I50000J0D01*
G01*
X12844000Y-10835000D02*
G75*
G02*
X12744000Y-10835000I-50000J0D01*
G01*
X12744000Y-10835000D02*
G75*
G02*
X12844000Y-10835000I50000J0D01*
G01*
X12844000Y-11089000D02*
G75*
G02*
X12744000Y-11089000I-50000J0D01*
G01*
X12744000Y-11089000D02*
G75*
G02*
X12844000Y-11089000I50000J0D01*
G01*
X12844000Y-11343000D02*
G75*
G02*
X12744000Y-11343000I-50000J0D01*
G01*
X12744000Y-11343000D02*
G75*
G02*
X12844000Y-11343000I50000J0D01*
G01*
D11*
X9608302Y-13046484D02*
X9608302Y-12846484D01*
X9608302Y-12846484D02*
X9655921Y-12846484D01*
X9655921Y-12846484D02*
X9684492Y-12856008D01*
X9684492Y-12856008D02*
X9703540Y-12875056D01*
X9703540Y-12875056D02*
X9713064Y-12894103D01*
X9713064Y-12894103D02*
X9722587Y-12932198D01*
X9722587Y-12932198D02*
X9722587Y-12960770D01*
X9722587Y-12960770D02*
X9713064Y-12998865D01*
X9713064Y-12998865D02*
X9703540Y-13017913D01*
X9703540Y-13017913D02*
X9684492Y-13036960D01*
X9684492Y-13036960D02*
X9655921Y-13046484D01*
X9655921Y-13046484D02*
X9608302Y-13046484D01*
X9808302Y-13046484D02*
X9808302Y-12913151D01*
X9808302Y-12951246D02*
X9817825Y-12932198D01*
X9817825Y-12932198D02*
X9827349Y-12922675D01*
X9827349Y-12922675D02*
X9846397Y-12913151D01*
X9846397Y-12913151D02*
X9865445Y-12913151D01*
X9932111Y-13046484D02*
X9932111Y-12913151D01*
X9932111Y-12846484D02*
X9922587Y-12856008D01*
X9922587Y-12856008D02*
X9932111Y-12865532D01*
X9932111Y-12865532D02*
X9941635Y-12856008D01*
X9941635Y-12856008D02*
X9932111Y-12846484D01*
X9932111Y-12846484D02*
X9932111Y-12865532D01*
X10055921Y-13046484D02*
X10036873Y-13036960D01*
X10036873Y-13036960D02*
X10027349Y-13017913D01*
X10027349Y-13017913D02*
X10027349Y-12846484D01*
X10160683Y-13046484D02*
X10141635Y-13036960D01*
X10141635Y-13036960D02*
X10132111Y-13017913D01*
X10132111Y-13017913D02*
X10132111Y-12846484D01*
X10389254Y-13046484D02*
X10389254Y-12846484D01*
X10389254Y-12846484D02*
X10455921Y-12989341D01*
X10455921Y-12989341D02*
X10522587Y-12846484D01*
X10522587Y-12846484D02*
X10522587Y-13046484D01*
X10703540Y-13046484D02*
X10703540Y-12941722D01*
X10703540Y-12941722D02*
X10694016Y-12922675D01*
X10694016Y-12922675D02*
X10674968Y-12913151D01*
X10674968Y-12913151D02*
X10636873Y-12913151D01*
X10636873Y-12913151D02*
X10617825Y-12922675D01*
X10703540Y-13036960D02*
X10684492Y-13046484D01*
X10684492Y-13046484D02*
X10636873Y-13046484D01*
X10636873Y-13046484D02*
X10617825Y-13036960D01*
X10617825Y-13036960D02*
X10608302Y-13017913D01*
X10608302Y-13017913D02*
X10608302Y-12998865D01*
X10608302Y-12998865D02*
X10617825Y-12979818D01*
X10617825Y-12979818D02*
X10636873Y-12970294D01*
X10636873Y-12970294D02*
X10684492Y-12970294D01*
X10684492Y-12970294D02*
X10703540Y-12960770D01*
X10798778Y-12913151D02*
X10798778Y-13113151D01*
X10798778Y-12922675D02*
X10817825Y-12913151D01*
X10817825Y-12913151D02*
X10855921Y-12913151D01*
X10855921Y-12913151D02*
X10874968Y-12922675D01*
X10874968Y-12922675D02*
X10884492Y-12932198D01*
X10884492Y-12932198D02*
X10894016Y-12951246D01*
X10894016Y-12951246D02*
X10894016Y-13008389D01*
X10894016Y-13008389D02*
X10884492Y-13027437D01*
X10884492Y-13027437D02*
X10874968Y-13036960D01*
X10874968Y-13036960D02*
X10855921Y-13046484D01*
X10855921Y-13046484D02*
X10817825Y-13046484D01*
X10817825Y-13046484D02*
X10798778Y-13036960D01*
X10979730Y-13027437D02*
X10989254Y-13036960D01*
X10989254Y-13036960D02*
X10979730Y-13046484D01*
X10979730Y-13046484D02*
X10970206Y-13036960D01*
X10970206Y-13036960D02*
X10979730Y-13027437D01*
X10979730Y-13027437D02*
X10979730Y-13046484D01*
X10979730Y-12922675D02*
X10989254Y-12932198D01*
X10989254Y-12932198D02*
X10979730Y-12941722D01*
X10979730Y-12941722D02*
X10970206Y-12932198D01*
X10970206Y-12932198D02*
X10979730Y-12922675D01*
X10979730Y-12922675D02*
X10979730Y-12941722D01*
D12*
X9317525Y-13360000D02*
X9347525Y-13390000D01*
X9347525Y-13360000D02*
X9317525Y-13390000D01*
D11*
X9646397Y-13266484D02*
X9665445Y-13266484D01*
X9665445Y-13266484D02*
X9684492Y-13276008D01*
X9684492Y-13276008D02*
X9694016Y-13285532D01*
X9694016Y-13285532D02*
X9703540Y-13304579D01*
X9703540Y-13304579D02*
X9713064Y-13342675D01*
X9713064Y-13342675D02*
X9713064Y-13390294D01*
X9713064Y-13390294D02*
X9703540Y-13428389D01*
X9703540Y-13428389D02*
X9694016Y-13447437D01*
X9694016Y-13447437D02*
X9684492Y-13456960D01*
X9684492Y-13456960D02*
X9665445Y-13466484D01*
X9665445Y-13466484D02*
X9646397Y-13466484D01*
X9646397Y-13466484D02*
X9627349Y-13456960D01*
X9627349Y-13456960D02*
X9617825Y-13447437D01*
X9617825Y-13447437D02*
X9608302Y-13428389D01*
X9608302Y-13428389D02*
X9598778Y-13390294D01*
X9598778Y-13390294D02*
X9598778Y-13342675D01*
X9598778Y-13342675D02*
X9608302Y-13304579D01*
X9608302Y-13304579D02*
X9617825Y-13285532D01*
X9617825Y-13285532D02*
X9627349Y-13276008D01*
X9627349Y-13276008D02*
X9646397Y-13266484D01*
X9798778Y-13447437D02*
X9808302Y-13456960D01*
X9808302Y-13456960D02*
X9798778Y-13466484D01*
X9798778Y-13466484D02*
X9789254Y-13456960D01*
X9789254Y-13456960D02*
X9798778Y-13447437D01*
X9798778Y-13447437D02*
X9798778Y-13466484D01*
X9874968Y-13266484D02*
X9998778Y-13266484D01*
X9998778Y-13266484D02*
X9932111Y-13342675D01*
X9932111Y-13342675D02*
X9960683Y-13342675D01*
X9960683Y-13342675D02*
X9979730Y-13352198D01*
X9979730Y-13352198D02*
X9989254Y-13361722D01*
X9989254Y-13361722D02*
X9998778Y-13380770D01*
X9998778Y-13380770D02*
X9998778Y-13428389D01*
X9998778Y-13428389D02*
X9989254Y-13447437D01*
X9989254Y-13447437D02*
X9979730Y-13456960D01*
X9979730Y-13456960D02*
X9960683Y-13466484D01*
X9960683Y-13466484D02*
X9903540Y-13466484D01*
X9903540Y-13466484D02*
X9884492Y-13456960D01*
X9884492Y-13456960D02*
X9874968Y-13447437D01*
X10122587Y-13266484D02*
X10141635Y-13266484D01*
X10141635Y-13266484D02*
X10160683Y-13276008D01*
X10160683Y-13276008D02*
X10170206Y-13285532D01*
X10170206Y-13285532D02*
X10179730Y-13304579D01*
X10179730Y-13304579D02*
X10189254Y-13342675D01*
X10189254Y-13342675D02*
X10189254Y-13390294D01*
X10189254Y-13390294D02*
X10179730Y-13428389D01*
X10179730Y-13428389D02*
X10170206Y-13447437D01*
X10170206Y-13447437D02*
X10160683Y-13456960D01*
X10160683Y-13456960D02*
X10141635Y-13466484D01*
X10141635Y-13466484D02*
X10122587Y-13466484D01*
X10122587Y-13466484D02*
X10103540Y-13456960D01*
X10103540Y-13456960D02*
X10094016Y-13447437D01*
X10094016Y-13447437D02*
X10084492Y-13428389D01*
X10084492Y-13428389D02*
X10074968Y-13390294D01*
X10074968Y-13390294D02*
X10074968Y-13342675D01*
X10074968Y-13342675D02*
X10084492Y-13304579D01*
X10084492Y-13304579D02*
X10094016Y-13285532D01*
X10094016Y-13285532D02*
X10103540Y-13276008D01*
X10103540Y-13276008D02*
X10122587Y-13266484D01*
X10313064Y-13266484D02*
X10332111Y-13266484D01*
X10332111Y-13266484D02*
X10351159Y-13276008D01*
X10351159Y-13276008D02*
X10360683Y-13285532D01*
X10360683Y-13285532D02*
X10370206Y-13304579D01*
X10370206Y-13304579D02*
X10379730Y-13342675D01*
X10379730Y-13342675D02*
X10379730Y-13390294D01*
X10379730Y-13390294D02*
X10370206Y-13428389D01*
X10370206Y-13428389D02*
X10360683Y-13447437D01*
X10360683Y-13447437D02*
X10351159Y-13456960D01*
X10351159Y-13456960D02*
X10332111Y-13466484D01*
X10332111Y-13466484D02*
X10313064Y-13466484D01*
X10313064Y-13466484D02*
X10294016Y-13456960D01*
X10294016Y-13456960D02*
X10284492Y-13447437D01*
X10284492Y-13447437D02*
X10274968Y-13428389D01*
X10274968Y-13428389D02*
X10265445Y-13390294D01*
X10265445Y-13390294D02*
X10265445Y-13342675D01*
X10265445Y-13342675D02*
X10274968Y-13304579D01*
X10274968Y-13304579D02*
X10284492Y-13285532D01*
X10284492Y-13285532D02*
X10294016Y-13276008D01*
X10294016Y-13276008D02*
X10313064Y-13266484D01*
X10465445Y-13466484D02*
X10465445Y-13333151D01*
X10465445Y-13352198D02*
X10474968Y-13342675D01*
X10474968Y-13342675D02*
X10494016Y-13333151D01*
X10494016Y-13333151D02*
X10522587Y-13333151D01*
X10522587Y-13333151D02*
X10541635Y-13342675D01*
X10541635Y-13342675D02*
X10551159Y-13361722D01*
X10551159Y-13361722D02*
X10551159Y-13466484D01*
X10551159Y-13361722D02*
X10560683Y-13342675D01*
X10560683Y-13342675D02*
X10579730Y-13333151D01*
X10579730Y-13333151D02*
X10608302Y-13333151D01*
X10608302Y-13333151D02*
X10627349Y-13342675D01*
X10627349Y-13342675D02*
X10636873Y-13361722D01*
X10636873Y-13361722D02*
X10636873Y-13466484D01*
X10732111Y-13466484D02*
X10732111Y-13333151D01*
X10732111Y-13352198D02*
X10741635Y-13342675D01*
X10741635Y-13342675D02*
X10760683Y-13333151D01*
X10760683Y-13333151D02*
X10789254Y-13333151D01*
X10789254Y-13333151D02*
X10808302Y-13342675D01*
X10808302Y-13342675D02*
X10817826Y-13361722D01*
X10817826Y-13361722D02*
X10817826Y-13466484D01*
X10817826Y-13361722D02*
X10827349Y-13342675D01*
X10827349Y-13342675D02*
X10846397Y-13333151D01*
X10846397Y-13333151D02*
X10874968Y-13333151D01*
X10874968Y-13333151D02*
X10894016Y-13342675D01*
X10894016Y-13342675D02*
X10903540Y-13361722D01*
X10903540Y-13361722D02*
X10903540Y-13466484D01*
X11294016Y-13256960D02*
X11122588Y-13514103D01*
X11551159Y-13266484D02*
X11570207Y-13266484D01*
X11570207Y-13266484D02*
X11589254Y-13276008D01*
X11589254Y-13276008D02*
X11598778Y-13285532D01*
X11598778Y-13285532D02*
X11608302Y-13304579D01*
X11608302Y-13304579D02*
X11617826Y-13342675D01*
X11617826Y-13342675D02*
X11617826Y-13390294D01*
X11617826Y-13390294D02*
X11608302Y-13428389D01*
X11608302Y-13428389D02*
X11598778Y-13447437D01*
X11598778Y-13447437D02*
X11589254Y-13456960D01*
X11589254Y-13456960D02*
X11570207Y-13466484D01*
X11570207Y-13466484D02*
X11551159Y-13466484D01*
X11551159Y-13466484D02*
X11532111Y-13456960D01*
X11532111Y-13456960D02*
X11522587Y-13447437D01*
X11522587Y-13447437D02*
X11513064Y-13428389D01*
X11513064Y-13428389D02*
X11503540Y-13390294D01*
X11503540Y-13390294D02*
X11503540Y-13342675D01*
X11503540Y-13342675D02*
X11513064Y-13304579D01*
X11513064Y-13304579D02*
X11522587Y-13285532D01*
X11522587Y-13285532D02*
X11532111Y-13276008D01*
X11532111Y-13276008D02*
X11551159Y-13266484D01*
X11703540Y-13447437D02*
X11713064Y-13456960D01*
X11713064Y-13456960D02*
X11703540Y-13466484D01*
X11703540Y-13466484D02*
X11694016Y-13456960D01*
X11694016Y-13456960D02*
X11703540Y-13447437D01*
X11703540Y-13447437D02*
X11703540Y-13466484D01*
X11836873Y-13266484D02*
X11855921Y-13266484D01*
X11855921Y-13266484D02*
X11874968Y-13276008D01*
X11874968Y-13276008D02*
X11884492Y-13285532D01*
X11884492Y-13285532D02*
X11894016Y-13304579D01*
X11894016Y-13304579D02*
X11903540Y-13342675D01*
X11903540Y-13342675D02*
X11903540Y-13390294D01*
X11903540Y-13390294D02*
X11894016Y-13428389D01*
X11894016Y-13428389D02*
X11884492Y-13447437D01*
X11884492Y-13447437D02*
X11874968Y-13456960D01*
X11874968Y-13456960D02*
X11855921Y-13466484D01*
X11855921Y-13466484D02*
X11836873Y-13466484D01*
X11836873Y-13466484D02*
X11817826Y-13456960D01*
X11817826Y-13456960D02*
X11808302Y-13447437D01*
X11808302Y-13447437D02*
X11798778Y-13428389D01*
X11798778Y-13428389D02*
X11789254Y-13390294D01*
X11789254Y-13390294D02*
X11789254Y-13342675D01*
X11789254Y-13342675D02*
X11798778Y-13304579D01*
X11798778Y-13304579D02*
X11808302Y-13285532D01*
X11808302Y-13285532D02*
X11817826Y-13276008D01*
X11817826Y-13276008D02*
X11836873Y-13266484D01*
X12094016Y-13466484D02*
X11979730Y-13466484D01*
X12036873Y-13466484D02*
X12036873Y-13266484D01*
X12036873Y-13266484D02*
X12017826Y-13295056D01*
X12017826Y-13295056D02*
X11998778Y-13314103D01*
X11998778Y-13314103D02*
X11979730Y-13323627D01*
X12284492Y-13466484D02*
X12170207Y-13466484D01*
X12227349Y-13466484D02*
X12227349Y-13266484D01*
X12227349Y-13266484D02*
X12208302Y-13295056D01*
X12208302Y-13295056D02*
X12189254Y-13314103D01*
X12189254Y-13314103D02*
X12170207Y-13323627D01*
X12398778Y-13352198D02*
X12379730Y-13342675D01*
X12379730Y-13342675D02*
X12370207Y-13333151D01*
X12370207Y-13333151D02*
X12360683Y-13314103D01*
X12360683Y-13314103D02*
X12360683Y-13304579D01*
X12360683Y-13304579D02*
X12370207Y-13285532D01*
X12370207Y-13285532D02*
X12379730Y-13276008D01*
X12379730Y-13276008D02*
X12398778Y-13266484D01*
X12398778Y-13266484D02*
X12436873Y-13266484D01*
X12436873Y-13266484D02*
X12455921Y-13276008D01*
X12455921Y-13276008D02*
X12465445Y-13285532D01*
X12465445Y-13285532D02*
X12474968Y-13304579D01*
X12474968Y-13304579D02*
X12474968Y-13314103D01*
X12474968Y-13314103D02*
X12465445Y-13333151D01*
X12465445Y-13333151D02*
X12455921Y-13342675D01*
X12455921Y-13342675D02*
X12436873Y-13352198D01*
X12436873Y-13352198D02*
X12398778Y-13352198D01*
X12398778Y-13352198D02*
X12379730Y-13361722D01*
X12379730Y-13361722D02*
X12370207Y-13371246D01*
X12370207Y-13371246D02*
X12360683Y-13390294D01*
X12360683Y-13390294D02*
X12360683Y-13428389D01*
X12360683Y-13428389D02*
X12370207Y-13447437D01*
X12370207Y-13447437D02*
X12379730Y-13456960D01*
X12379730Y-13456960D02*
X12398778Y-13466484D01*
X12398778Y-13466484D02*
X12436873Y-13466484D01*
X12436873Y-13466484D02*
X12455921Y-13456960D01*
X12455921Y-13456960D02*
X12465445Y-13447437D01*
X12465445Y-13447437D02*
X12474968Y-13428389D01*
X12474968Y-13428389D02*
X12474968Y-13390294D01*
X12474968Y-13390294D02*
X12465445Y-13371246D01*
X12465445Y-13371246D02*
X12455921Y-13361722D01*
X12455921Y-13361722D02*
X12436873Y-13352198D01*
X12551159Y-13266484D02*
X12551159Y-13304579D01*
X12627349Y-13266484D02*
X12627349Y-13304579D01*
X12922588Y-13542675D02*
X12913064Y-13533151D01*
X12913064Y-13533151D02*
X12894016Y-13504579D01*
X12894016Y-13504579D02*
X12884492Y-13485532D01*
X12884492Y-13485532D02*
X12874969Y-13456960D01*
X12874969Y-13456960D02*
X12865445Y-13409341D01*
X12865445Y-13409341D02*
X12865445Y-13371246D01*
X12865445Y-13371246D02*
X12874969Y-13323627D01*
X12874969Y-13323627D02*
X12884492Y-13295056D01*
X12884492Y-13295056D02*
X12894016Y-13276008D01*
X12894016Y-13276008D02*
X12913064Y-13247437D01*
X12913064Y-13247437D02*
X12922588Y-13237913D01*
X12989254Y-13285532D02*
X12998778Y-13276008D01*
X12998778Y-13276008D02*
X13017826Y-13266484D01*
X13017826Y-13266484D02*
X13065445Y-13266484D01*
X13065445Y-13266484D02*
X13084492Y-13276008D01*
X13084492Y-13276008D02*
X13094016Y-13285532D01*
X13094016Y-13285532D02*
X13103540Y-13304579D01*
X13103540Y-13304579D02*
X13103540Y-13323627D01*
X13103540Y-13323627D02*
X13094016Y-13352198D01*
X13094016Y-13352198D02*
X12979730Y-13466484D01*
X12979730Y-13466484D02*
X13103540Y-13466484D01*
X13274969Y-13333151D02*
X13274969Y-13466484D01*
X13227349Y-13256960D02*
X13179730Y-13399818D01*
X13179730Y-13399818D02*
X13303540Y-13399818D01*
X13532111Y-13466484D02*
X13532111Y-13266484D01*
X13617826Y-13466484D02*
X13617826Y-13361722D01*
X13617826Y-13361722D02*
X13608302Y-13342675D01*
X13608302Y-13342675D02*
X13589254Y-13333151D01*
X13589254Y-13333151D02*
X13560683Y-13333151D01*
X13560683Y-13333151D02*
X13541635Y-13342675D01*
X13541635Y-13342675D02*
X13532111Y-13352198D01*
X13741635Y-13466484D02*
X13722588Y-13456960D01*
X13722588Y-13456960D02*
X13713064Y-13447437D01*
X13713064Y-13447437D02*
X13703540Y-13428389D01*
X13703540Y-13428389D02*
X13703540Y-13371246D01*
X13703540Y-13371246D02*
X13713064Y-13352198D01*
X13713064Y-13352198D02*
X13722588Y-13342675D01*
X13722588Y-13342675D02*
X13741635Y-13333151D01*
X13741635Y-13333151D02*
X13770207Y-13333151D01*
X13770207Y-13333151D02*
X13789254Y-13342675D01*
X13789254Y-13342675D02*
X13798778Y-13352198D01*
X13798778Y-13352198D02*
X13808302Y-13371246D01*
X13808302Y-13371246D02*
X13808302Y-13428389D01*
X13808302Y-13428389D02*
X13798778Y-13447437D01*
X13798778Y-13447437D02*
X13789254Y-13456960D01*
X13789254Y-13456960D02*
X13770207Y-13466484D01*
X13770207Y-13466484D02*
X13741635Y-13466484D01*
X13922588Y-13466484D02*
X13903540Y-13456960D01*
X13903540Y-13456960D02*
X13894016Y-13437913D01*
X13894016Y-13437913D02*
X13894016Y-13266484D01*
X14074969Y-13456960D02*
X14055921Y-13466484D01*
X14055921Y-13466484D02*
X14017826Y-13466484D01*
X14017826Y-13466484D02*
X13998778Y-13456960D01*
X13998778Y-13456960D02*
X13989254Y-13437913D01*
X13989254Y-13437913D02*
X13989254Y-13361722D01*
X13989254Y-13361722D02*
X13998778Y-13342675D01*
X13998778Y-13342675D02*
X14017826Y-13333151D01*
X14017826Y-13333151D02*
X14055921Y-13333151D01*
X14055921Y-13333151D02*
X14074969Y-13342675D01*
X14074969Y-13342675D02*
X14084492Y-13361722D01*
X14084492Y-13361722D02*
X14084492Y-13380770D01*
X14084492Y-13380770D02*
X13989254Y-13399818D01*
X14160683Y-13456960D02*
X14179731Y-13466484D01*
X14179731Y-13466484D02*
X14217826Y-13466484D01*
X14217826Y-13466484D02*
X14236873Y-13456960D01*
X14236873Y-13456960D02*
X14246397Y-13437913D01*
X14246397Y-13437913D02*
X14246397Y-13428389D01*
X14246397Y-13428389D02*
X14236873Y-13409341D01*
X14236873Y-13409341D02*
X14217826Y-13399818D01*
X14217826Y-13399818D02*
X14189254Y-13399818D01*
X14189254Y-13399818D02*
X14170207Y-13390294D01*
X14170207Y-13390294D02*
X14160683Y-13371246D01*
X14160683Y-13371246D02*
X14160683Y-13361722D01*
X14160683Y-13361722D02*
X14170207Y-13342675D01*
X14170207Y-13342675D02*
X14189254Y-13333151D01*
X14189254Y-13333151D02*
X14217826Y-13333151D01*
X14217826Y-13333151D02*
X14236873Y-13342675D01*
X14313064Y-13542675D02*
X14322588Y-13533151D01*
X14322588Y-13533151D02*
X14341635Y-13504579D01*
X14341635Y-13504579D02*
X14351159Y-13485532D01*
X14351159Y-13485532D02*
X14360683Y-13456960D01*
X14360683Y-13456960D02*
X14370207Y-13409341D01*
X14370207Y-13409341D02*
X14370207Y-13371246D01*
X14370207Y-13371246D02*
X14360683Y-13323627D01*
X14360683Y-13323627D02*
X14351159Y-13295056D01*
X14351159Y-13295056D02*
X14341635Y-13276008D01*
X14341635Y-13276008D02*
X14322588Y-13247437D01*
X14322588Y-13247437D02*
X14313064Y-13237913D01*
D12*
X9347525Y-13639000D02*
G75*
G02*
X9247525Y-13639000I-50000J0D01*
G01*
X9247525Y-13639000D02*
G75*
G02*
X9347525Y-13639000I50000J0D01*
G01*
D11*
X9713064Y-13730484D02*
X9598778Y-13730484D01*
X9655921Y-13730484D02*
X9655921Y-13530484D01*
X9655921Y-13530484D02*
X9636873Y-13559056D01*
X9636873Y-13559056D02*
X9617825Y-13578103D01*
X9617825Y-13578103D02*
X9598778Y-13587627D01*
X9798778Y-13711437D02*
X9808302Y-13720960D01*
X9808302Y-13720960D02*
X9798778Y-13730484D01*
X9798778Y-13730484D02*
X9789254Y-13720960D01*
X9789254Y-13720960D02*
X9798778Y-13711437D01*
X9798778Y-13711437D02*
X9798778Y-13730484D01*
X9932111Y-13530484D02*
X9951159Y-13530484D01*
X9951159Y-13530484D02*
X9970206Y-13540008D01*
X9970206Y-13540008D02*
X9979730Y-13549532D01*
X9979730Y-13549532D02*
X9989254Y-13568579D01*
X9989254Y-13568579D02*
X9998778Y-13606675D01*
X9998778Y-13606675D02*
X9998778Y-13654294D01*
X9998778Y-13654294D02*
X9989254Y-13692389D01*
X9989254Y-13692389D02*
X9979730Y-13711437D01*
X9979730Y-13711437D02*
X9970206Y-13720960D01*
X9970206Y-13720960D02*
X9951159Y-13730484D01*
X9951159Y-13730484D02*
X9932111Y-13730484D01*
X9932111Y-13730484D02*
X9913064Y-13720960D01*
X9913064Y-13720960D02*
X9903540Y-13711437D01*
X9903540Y-13711437D02*
X9894016Y-13692389D01*
X9894016Y-13692389D02*
X9884492Y-13654294D01*
X9884492Y-13654294D02*
X9884492Y-13606675D01*
X9884492Y-13606675D02*
X9894016Y-13568579D01*
X9894016Y-13568579D02*
X9903540Y-13549532D01*
X9903540Y-13549532D02*
X9913064Y-13540008D01*
X9913064Y-13540008D02*
X9932111Y-13530484D01*
X10122587Y-13530484D02*
X10141635Y-13530484D01*
X10141635Y-13530484D02*
X10160683Y-13540008D01*
X10160683Y-13540008D02*
X10170206Y-13549532D01*
X10170206Y-13549532D02*
X10179730Y-13568579D01*
X10179730Y-13568579D02*
X10189254Y-13606675D01*
X10189254Y-13606675D02*
X10189254Y-13654294D01*
X10189254Y-13654294D02*
X10179730Y-13692389D01*
X10179730Y-13692389D02*
X10170206Y-13711437D01*
X10170206Y-13711437D02*
X10160683Y-13720960D01*
X10160683Y-13720960D02*
X10141635Y-13730484D01*
X10141635Y-13730484D02*
X10122587Y-13730484D01*
X10122587Y-13730484D02*
X10103540Y-13720960D01*
X10103540Y-13720960D02*
X10094016Y-13711437D01*
X10094016Y-13711437D02*
X10084492Y-13692389D01*
X10084492Y-13692389D02*
X10074968Y-13654294D01*
X10074968Y-13654294D02*
X10074968Y-13606675D01*
X10074968Y-13606675D02*
X10084492Y-13568579D01*
X10084492Y-13568579D02*
X10094016Y-13549532D01*
X10094016Y-13549532D02*
X10103540Y-13540008D01*
X10103540Y-13540008D02*
X10122587Y-13530484D01*
X10313064Y-13530484D02*
X10332111Y-13530484D01*
X10332111Y-13530484D02*
X10351159Y-13540008D01*
X10351159Y-13540008D02*
X10360683Y-13549532D01*
X10360683Y-13549532D02*
X10370206Y-13568579D01*
X10370206Y-13568579D02*
X10379730Y-13606675D01*
X10379730Y-13606675D02*
X10379730Y-13654294D01*
X10379730Y-13654294D02*
X10370206Y-13692389D01*
X10370206Y-13692389D02*
X10360683Y-13711437D01*
X10360683Y-13711437D02*
X10351159Y-13720960D01*
X10351159Y-13720960D02*
X10332111Y-13730484D01*
X10332111Y-13730484D02*
X10313064Y-13730484D01*
X10313064Y-13730484D02*
X10294016Y-13720960D01*
X10294016Y-13720960D02*
X10284492Y-13711437D01*
X10284492Y-13711437D02*
X10274968Y-13692389D01*
X10274968Y-13692389D02*
X10265445Y-13654294D01*
X10265445Y-13654294D02*
X10265445Y-13606675D01*
X10265445Y-13606675D02*
X10274968Y-13568579D01*
X10274968Y-13568579D02*
X10284492Y-13549532D01*
X10284492Y-13549532D02*
X10294016Y-13540008D01*
X10294016Y-13540008D02*
X10313064Y-13530484D01*
X10465445Y-13730484D02*
X10465445Y-13597151D01*
X10465445Y-13616198D02*
X10474968Y-13606675D01*
X10474968Y-13606675D02*
X10494016Y-13597151D01*
X10494016Y-13597151D02*
X10522587Y-13597151D01*
X10522587Y-13597151D02*
X10541635Y-13606675D01*
X10541635Y-13606675D02*
X10551159Y-13625722D01*
X10551159Y-13625722D02*
X10551159Y-13730484D01*
X10551159Y-13625722D02*
X10560683Y-13606675D01*
X10560683Y-13606675D02*
X10579730Y-13597151D01*
X10579730Y-13597151D02*
X10608302Y-13597151D01*
X10608302Y-13597151D02*
X10627349Y-13606675D01*
X10627349Y-13606675D02*
X10636873Y-13625722D01*
X10636873Y-13625722D02*
X10636873Y-13730484D01*
X10732111Y-13730484D02*
X10732111Y-13597151D01*
X10732111Y-13616198D02*
X10741635Y-13606675D01*
X10741635Y-13606675D02*
X10760683Y-13597151D01*
X10760683Y-13597151D02*
X10789254Y-13597151D01*
X10789254Y-13597151D02*
X10808302Y-13606675D01*
X10808302Y-13606675D02*
X10817826Y-13625722D01*
X10817826Y-13625722D02*
X10817826Y-13730484D01*
X10817826Y-13625722D02*
X10827349Y-13606675D01*
X10827349Y-13606675D02*
X10846397Y-13597151D01*
X10846397Y-13597151D02*
X10874968Y-13597151D01*
X10874968Y-13597151D02*
X10894016Y-13606675D01*
X10894016Y-13606675D02*
X10903540Y-13625722D01*
X10903540Y-13625722D02*
X10903540Y-13730484D01*
X11294016Y-13520960D02*
X11122588Y-13778103D01*
X11551159Y-13530484D02*
X11570207Y-13530484D01*
X11570207Y-13530484D02*
X11589254Y-13540008D01*
X11589254Y-13540008D02*
X11598778Y-13549532D01*
X11598778Y-13549532D02*
X11608302Y-13568579D01*
X11608302Y-13568579D02*
X11617826Y-13606675D01*
X11617826Y-13606675D02*
X11617826Y-13654294D01*
X11617826Y-13654294D02*
X11608302Y-13692389D01*
X11608302Y-13692389D02*
X11598778Y-13711437D01*
X11598778Y-13711437D02*
X11589254Y-13720960D01*
X11589254Y-13720960D02*
X11570207Y-13730484D01*
X11570207Y-13730484D02*
X11551159Y-13730484D01*
X11551159Y-13730484D02*
X11532111Y-13720960D01*
X11532111Y-13720960D02*
X11522587Y-13711437D01*
X11522587Y-13711437D02*
X11513064Y-13692389D01*
X11513064Y-13692389D02*
X11503540Y-13654294D01*
X11503540Y-13654294D02*
X11503540Y-13606675D01*
X11503540Y-13606675D02*
X11513064Y-13568579D01*
X11513064Y-13568579D02*
X11522587Y-13549532D01*
X11522587Y-13549532D02*
X11532111Y-13540008D01*
X11532111Y-13540008D02*
X11551159Y-13530484D01*
X11703540Y-13711437D02*
X11713064Y-13720960D01*
X11713064Y-13720960D02*
X11703540Y-13730484D01*
X11703540Y-13730484D02*
X11694016Y-13720960D01*
X11694016Y-13720960D02*
X11703540Y-13711437D01*
X11703540Y-13711437D02*
X11703540Y-13730484D01*
X11836873Y-13530484D02*
X11855921Y-13530484D01*
X11855921Y-13530484D02*
X11874968Y-13540008D01*
X11874968Y-13540008D02*
X11884492Y-13549532D01*
X11884492Y-13549532D02*
X11894016Y-13568579D01*
X11894016Y-13568579D02*
X11903540Y-13606675D01*
X11903540Y-13606675D02*
X11903540Y-13654294D01*
X11903540Y-13654294D02*
X11894016Y-13692389D01*
X11894016Y-13692389D02*
X11884492Y-13711437D01*
X11884492Y-13711437D02*
X11874968Y-13720960D01*
X11874968Y-13720960D02*
X11855921Y-13730484D01*
X11855921Y-13730484D02*
X11836873Y-13730484D01*
X11836873Y-13730484D02*
X11817826Y-13720960D01*
X11817826Y-13720960D02*
X11808302Y-13711437D01*
X11808302Y-13711437D02*
X11798778Y-13692389D01*
X11798778Y-13692389D02*
X11789254Y-13654294D01*
X11789254Y-13654294D02*
X11789254Y-13606675D01*
X11789254Y-13606675D02*
X11798778Y-13568579D01*
X11798778Y-13568579D02*
X11808302Y-13549532D01*
X11808302Y-13549532D02*
X11817826Y-13540008D01*
X11817826Y-13540008D02*
X11836873Y-13530484D01*
X11970207Y-13530484D02*
X12094016Y-13530484D01*
X12094016Y-13530484D02*
X12027349Y-13606675D01*
X12027349Y-13606675D02*
X12055921Y-13606675D01*
X12055921Y-13606675D02*
X12074968Y-13616198D01*
X12074968Y-13616198D02*
X12084492Y-13625722D01*
X12084492Y-13625722D02*
X12094016Y-13644770D01*
X12094016Y-13644770D02*
X12094016Y-13692389D01*
X12094016Y-13692389D02*
X12084492Y-13711437D01*
X12084492Y-13711437D02*
X12074968Y-13720960D01*
X12074968Y-13720960D02*
X12055921Y-13730484D01*
X12055921Y-13730484D02*
X11998778Y-13730484D01*
X11998778Y-13730484D02*
X11979730Y-13720960D01*
X11979730Y-13720960D02*
X11970207Y-13711437D01*
X12189254Y-13730484D02*
X12227349Y-13730484D01*
X12227349Y-13730484D02*
X12246397Y-13720960D01*
X12246397Y-13720960D02*
X12255921Y-13711437D01*
X12255921Y-13711437D02*
X12274968Y-13682865D01*
X12274968Y-13682865D02*
X12284492Y-13644770D01*
X12284492Y-13644770D02*
X12284492Y-13568579D01*
X12284492Y-13568579D02*
X12274968Y-13549532D01*
X12274968Y-13549532D02*
X12265445Y-13540008D01*
X12265445Y-13540008D02*
X12246397Y-13530484D01*
X12246397Y-13530484D02*
X12208302Y-13530484D01*
X12208302Y-13530484D02*
X12189254Y-13540008D01*
X12189254Y-13540008D02*
X12179730Y-13549532D01*
X12179730Y-13549532D02*
X12170207Y-13568579D01*
X12170207Y-13568579D02*
X12170207Y-13616198D01*
X12170207Y-13616198D02*
X12179730Y-13635246D01*
X12179730Y-13635246D02*
X12189254Y-13644770D01*
X12189254Y-13644770D02*
X12208302Y-13654294D01*
X12208302Y-13654294D02*
X12246397Y-13654294D01*
X12246397Y-13654294D02*
X12265445Y-13644770D01*
X12265445Y-13644770D02*
X12274968Y-13635246D01*
X12274968Y-13635246D02*
X12284492Y-13616198D01*
X12455921Y-13597151D02*
X12455921Y-13730484D01*
X12408302Y-13520960D02*
X12360683Y-13663818D01*
X12360683Y-13663818D02*
X12484492Y-13663818D01*
X12551159Y-13530484D02*
X12551159Y-13568579D01*
X12627349Y-13530484D02*
X12627349Y-13568579D01*
X12922588Y-13806675D02*
X12913064Y-13797151D01*
X12913064Y-13797151D02*
X12894016Y-13768579D01*
X12894016Y-13768579D02*
X12884492Y-13749532D01*
X12884492Y-13749532D02*
X12874969Y-13720960D01*
X12874969Y-13720960D02*
X12865445Y-13673341D01*
X12865445Y-13673341D02*
X12865445Y-13635246D01*
X12865445Y-13635246D02*
X12874969Y-13587627D01*
X12874969Y-13587627D02*
X12884492Y-13559056D01*
X12884492Y-13559056D02*
X12894016Y-13540008D01*
X12894016Y-13540008D02*
X12913064Y-13511437D01*
X12913064Y-13511437D02*
X12922588Y-13501913D01*
X12989254Y-13549532D02*
X12998778Y-13540008D01*
X12998778Y-13540008D02*
X13017826Y-13530484D01*
X13017826Y-13530484D02*
X13065445Y-13530484D01*
X13065445Y-13530484D02*
X13084492Y-13540008D01*
X13084492Y-13540008D02*
X13094016Y-13549532D01*
X13094016Y-13549532D02*
X13103540Y-13568579D01*
X13103540Y-13568579D02*
X13103540Y-13587627D01*
X13103540Y-13587627D02*
X13094016Y-13616198D01*
X13094016Y-13616198D02*
X12979730Y-13730484D01*
X12979730Y-13730484D02*
X13103540Y-13730484D01*
X13284492Y-13530484D02*
X13189254Y-13530484D01*
X13189254Y-13530484D02*
X13179730Y-13625722D01*
X13179730Y-13625722D02*
X13189254Y-13616198D01*
X13189254Y-13616198D02*
X13208302Y-13606675D01*
X13208302Y-13606675D02*
X13255921Y-13606675D01*
X13255921Y-13606675D02*
X13274969Y-13616198D01*
X13274969Y-13616198D02*
X13284492Y-13625722D01*
X13284492Y-13625722D02*
X13294016Y-13644770D01*
X13294016Y-13644770D02*
X13294016Y-13692389D01*
X13294016Y-13692389D02*
X13284492Y-13711437D01*
X13284492Y-13711437D02*
X13274969Y-13720960D01*
X13274969Y-13720960D02*
X13255921Y-13730484D01*
X13255921Y-13730484D02*
X13208302Y-13730484D01*
X13208302Y-13730484D02*
X13189254Y-13720960D01*
X13189254Y-13720960D02*
X13179730Y-13711437D01*
X13532111Y-13730484D02*
X13532111Y-13530484D01*
X13617826Y-13730484D02*
X13617826Y-13625722D01*
X13617826Y-13625722D02*
X13608302Y-13606675D01*
X13608302Y-13606675D02*
X13589254Y-13597151D01*
X13589254Y-13597151D02*
X13560683Y-13597151D01*
X13560683Y-13597151D02*
X13541635Y-13606675D01*
X13541635Y-13606675D02*
X13532111Y-13616198D01*
X13741635Y-13730484D02*
X13722588Y-13720960D01*
X13722588Y-13720960D02*
X13713064Y-13711437D01*
X13713064Y-13711437D02*
X13703540Y-13692389D01*
X13703540Y-13692389D02*
X13703540Y-13635246D01*
X13703540Y-13635246D02*
X13713064Y-13616198D01*
X13713064Y-13616198D02*
X13722588Y-13606675D01*
X13722588Y-13606675D02*
X13741635Y-13597151D01*
X13741635Y-13597151D02*
X13770207Y-13597151D01*
X13770207Y-13597151D02*
X13789254Y-13606675D01*
X13789254Y-13606675D02*
X13798778Y-13616198D01*
X13798778Y-13616198D02*
X13808302Y-13635246D01*
X13808302Y-13635246D02*
X13808302Y-13692389D01*
X13808302Y-13692389D02*
X13798778Y-13711437D01*
X13798778Y-13711437D02*
X13789254Y-13720960D01*
X13789254Y-13720960D02*
X13770207Y-13730484D01*
X13770207Y-13730484D02*
X13741635Y-13730484D01*
X13922588Y-13730484D02*
X13903540Y-13720960D01*
X13903540Y-13720960D02*
X13894016Y-13701913D01*
X13894016Y-13701913D02*
X13894016Y-13530484D01*
X14074969Y-13720960D02*
X14055921Y-13730484D01*
X14055921Y-13730484D02*
X14017826Y-13730484D01*
X14017826Y-13730484D02*
X13998778Y-13720960D01*
X13998778Y-13720960D02*
X13989254Y-13701913D01*
X13989254Y-13701913D02*
X13989254Y-13625722D01*
X13989254Y-13625722D02*
X13998778Y-13606675D01*
X13998778Y-13606675D02*
X14017826Y-13597151D01*
X14017826Y-13597151D02*
X14055921Y-13597151D01*
X14055921Y-13597151D02*
X14074969Y-13606675D01*
X14074969Y-13606675D02*
X14084492Y-13625722D01*
X14084492Y-13625722D02*
X14084492Y-13644770D01*
X14084492Y-13644770D02*
X13989254Y-13663818D01*
X14160683Y-13720960D02*
X14179731Y-13730484D01*
X14179731Y-13730484D02*
X14217826Y-13730484D01*
X14217826Y-13730484D02*
X14236873Y-13720960D01*
X14236873Y-13720960D02*
X14246397Y-13701913D01*
X14246397Y-13701913D02*
X14246397Y-13692389D01*
X14246397Y-13692389D02*
X14236873Y-13673341D01*
X14236873Y-13673341D02*
X14217826Y-13663818D01*
X14217826Y-13663818D02*
X14189254Y-13663818D01*
X14189254Y-13663818D02*
X14170207Y-13654294D01*
X14170207Y-13654294D02*
X14160683Y-13635246D01*
X14160683Y-13635246D02*
X14160683Y-13625722D01*
X14160683Y-13625722D02*
X14170207Y-13606675D01*
X14170207Y-13606675D02*
X14189254Y-13597151D01*
X14189254Y-13597151D02*
X14217826Y-13597151D01*
X14217826Y-13597151D02*
X14236873Y-13606675D01*
X14313064Y-13806675D02*
X14322588Y-13797151D01*
X14322588Y-13797151D02*
X14341635Y-13768579D01*
X14341635Y-13768579D02*
X14351159Y-13749532D01*
X14351159Y-13749532D02*
X14360683Y-13720960D01*
X14360683Y-13720960D02*
X14370207Y-13673341D01*
X14370207Y-13673341D02*
X14370207Y-13635246D01*
X14370207Y-13635246D02*
X14360683Y-13587627D01*
X14360683Y-13587627D02*
X14351159Y-13559056D01*
X14351159Y-13559056D02*
X14341635Y-13540008D01*
X14341635Y-13540008D02*
X14322588Y-13511437D01*
X14322588Y-13511437D02*
X14313064Y-13501913D01*
M02*
