%TF.GenerationSoftware,KiCad,Pcbnew,9.0.2*%
%TF.CreationDate,2025-07-25T22:05:17+05:30*%
%TF.ProjectId,mcu,6d63752e-6b69-4636-9164-5f7063625858,rev?*%
%TF.SameCoordinates,Original*%
%TF.FileFunction,Drillmap*%
%TF.FilePolarity,Positive*%
%FSLAX45Y45*%
G04 Gerber Fmt 4.5, Leading zero omitted, Abs format (unit mm)*
G04 Created by KiCad (PCBNEW 9.0.2) date 2025-07-25 22:05:17*
%MOMM*%
%LPD*%
G01*
G04 APERTURE LIST*
%ADD10C,0.050000*%
%ADD11C,0.200000*%
%ADD12C,0.210000*%
G04 APERTURE END LIST*
D10*
X13022500Y-12732500D02*
X9641038Y-12729505D01*
X9372925Y-9811000D02*
X12726962Y-9798495D01*
X13017950Y-10093087D02*
X13022500Y-12732500D01*
X9350047Y-12434913D02*
X9372000Y-9811000D01*
X12726962Y-9798495D02*
G75*
G02*
X13017953Y-10093087I-2J-291015D01*
G01*
X9641038Y-12729505D02*
G75*
G02*
X9350047Y-12434913I2J291015D01*
G01*
D11*
D12*
X9578000Y-12342000D02*
X9788000Y-12552000D01*
X9788000Y-12342000D02*
X9578000Y-12552000D01*
X12604000Y-10036000D02*
X12814000Y-10246000D01*
X12814000Y-10036000D02*
X12604000Y-10246000D01*
D11*
X9608302Y-13046484D02*
X9608302Y-12846484D01*
X9608302Y-12846484D02*
X9655921Y-12846484D01*
X9655921Y-12846484D02*
X9684492Y-12856008D01*
X9684492Y-12856008D02*
X9703540Y-12875056D01*
X9703540Y-12875056D02*
X9713064Y-12894103D01*
X9713064Y-12894103D02*
X9722587Y-12932198D01*
X9722587Y-12932198D02*
X9722587Y-12960770D01*
X9722587Y-12960770D02*
X9713064Y-12998865D01*
X9713064Y-12998865D02*
X9703540Y-13017913D01*
X9703540Y-13017913D02*
X9684492Y-13036960D01*
X9684492Y-13036960D02*
X9655921Y-13046484D01*
X9655921Y-13046484D02*
X9608302Y-13046484D01*
X9808302Y-13046484D02*
X9808302Y-12913151D01*
X9808302Y-12951246D02*
X9817825Y-12932198D01*
X9817825Y-12932198D02*
X9827349Y-12922675D01*
X9827349Y-12922675D02*
X9846397Y-12913151D01*
X9846397Y-12913151D02*
X9865445Y-12913151D01*
X9932111Y-13046484D02*
X9932111Y-12913151D01*
X9932111Y-12846484D02*
X9922587Y-12856008D01*
X9922587Y-12856008D02*
X9932111Y-12865532D01*
X9932111Y-12865532D02*
X9941635Y-12856008D01*
X9941635Y-12856008D02*
X9932111Y-12846484D01*
X9932111Y-12846484D02*
X9932111Y-12865532D01*
X10055921Y-13046484D02*
X10036873Y-13036960D01*
X10036873Y-13036960D02*
X10027349Y-13017913D01*
X10027349Y-13017913D02*
X10027349Y-12846484D01*
X10160683Y-13046484D02*
X10141635Y-13036960D01*
X10141635Y-13036960D02*
X10132111Y-13017913D01*
X10132111Y-13017913D02*
X10132111Y-12846484D01*
X10389254Y-13046484D02*
X10389254Y-12846484D01*
X10389254Y-12846484D02*
X10455921Y-12989341D01*
X10455921Y-12989341D02*
X10522587Y-12846484D01*
X10522587Y-12846484D02*
X10522587Y-13046484D01*
X10703540Y-13046484D02*
X10703540Y-12941722D01*
X10703540Y-12941722D02*
X10694016Y-12922675D01*
X10694016Y-12922675D02*
X10674968Y-12913151D01*
X10674968Y-12913151D02*
X10636873Y-12913151D01*
X10636873Y-12913151D02*
X10617825Y-12922675D01*
X10703540Y-13036960D02*
X10684492Y-13046484D01*
X10684492Y-13046484D02*
X10636873Y-13046484D01*
X10636873Y-13046484D02*
X10617825Y-13036960D01*
X10617825Y-13036960D02*
X10608302Y-13017913D01*
X10608302Y-13017913D02*
X10608302Y-12998865D01*
X10608302Y-12998865D02*
X10617825Y-12979818D01*
X10617825Y-12979818D02*
X10636873Y-12970294D01*
X10636873Y-12970294D02*
X10684492Y-12970294D01*
X10684492Y-12970294D02*
X10703540Y-12960770D01*
X10798778Y-12913151D02*
X10798778Y-13113151D01*
X10798778Y-12922675D02*
X10817825Y-12913151D01*
X10817825Y-12913151D02*
X10855921Y-12913151D01*
X10855921Y-12913151D02*
X10874968Y-12922675D01*
X10874968Y-12922675D02*
X10884492Y-12932198D01*
X10884492Y-12932198D02*
X10894016Y-12951246D01*
X10894016Y-12951246D02*
X10894016Y-13008389D01*
X10894016Y-13008389D02*
X10884492Y-13027437D01*
X10884492Y-13027437D02*
X10874968Y-13036960D01*
X10874968Y-13036960D02*
X10855921Y-13046484D01*
X10855921Y-13046484D02*
X10817825Y-13046484D01*
X10817825Y-13046484D02*
X10798778Y-13036960D01*
X10979730Y-13027437D02*
X10989254Y-13036960D01*
X10989254Y-13036960D02*
X10979730Y-13046484D01*
X10979730Y-13046484D02*
X10970206Y-13036960D01*
X10970206Y-13036960D02*
X10979730Y-13027437D01*
X10979730Y-13027437D02*
X10979730Y-13046484D01*
X10979730Y-12922675D02*
X10989254Y-12932198D01*
X10989254Y-12932198D02*
X10979730Y-12941722D01*
X10979730Y-12941722D02*
X10970206Y-12932198D01*
X10970206Y-12932198D02*
X10979730Y-12922675D01*
X10979730Y-12922675D02*
X10979730Y-12941722D01*
X9147525Y-13275000D02*
X9347525Y-13475000D01*
X9347525Y-13275000D02*
X9147525Y-13475000D01*
X9598778Y-13285532D02*
X9608302Y-13276008D01*
X9608302Y-13276008D02*
X9627349Y-13266484D01*
X9627349Y-13266484D02*
X9674968Y-13266484D01*
X9674968Y-13266484D02*
X9694016Y-13276008D01*
X9694016Y-13276008D02*
X9703540Y-13285532D01*
X9703540Y-13285532D02*
X9713064Y-13304579D01*
X9713064Y-13304579D02*
X9713064Y-13323627D01*
X9713064Y-13323627D02*
X9703540Y-13352198D01*
X9703540Y-13352198D02*
X9589254Y-13466484D01*
X9589254Y-13466484D02*
X9713064Y-13466484D01*
X9798778Y-13447437D02*
X9808302Y-13456960D01*
X9808302Y-13456960D02*
X9798778Y-13466484D01*
X9798778Y-13466484D02*
X9789254Y-13456960D01*
X9789254Y-13456960D02*
X9798778Y-13447437D01*
X9798778Y-13447437D02*
X9798778Y-13466484D01*
X9998778Y-13466484D02*
X9884492Y-13466484D01*
X9941635Y-13466484D02*
X9941635Y-13266484D01*
X9941635Y-13266484D02*
X9922587Y-13295056D01*
X9922587Y-13295056D02*
X9903540Y-13314103D01*
X9903540Y-13314103D02*
X9884492Y-13323627D01*
X10122587Y-13266484D02*
X10141635Y-13266484D01*
X10141635Y-13266484D02*
X10160683Y-13276008D01*
X10160683Y-13276008D02*
X10170206Y-13285532D01*
X10170206Y-13285532D02*
X10179730Y-13304579D01*
X10179730Y-13304579D02*
X10189254Y-13342675D01*
X10189254Y-13342675D02*
X10189254Y-13390294D01*
X10189254Y-13390294D02*
X10179730Y-13428389D01*
X10179730Y-13428389D02*
X10170206Y-13447437D01*
X10170206Y-13447437D02*
X10160683Y-13456960D01*
X10160683Y-13456960D02*
X10141635Y-13466484D01*
X10141635Y-13466484D02*
X10122587Y-13466484D01*
X10122587Y-13466484D02*
X10103540Y-13456960D01*
X10103540Y-13456960D02*
X10094016Y-13447437D01*
X10094016Y-13447437D02*
X10084492Y-13428389D01*
X10084492Y-13428389D02*
X10074968Y-13390294D01*
X10074968Y-13390294D02*
X10074968Y-13342675D01*
X10074968Y-13342675D02*
X10084492Y-13304579D01*
X10084492Y-13304579D02*
X10094016Y-13285532D01*
X10094016Y-13285532D02*
X10103540Y-13276008D01*
X10103540Y-13276008D02*
X10122587Y-13266484D01*
X10313064Y-13266484D02*
X10332111Y-13266484D01*
X10332111Y-13266484D02*
X10351159Y-13276008D01*
X10351159Y-13276008D02*
X10360683Y-13285532D01*
X10360683Y-13285532D02*
X10370206Y-13304579D01*
X10370206Y-13304579D02*
X10379730Y-13342675D01*
X10379730Y-13342675D02*
X10379730Y-13390294D01*
X10379730Y-13390294D02*
X10370206Y-13428389D01*
X10370206Y-13428389D02*
X10360683Y-13447437D01*
X10360683Y-13447437D02*
X10351159Y-13456960D01*
X10351159Y-13456960D02*
X10332111Y-13466484D01*
X10332111Y-13466484D02*
X10313064Y-13466484D01*
X10313064Y-13466484D02*
X10294016Y-13456960D01*
X10294016Y-13456960D02*
X10284492Y-13447437D01*
X10284492Y-13447437D02*
X10274968Y-13428389D01*
X10274968Y-13428389D02*
X10265445Y-13390294D01*
X10265445Y-13390294D02*
X10265445Y-13342675D01*
X10265445Y-13342675D02*
X10274968Y-13304579D01*
X10274968Y-13304579D02*
X10284492Y-13285532D01*
X10284492Y-13285532D02*
X10294016Y-13276008D01*
X10294016Y-13276008D02*
X10313064Y-13266484D01*
X10465445Y-13466484D02*
X10465445Y-13333151D01*
X10465445Y-13352198D02*
X10474968Y-13342675D01*
X10474968Y-13342675D02*
X10494016Y-13333151D01*
X10494016Y-13333151D02*
X10522587Y-13333151D01*
X10522587Y-13333151D02*
X10541635Y-13342675D01*
X10541635Y-13342675D02*
X10551159Y-13361722D01*
X10551159Y-13361722D02*
X10551159Y-13466484D01*
X10551159Y-13361722D02*
X10560683Y-13342675D01*
X10560683Y-13342675D02*
X10579730Y-13333151D01*
X10579730Y-13333151D02*
X10608302Y-13333151D01*
X10608302Y-13333151D02*
X10627349Y-13342675D01*
X10627349Y-13342675D02*
X10636873Y-13361722D01*
X10636873Y-13361722D02*
X10636873Y-13466484D01*
X10732111Y-13466484D02*
X10732111Y-13333151D01*
X10732111Y-13352198D02*
X10741635Y-13342675D01*
X10741635Y-13342675D02*
X10760683Y-13333151D01*
X10760683Y-13333151D02*
X10789254Y-13333151D01*
X10789254Y-13333151D02*
X10808302Y-13342675D01*
X10808302Y-13342675D02*
X10817826Y-13361722D01*
X10817826Y-13361722D02*
X10817826Y-13466484D01*
X10817826Y-13361722D02*
X10827349Y-13342675D01*
X10827349Y-13342675D02*
X10846397Y-13333151D01*
X10846397Y-13333151D02*
X10874968Y-13333151D01*
X10874968Y-13333151D02*
X10894016Y-13342675D01*
X10894016Y-13342675D02*
X10903540Y-13361722D01*
X10903540Y-13361722D02*
X10903540Y-13466484D01*
X11294016Y-13256960D02*
X11122588Y-13514103D01*
X11551159Y-13266484D02*
X11570207Y-13266484D01*
X11570207Y-13266484D02*
X11589254Y-13276008D01*
X11589254Y-13276008D02*
X11598778Y-13285532D01*
X11598778Y-13285532D02*
X11608302Y-13304579D01*
X11608302Y-13304579D02*
X11617826Y-13342675D01*
X11617826Y-13342675D02*
X11617826Y-13390294D01*
X11617826Y-13390294D02*
X11608302Y-13428389D01*
X11608302Y-13428389D02*
X11598778Y-13447437D01*
X11598778Y-13447437D02*
X11589254Y-13456960D01*
X11589254Y-13456960D02*
X11570207Y-13466484D01*
X11570207Y-13466484D02*
X11551159Y-13466484D01*
X11551159Y-13466484D02*
X11532111Y-13456960D01*
X11532111Y-13456960D02*
X11522587Y-13447437D01*
X11522587Y-13447437D02*
X11513064Y-13428389D01*
X11513064Y-13428389D02*
X11503540Y-13390294D01*
X11503540Y-13390294D02*
X11503540Y-13342675D01*
X11503540Y-13342675D02*
X11513064Y-13304579D01*
X11513064Y-13304579D02*
X11522587Y-13285532D01*
X11522587Y-13285532D02*
X11532111Y-13276008D01*
X11532111Y-13276008D02*
X11551159Y-13266484D01*
X11703540Y-13447437D02*
X11713064Y-13456960D01*
X11713064Y-13456960D02*
X11703540Y-13466484D01*
X11703540Y-13466484D02*
X11694016Y-13456960D01*
X11694016Y-13456960D02*
X11703540Y-13447437D01*
X11703540Y-13447437D02*
X11703540Y-13466484D01*
X11836873Y-13266484D02*
X11855921Y-13266484D01*
X11855921Y-13266484D02*
X11874968Y-13276008D01*
X11874968Y-13276008D02*
X11884492Y-13285532D01*
X11884492Y-13285532D02*
X11894016Y-13304579D01*
X11894016Y-13304579D02*
X11903540Y-13342675D01*
X11903540Y-13342675D02*
X11903540Y-13390294D01*
X11903540Y-13390294D02*
X11894016Y-13428389D01*
X11894016Y-13428389D02*
X11884492Y-13447437D01*
X11884492Y-13447437D02*
X11874968Y-13456960D01*
X11874968Y-13456960D02*
X11855921Y-13466484D01*
X11855921Y-13466484D02*
X11836873Y-13466484D01*
X11836873Y-13466484D02*
X11817826Y-13456960D01*
X11817826Y-13456960D02*
X11808302Y-13447437D01*
X11808302Y-13447437D02*
X11798778Y-13428389D01*
X11798778Y-13428389D02*
X11789254Y-13390294D01*
X11789254Y-13390294D02*
X11789254Y-13342675D01*
X11789254Y-13342675D02*
X11798778Y-13304579D01*
X11798778Y-13304579D02*
X11808302Y-13285532D01*
X11808302Y-13285532D02*
X11817826Y-13276008D01*
X11817826Y-13276008D02*
X11836873Y-13266484D01*
X12017826Y-13352198D02*
X11998778Y-13342675D01*
X11998778Y-13342675D02*
X11989254Y-13333151D01*
X11989254Y-13333151D02*
X11979730Y-13314103D01*
X11979730Y-13314103D02*
X11979730Y-13304579D01*
X11979730Y-13304579D02*
X11989254Y-13285532D01*
X11989254Y-13285532D02*
X11998778Y-13276008D01*
X11998778Y-13276008D02*
X12017826Y-13266484D01*
X12017826Y-13266484D02*
X12055921Y-13266484D01*
X12055921Y-13266484D02*
X12074968Y-13276008D01*
X12074968Y-13276008D02*
X12084492Y-13285532D01*
X12084492Y-13285532D02*
X12094016Y-13304579D01*
X12094016Y-13304579D02*
X12094016Y-13314103D01*
X12094016Y-13314103D02*
X12084492Y-13333151D01*
X12084492Y-13333151D02*
X12074968Y-13342675D01*
X12074968Y-13342675D02*
X12055921Y-13352198D01*
X12055921Y-13352198D02*
X12017826Y-13352198D01*
X12017826Y-13352198D02*
X11998778Y-13361722D01*
X11998778Y-13361722D02*
X11989254Y-13371246D01*
X11989254Y-13371246D02*
X11979730Y-13390294D01*
X11979730Y-13390294D02*
X11979730Y-13428389D01*
X11979730Y-13428389D02*
X11989254Y-13447437D01*
X11989254Y-13447437D02*
X11998778Y-13456960D01*
X11998778Y-13456960D02*
X12017826Y-13466484D01*
X12017826Y-13466484D02*
X12055921Y-13466484D01*
X12055921Y-13466484D02*
X12074968Y-13456960D01*
X12074968Y-13456960D02*
X12084492Y-13447437D01*
X12084492Y-13447437D02*
X12094016Y-13428389D01*
X12094016Y-13428389D02*
X12094016Y-13390294D01*
X12094016Y-13390294D02*
X12084492Y-13371246D01*
X12084492Y-13371246D02*
X12074968Y-13361722D01*
X12074968Y-13361722D02*
X12055921Y-13352198D01*
X12170207Y-13285532D02*
X12179730Y-13276008D01*
X12179730Y-13276008D02*
X12198778Y-13266484D01*
X12198778Y-13266484D02*
X12246397Y-13266484D01*
X12246397Y-13266484D02*
X12265445Y-13276008D01*
X12265445Y-13276008D02*
X12274968Y-13285532D01*
X12274968Y-13285532D02*
X12284492Y-13304579D01*
X12284492Y-13304579D02*
X12284492Y-13323627D01*
X12284492Y-13323627D02*
X12274968Y-13352198D01*
X12274968Y-13352198D02*
X12160683Y-13466484D01*
X12160683Y-13466484D02*
X12284492Y-13466484D01*
X12351159Y-13266484D02*
X12484492Y-13266484D01*
X12484492Y-13266484D02*
X12398778Y-13466484D01*
X12551159Y-13266484D02*
X12551159Y-13304579D01*
X12627349Y-13266484D02*
X12627349Y-13304579D01*
X12922588Y-13542675D02*
X12913064Y-13533151D01*
X12913064Y-13533151D02*
X12894016Y-13504579D01*
X12894016Y-13504579D02*
X12884492Y-13485532D01*
X12884492Y-13485532D02*
X12874969Y-13456960D01*
X12874969Y-13456960D02*
X12865445Y-13409341D01*
X12865445Y-13409341D02*
X12865445Y-13371246D01*
X12865445Y-13371246D02*
X12874969Y-13323627D01*
X12874969Y-13323627D02*
X12884492Y-13295056D01*
X12884492Y-13295056D02*
X12894016Y-13276008D01*
X12894016Y-13276008D02*
X12913064Y-13247437D01*
X12913064Y-13247437D02*
X12922588Y-13237913D01*
X12989254Y-13285532D02*
X12998778Y-13276008D01*
X12998778Y-13276008D02*
X13017826Y-13266484D01*
X13017826Y-13266484D02*
X13065445Y-13266484D01*
X13065445Y-13266484D02*
X13084492Y-13276008D01*
X13084492Y-13276008D02*
X13094016Y-13285532D01*
X13094016Y-13285532D02*
X13103540Y-13304579D01*
X13103540Y-13304579D02*
X13103540Y-13323627D01*
X13103540Y-13323627D02*
X13094016Y-13352198D01*
X13094016Y-13352198D02*
X12979730Y-13466484D01*
X12979730Y-13466484D02*
X13103540Y-13466484D01*
X13341635Y-13466484D02*
X13341635Y-13266484D01*
X13427350Y-13466484D02*
X13427350Y-13361722D01*
X13427350Y-13361722D02*
X13417826Y-13342675D01*
X13417826Y-13342675D02*
X13398778Y-13333151D01*
X13398778Y-13333151D02*
X13370207Y-13333151D01*
X13370207Y-13333151D02*
X13351159Y-13342675D01*
X13351159Y-13342675D02*
X13341635Y-13352198D01*
X13551159Y-13466484D02*
X13532111Y-13456960D01*
X13532111Y-13456960D02*
X13522588Y-13447437D01*
X13522588Y-13447437D02*
X13513064Y-13428389D01*
X13513064Y-13428389D02*
X13513064Y-13371246D01*
X13513064Y-13371246D02*
X13522588Y-13352198D01*
X13522588Y-13352198D02*
X13532111Y-13342675D01*
X13532111Y-13342675D02*
X13551159Y-13333151D01*
X13551159Y-13333151D02*
X13579731Y-13333151D01*
X13579731Y-13333151D02*
X13598778Y-13342675D01*
X13598778Y-13342675D02*
X13608302Y-13352198D01*
X13608302Y-13352198D02*
X13617826Y-13371246D01*
X13617826Y-13371246D02*
X13617826Y-13428389D01*
X13617826Y-13428389D02*
X13608302Y-13447437D01*
X13608302Y-13447437D02*
X13598778Y-13456960D01*
X13598778Y-13456960D02*
X13579731Y-13466484D01*
X13579731Y-13466484D02*
X13551159Y-13466484D01*
X13732111Y-13466484D02*
X13713064Y-13456960D01*
X13713064Y-13456960D02*
X13703540Y-13437913D01*
X13703540Y-13437913D02*
X13703540Y-13266484D01*
X13884492Y-13456960D02*
X13865445Y-13466484D01*
X13865445Y-13466484D02*
X13827350Y-13466484D01*
X13827350Y-13466484D02*
X13808302Y-13456960D01*
X13808302Y-13456960D02*
X13798778Y-13437913D01*
X13798778Y-13437913D02*
X13798778Y-13361722D01*
X13798778Y-13361722D02*
X13808302Y-13342675D01*
X13808302Y-13342675D02*
X13827350Y-13333151D01*
X13827350Y-13333151D02*
X13865445Y-13333151D01*
X13865445Y-13333151D02*
X13884492Y-13342675D01*
X13884492Y-13342675D02*
X13894016Y-13361722D01*
X13894016Y-13361722D02*
X13894016Y-13380770D01*
X13894016Y-13380770D02*
X13798778Y-13399818D01*
X13970207Y-13456960D02*
X13989254Y-13466484D01*
X13989254Y-13466484D02*
X14027350Y-13466484D01*
X14027350Y-13466484D02*
X14046397Y-13456960D01*
X14046397Y-13456960D02*
X14055921Y-13437913D01*
X14055921Y-13437913D02*
X14055921Y-13428389D01*
X14055921Y-13428389D02*
X14046397Y-13409341D01*
X14046397Y-13409341D02*
X14027350Y-13399818D01*
X14027350Y-13399818D02*
X13998778Y-13399818D01*
X13998778Y-13399818D02*
X13979731Y-13390294D01*
X13979731Y-13390294D02*
X13970207Y-13371246D01*
X13970207Y-13371246D02*
X13970207Y-13361722D01*
X13970207Y-13361722D02*
X13979731Y-13342675D01*
X13979731Y-13342675D02*
X13998778Y-13333151D01*
X13998778Y-13333151D02*
X14027350Y-13333151D01*
X14027350Y-13333151D02*
X14046397Y-13342675D01*
X14122588Y-13542675D02*
X14132112Y-13533151D01*
X14132112Y-13533151D02*
X14151159Y-13504579D01*
X14151159Y-13504579D02*
X14160683Y-13485532D01*
X14160683Y-13485532D02*
X14170207Y-13456960D01*
X14170207Y-13456960D02*
X14179731Y-13409341D01*
X14179731Y-13409341D02*
X14179731Y-13371246D01*
X14179731Y-13371246D02*
X14170207Y-13323627D01*
X14170207Y-13323627D02*
X14160683Y-13295056D01*
X14160683Y-13295056D02*
X14151159Y-13276008D01*
X14151159Y-13276008D02*
X14132112Y-13247437D01*
X14132112Y-13247437D02*
X14122588Y-13237913D01*
X14484493Y-13542675D02*
X14474969Y-13533151D01*
X14474969Y-13533151D02*
X14455921Y-13504579D01*
X14455921Y-13504579D02*
X14446397Y-13485532D01*
X14446397Y-13485532D02*
X14436873Y-13456960D01*
X14436873Y-13456960D02*
X14427350Y-13409341D01*
X14427350Y-13409341D02*
X14427350Y-13371246D01*
X14427350Y-13371246D02*
X14436873Y-13323627D01*
X14436873Y-13323627D02*
X14446397Y-13295056D01*
X14446397Y-13295056D02*
X14455921Y-13276008D01*
X14455921Y-13276008D02*
X14474969Y-13247437D01*
X14474969Y-13247437D02*
X14484493Y-13237913D01*
X14560683Y-13333151D02*
X14560683Y-13466484D01*
X14560683Y-13352198D02*
X14570207Y-13342675D01*
X14570207Y-13342675D02*
X14589254Y-13333151D01*
X14589254Y-13333151D02*
X14617826Y-13333151D01*
X14617826Y-13333151D02*
X14636873Y-13342675D01*
X14636873Y-13342675D02*
X14646397Y-13361722D01*
X14646397Y-13361722D02*
X14646397Y-13466484D01*
X14770207Y-13466484D02*
X14751159Y-13456960D01*
X14751159Y-13456960D02*
X14741635Y-13447437D01*
X14741635Y-13447437D02*
X14732112Y-13428389D01*
X14732112Y-13428389D02*
X14732112Y-13371246D01*
X14732112Y-13371246D02*
X14741635Y-13352198D01*
X14741635Y-13352198D02*
X14751159Y-13342675D01*
X14751159Y-13342675D02*
X14770207Y-13333151D01*
X14770207Y-13333151D02*
X14798778Y-13333151D01*
X14798778Y-13333151D02*
X14817826Y-13342675D01*
X14817826Y-13342675D02*
X14827350Y-13352198D01*
X14827350Y-13352198D02*
X14836873Y-13371246D01*
X14836873Y-13371246D02*
X14836873Y-13428389D01*
X14836873Y-13428389D02*
X14827350Y-13447437D01*
X14827350Y-13447437D02*
X14817826Y-13456960D01*
X14817826Y-13456960D02*
X14798778Y-13466484D01*
X14798778Y-13466484D02*
X14770207Y-13466484D01*
X14894016Y-13333151D02*
X14970207Y-13333151D01*
X14922588Y-13266484D02*
X14922588Y-13437913D01*
X14922588Y-13437913D02*
X14932112Y-13456960D01*
X14932112Y-13456960D02*
X14951159Y-13466484D01*
X14951159Y-13466484D02*
X14970207Y-13466484D01*
X15189254Y-13333151D02*
X15189254Y-13533151D01*
X15189254Y-13342675D02*
X15208302Y-13333151D01*
X15208302Y-13333151D02*
X15246397Y-13333151D01*
X15246397Y-13333151D02*
X15265445Y-13342675D01*
X15265445Y-13342675D02*
X15274969Y-13352198D01*
X15274969Y-13352198D02*
X15284493Y-13371246D01*
X15284493Y-13371246D02*
X15284493Y-13428389D01*
X15284493Y-13428389D02*
X15274969Y-13447437D01*
X15274969Y-13447437D02*
X15265445Y-13456960D01*
X15265445Y-13456960D02*
X15246397Y-13466484D01*
X15246397Y-13466484D02*
X15208302Y-13466484D01*
X15208302Y-13466484D02*
X15189254Y-13456960D01*
X15398778Y-13466484D02*
X15379731Y-13456960D01*
X15379731Y-13456960D02*
X15370207Y-13437913D01*
X15370207Y-13437913D02*
X15370207Y-13266484D01*
X15560683Y-13466484D02*
X15560683Y-13361722D01*
X15560683Y-13361722D02*
X15551159Y-13342675D01*
X15551159Y-13342675D02*
X15532112Y-13333151D01*
X15532112Y-13333151D02*
X15494016Y-13333151D01*
X15494016Y-13333151D02*
X15474969Y-13342675D01*
X15560683Y-13456960D02*
X15541635Y-13466484D01*
X15541635Y-13466484D02*
X15494016Y-13466484D01*
X15494016Y-13466484D02*
X15474969Y-13456960D01*
X15474969Y-13456960D02*
X15465445Y-13437913D01*
X15465445Y-13437913D02*
X15465445Y-13418865D01*
X15465445Y-13418865D02*
X15474969Y-13399818D01*
X15474969Y-13399818D02*
X15494016Y-13390294D01*
X15494016Y-13390294D02*
X15541635Y-13390294D01*
X15541635Y-13390294D02*
X15560683Y-13380770D01*
X15627350Y-13333151D02*
X15703540Y-13333151D01*
X15655921Y-13266484D02*
X15655921Y-13437913D01*
X15655921Y-13437913D02*
X15665445Y-13456960D01*
X15665445Y-13456960D02*
X15684493Y-13466484D01*
X15684493Y-13466484D02*
X15703540Y-13466484D01*
X15846397Y-13456960D02*
X15827350Y-13466484D01*
X15827350Y-13466484D02*
X15789254Y-13466484D01*
X15789254Y-13466484D02*
X15770207Y-13456960D01*
X15770207Y-13456960D02*
X15760683Y-13437913D01*
X15760683Y-13437913D02*
X15760683Y-13361722D01*
X15760683Y-13361722D02*
X15770207Y-13342675D01*
X15770207Y-13342675D02*
X15789254Y-13333151D01*
X15789254Y-13333151D02*
X15827350Y-13333151D01*
X15827350Y-13333151D02*
X15846397Y-13342675D01*
X15846397Y-13342675D02*
X15855921Y-13361722D01*
X15855921Y-13361722D02*
X15855921Y-13380770D01*
X15855921Y-13380770D02*
X15760683Y-13399818D01*
X16027350Y-13466484D02*
X16027350Y-13266484D01*
X16027350Y-13456960D02*
X16008302Y-13466484D01*
X16008302Y-13466484D02*
X15970207Y-13466484D01*
X15970207Y-13466484D02*
X15951159Y-13456960D01*
X15951159Y-13456960D02*
X15941635Y-13447437D01*
X15941635Y-13447437D02*
X15932112Y-13428389D01*
X15932112Y-13428389D02*
X15932112Y-13371246D01*
X15932112Y-13371246D02*
X15941635Y-13352198D01*
X15941635Y-13352198D02*
X15951159Y-13342675D01*
X15951159Y-13342675D02*
X15970207Y-13333151D01*
X15970207Y-13333151D02*
X16008302Y-13333151D01*
X16008302Y-13333151D02*
X16027350Y-13342675D01*
X16103540Y-13542675D02*
X16113064Y-13533151D01*
X16113064Y-13533151D02*
X16132112Y-13504579D01*
X16132112Y-13504579D02*
X16141635Y-13485532D01*
X16141635Y-13485532D02*
X16151159Y-13456960D01*
X16151159Y-13456960D02*
X16160683Y-13409341D01*
X16160683Y-13409341D02*
X16160683Y-13371246D01*
X16160683Y-13371246D02*
X16151159Y-13323627D01*
X16151159Y-13323627D02*
X16141635Y-13295056D01*
X16141635Y-13295056D02*
X16132112Y-13276008D01*
X16132112Y-13276008D02*
X16113064Y-13247437D01*
X16113064Y-13247437D02*
X16103540Y-13237913D01*
M02*
