%TF.GenerationSoftware,KiCad,Pcbnew,9.0.2*%
%TF.CreationDate,2025-07-25T22:05:18+05:30*%
%TF.ProjectId,mcu,6d63752e-6b69-4636-9164-5f7063625858,rev?*%
%TF.SameCoordinates,Original*%
%TF.FileFunction,Legend,Bot*%
%TF.FilePolarity,Positive*%
%FSLAX46Y46*%
G04 Gerber Fmt 4.6, Leading zero omitted, Abs format (unit mm)*
G04 Created by KiCad (PCBNEW 9.0.2) date 2025-07-25 22:05:18*
%MOMM*%
%LPD*%
G01*
G04 APERTURE LIST*
%ADD10C,0.100000*%
%ADD11C,0.010000*%
G04 APERTURE END LIST*
D10*
X121831539Y-105070000D02*
G75*
G02*
X114668461Y-105070000I-3581539J0D01*
G01*
X114668461Y-105070000D02*
G75*
G02*
X121831539Y-105070000I3581539J0D01*
G01*
X120205282Y-105990514D02*
X118776711Y-105990514D01*
X120490996Y-106847657D02*
X119490996Y-103847657D01*
X119490996Y-103847657D02*
X118490996Y-106847657D01*
X117490996Y-106847657D02*
X117490996Y-103847657D01*
X117490996Y-103847657D02*
X116348139Y-103847657D01*
X116348139Y-103847657D02*
X116062424Y-103990514D01*
X116062424Y-103990514D02*
X115919567Y-104133371D01*
X115919567Y-104133371D02*
X115776710Y-104419085D01*
X115776710Y-104419085D02*
X115776710Y-104847657D01*
X115776710Y-104847657D02*
X115919567Y-105133371D01*
X115919567Y-105133371D02*
X116062424Y-105276228D01*
X116062424Y-105276228D02*
X116348139Y-105419085D01*
X116348139Y-105419085D02*
X117490996Y-105419085D01*
D11*
%TO.C,REF\u002A\u002A*%
X97905406Y-104704949D02*
X97931127Y-104720647D01*
X97957778Y-104742227D01*
X97957778Y-105389684D01*
X97931127Y-105411264D01*
X97899767Y-105428739D01*
X97863966Y-105429575D01*
X97832528Y-105409082D01*
X97828652Y-105404416D01*
X97823186Y-105394949D01*
X97818979Y-105381267D01*
X97815867Y-105360748D01*
X97813687Y-105330768D01*
X97812276Y-105288704D01*
X97811471Y-105231932D01*
X97811107Y-105157830D01*
X97811022Y-105063773D01*
X97811022Y-104742227D01*
X97837673Y-104720647D01*
X97861386Y-104705877D01*
X97884400Y-104699067D01*
X97905406Y-104704949D01*
G36*
X97905406Y-104704949D02*
G01*
X97931127Y-104720647D01*
X97957778Y-104742227D01*
X97957778Y-105389684D01*
X97931127Y-105411264D01*
X97899767Y-105428739D01*
X97863966Y-105429575D01*
X97832528Y-105409082D01*
X97828652Y-105404416D01*
X97823186Y-105394949D01*
X97818979Y-105381267D01*
X97815867Y-105360748D01*
X97813687Y-105330768D01*
X97812276Y-105288704D01*
X97811471Y-105231932D01*
X97811107Y-105157830D01*
X97811022Y-105063773D01*
X97811022Y-104742227D01*
X97837673Y-104720647D01*
X97861386Y-104705877D01*
X97884400Y-104699067D01*
X97905406Y-104704949D01*
G37*
X105036137Y-104703463D02*
X105070291Y-104726776D01*
X105098000Y-104754485D01*
X105098000Y-105067537D01*
X105097959Y-105151567D01*
X105097701Y-105225789D01*
X105097030Y-105282541D01*
X105095752Y-105324512D01*
X105093673Y-105354389D01*
X105090599Y-105374861D01*
X105086334Y-105388614D01*
X105080684Y-105398337D01*
X105073455Y-105406717D01*
X105041991Y-105428181D01*
X105006826Y-105429947D01*
X104973822Y-105410267D01*
X104968516Y-105404398D01*
X104963066Y-105395314D01*
X104958900Y-105381973D01*
X104955846Y-105361757D01*
X104953732Y-105332049D01*
X104952386Y-105290232D01*
X104951638Y-105233689D01*
X104951314Y-105159802D01*
X104951245Y-105065956D01*
X104951284Y-104990294D01*
X104951539Y-104912385D01*
X104952183Y-104852375D01*
X104953387Y-104807648D01*
X104955324Y-104775585D01*
X104958164Y-104753571D01*
X104962079Y-104738987D01*
X104967242Y-104729218D01*
X104973822Y-104721645D01*
X105003006Y-104702623D01*
X105036137Y-104703463D01*
G36*
X105036137Y-104703463D02*
G01*
X105070291Y-104726776D01*
X105098000Y-104754485D01*
X105098000Y-105067537D01*
X105097959Y-105151567D01*
X105097701Y-105225789D01*
X105097030Y-105282541D01*
X105095752Y-105324512D01*
X105093673Y-105354389D01*
X105090599Y-105374861D01*
X105086334Y-105388614D01*
X105080684Y-105398337D01*
X105073455Y-105406717D01*
X105041991Y-105428181D01*
X105006826Y-105429947D01*
X104973822Y-105410267D01*
X104968516Y-105404398D01*
X104963066Y-105395314D01*
X104958900Y-105381973D01*
X104955846Y-105361757D01*
X104953732Y-105332049D01*
X104952386Y-105290232D01*
X104951638Y-105233689D01*
X104951314Y-105159802D01*
X104951245Y-105065956D01*
X104951284Y-104990294D01*
X104951539Y-104912385D01*
X104952183Y-104852375D01*
X104953387Y-104807648D01*
X104955324Y-104775585D01*
X104958164Y-104753571D01*
X104962079Y-104738987D01*
X104967242Y-104729218D01*
X104973822Y-104721645D01*
X105003006Y-104702623D01*
X105036137Y-104703463D01*
G37*
X104504562Y-99462850D02*
X104587313Y-99490053D01*
X104662406Y-99535484D01*
X104734298Y-99601302D01*
X104772846Y-99645567D01*
X104812256Y-99703961D01*
X104837446Y-99764586D01*
X104850861Y-99833865D01*
X104854948Y-99918222D01*
X104854669Y-99964307D01*
X104852460Y-100005450D01*
X104846894Y-100037582D01*
X104836586Y-100068122D01*
X104820148Y-100104489D01*
X104806200Y-100131728D01*
X104747665Y-100217429D01*
X104675619Y-100286617D01*
X104591947Y-100337741D01*
X104498531Y-100369250D01*
X104465434Y-100376225D01*
X104424960Y-100383094D01*
X104391999Y-100384919D01*
X104357698Y-100381947D01*
X104313200Y-100374426D01*
X104261934Y-100362002D01*
X104171434Y-100324112D01*
X104092345Y-100269836D01*
X104026528Y-100201770D01*
X103975840Y-100122511D01*
X103942140Y-100034654D01*
X103927286Y-99940795D01*
X103933136Y-99843530D01*
X103959399Y-99747220D01*
X104004418Y-99658494D01*
X104065373Y-99583419D01*
X104140184Y-99523641D01*
X104226768Y-99480809D01*
X104323043Y-99456571D01*
X104426928Y-99452576D01*
X104504562Y-99462850D01*
G36*
X104504562Y-99462850D02*
G01*
X104587313Y-99490053D01*
X104662406Y-99535484D01*
X104734298Y-99601302D01*
X104772846Y-99645567D01*
X104812256Y-99703961D01*
X104837446Y-99764586D01*
X104850861Y-99833865D01*
X104854948Y-99918222D01*
X104854669Y-99964307D01*
X104852460Y-100005450D01*
X104846894Y-100037582D01*
X104836586Y-100068122D01*
X104820148Y-100104489D01*
X104806200Y-100131728D01*
X104747665Y-100217429D01*
X104675619Y-100286617D01*
X104591947Y-100337741D01*
X104498531Y-100369250D01*
X104465434Y-100376225D01*
X104424960Y-100383094D01*
X104391999Y-100384919D01*
X104357698Y-100381947D01*
X104313200Y-100374426D01*
X104261934Y-100362002D01*
X104171434Y-100324112D01*
X104092345Y-100269836D01*
X104026528Y-100201770D01*
X103975840Y-100122511D01*
X103942140Y-100034654D01*
X103927286Y-99940795D01*
X103933136Y-99843530D01*
X103959399Y-99747220D01*
X104004418Y-99658494D01*
X104065373Y-99583419D01*
X104140184Y-99523641D01*
X104226768Y-99480809D01*
X104323043Y-99456571D01*
X104426928Y-99452576D01*
X104504562Y-99462850D01*
G37*
X97205767Y-104699068D02*
X97299890Y-104699158D01*
X97374405Y-104699498D01*
X97431811Y-104700239D01*
X97474611Y-104701535D01*
X97505304Y-104703537D01*
X97526391Y-104706396D01*
X97540373Y-104710266D01*
X97549750Y-104715298D01*
X97557022Y-104721645D01*
X97575828Y-104754362D01*
X97577275Y-104791939D01*
X97560917Y-104825178D01*
X97559557Y-104826631D01*
X97548354Y-104834992D01*
X97531252Y-104840547D01*
X97504082Y-104843840D01*
X97462678Y-104845418D01*
X97402873Y-104845822D01*
X97263511Y-104845822D01*
X97263511Y-105109589D01*
X97263436Y-105185417D01*
X97263028Y-105252083D01*
X97262046Y-105301867D01*
X97260250Y-105337784D01*
X97257399Y-105362850D01*
X97253253Y-105380081D01*
X97247571Y-105392492D01*
X97240114Y-105403100D01*
X97237824Y-105405906D01*
X97206646Y-105428548D01*
X97172266Y-105430112D01*
X97139334Y-105410267D01*
X97132355Y-105402191D01*
X97126883Y-105391593D01*
X97122863Y-105375749D01*
X97120072Y-105351773D01*
X97118288Y-105316774D01*
X97117289Y-105267864D01*
X97116852Y-105202154D01*
X97116756Y-105116756D01*
X97116756Y-104845822D01*
X96970820Y-104845822D01*
X96959720Y-104845821D01*
X96903202Y-104845596D01*
X96864358Y-104844457D01*
X96838965Y-104841657D01*
X96822804Y-104836450D01*
X96811652Y-104828089D01*
X96801289Y-104815826D01*
X96785441Y-104785138D01*
X96788543Y-104751358D01*
X96814187Y-104718822D01*
X96819129Y-104715105D01*
X96829338Y-104710269D01*
X96844764Y-104706506D01*
X96867886Y-104703683D01*
X96901183Y-104701670D01*
X96947137Y-104700333D01*
X97008228Y-104699542D01*
X97086935Y-104699163D01*
X97185740Y-104699067D01*
X97205767Y-104699068D01*
G36*
X97205767Y-104699068D02*
G01*
X97299890Y-104699158D01*
X97374405Y-104699498D01*
X97431811Y-104700239D01*
X97474611Y-104701535D01*
X97505304Y-104703537D01*
X97526391Y-104706396D01*
X97540373Y-104710266D01*
X97549750Y-104715298D01*
X97557022Y-104721645D01*
X97575828Y-104754362D01*
X97577275Y-104791939D01*
X97560917Y-104825178D01*
X97559557Y-104826631D01*
X97548354Y-104834992D01*
X97531252Y-104840547D01*
X97504082Y-104843840D01*
X97462678Y-104845418D01*
X97402873Y-104845822D01*
X97263511Y-104845822D01*
X97263511Y-105109589D01*
X97263436Y-105185417D01*
X97263028Y-105252083D01*
X97262046Y-105301867D01*
X97260250Y-105337784D01*
X97257399Y-105362850D01*
X97253253Y-105380081D01*
X97247571Y-105392492D01*
X97240114Y-105403100D01*
X97237824Y-105405906D01*
X97206646Y-105428548D01*
X97172266Y-105430112D01*
X97139334Y-105410267D01*
X97132355Y-105402191D01*
X97126883Y-105391593D01*
X97122863Y-105375749D01*
X97120072Y-105351773D01*
X97118288Y-105316774D01*
X97117289Y-105267864D01*
X97116852Y-105202154D01*
X97116756Y-105116756D01*
X97116756Y-104845822D01*
X96970820Y-104845822D01*
X96959720Y-104845821D01*
X96903202Y-104845596D01*
X96864358Y-104844457D01*
X96838965Y-104841657D01*
X96822804Y-104836450D01*
X96811652Y-104828089D01*
X96801289Y-104815826D01*
X96785441Y-104785138D01*
X96788543Y-104751358D01*
X96814187Y-104718822D01*
X96819129Y-104715105D01*
X96829338Y-104710269D01*
X96844764Y-104706506D01*
X96867886Y-104703683D01*
X96901183Y-104701670D01*
X96947137Y-104700333D01*
X97008228Y-104699542D01*
X97086935Y-104699163D01*
X97185740Y-104699067D01*
X97205767Y-104699068D01*
G37*
X96529734Y-104721645D02*
X96535366Y-104727835D01*
X96540456Y-104736041D01*
X96544543Y-104747817D01*
X96547721Y-104765276D01*
X96550087Y-104790530D01*
X96551738Y-104825690D01*
X96552769Y-104872869D01*
X96553277Y-104934177D01*
X96553359Y-105011727D01*
X96553109Y-105107631D01*
X96552625Y-105224000D01*
X96552557Y-105238175D01*
X96551971Y-105299937D01*
X96550648Y-105343620D01*
X96548103Y-105373001D01*
X96543848Y-105391855D01*
X96537396Y-105403959D01*
X96528262Y-105413089D01*
X96494804Y-105430506D01*
X96459856Y-105427604D01*
X96428953Y-105403100D01*
X96419944Y-105389897D01*
X96412492Y-105371361D01*
X96408124Y-105345333D01*
X96406069Y-105306787D01*
X96405556Y-105250700D01*
X96405556Y-105128045D01*
X95908845Y-105128045D01*
X95908845Y-105262871D01*
X95908772Y-105298662D01*
X95908009Y-105344992D01*
X95905833Y-105375526D01*
X95901536Y-105394557D01*
X95894412Y-105406374D01*
X95883755Y-105415271D01*
X95851504Y-105430341D01*
X95816217Y-105427673D01*
X95785486Y-105403100D01*
X95780831Y-105396845D01*
X95774895Y-105386321D01*
X95770364Y-105372391D01*
X95767048Y-105352317D01*
X95764759Y-105323360D01*
X95763308Y-105282780D01*
X95762505Y-105227840D01*
X95762162Y-105155799D01*
X95762089Y-105063920D01*
X95762089Y-104754485D01*
X95789798Y-104726776D01*
X95821177Y-104704533D01*
X95854406Y-104701844D01*
X95886267Y-104721645D01*
X95894553Y-104731415D01*
X95901965Y-104747307D01*
X95906302Y-104771275D01*
X95908338Y-104808148D01*
X95908845Y-104862756D01*
X95908845Y-104981289D01*
X96405556Y-104981289D01*
X96405556Y-104865776D01*
X96405994Y-104814078D01*
X96407958Y-104779554D01*
X96412474Y-104756978D01*
X96420567Y-104741126D01*
X96433265Y-104726776D01*
X96464643Y-104704533D01*
X96497872Y-104701844D01*
X96529734Y-104721645D01*
G36*
X96529734Y-104721645D02*
G01*
X96535366Y-104727835D01*
X96540456Y-104736041D01*
X96544543Y-104747817D01*
X96547721Y-104765276D01*
X96550087Y-104790530D01*
X96551738Y-104825690D01*
X96552769Y-104872869D01*
X96553277Y-104934177D01*
X96553359Y-105011727D01*
X96553109Y-105107631D01*
X96552625Y-105224000D01*
X96552557Y-105238175D01*
X96551971Y-105299937D01*
X96550648Y-105343620D01*
X96548103Y-105373001D01*
X96543848Y-105391855D01*
X96537396Y-105403959D01*
X96528262Y-105413089D01*
X96494804Y-105430506D01*
X96459856Y-105427604D01*
X96428953Y-105403100D01*
X96419944Y-105389897D01*
X96412492Y-105371361D01*
X96408124Y-105345333D01*
X96406069Y-105306787D01*
X96405556Y-105250700D01*
X96405556Y-105128045D01*
X95908845Y-105128045D01*
X95908845Y-105262871D01*
X95908772Y-105298662D01*
X95908009Y-105344992D01*
X95905833Y-105375526D01*
X95901536Y-105394557D01*
X95894412Y-105406374D01*
X95883755Y-105415271D01*
X95851504Y-105430341D01*
X95816217Y-105427673D01*
X95785486Y-105403100D01*
X95780831Y-105396845D01*
X95774895Y-105386321D01*
X95770364Y-105372391D01*
X95767048Y-105352317D01*
X95764759Y-105323360D01*
X95763308Y-105282780D01*
X95762505Y-105227840D01*
X95762162Y-105155799D01*
X95762089Y-105063920D01*
X95762089Y-104754485D01*
X95789798Y-104726776D01*
X95821177Y-104704533D01*
X95854406Y-104701844D01*
X95886267Y-104721645D01*
X95894553Y-104731415D01*
X95901965Y-104747307D01*
X95906302Y-104771275D01*
X95908338Y-104808148D01*
X95908845Y-104862756D01*
X95908845Y-104981289D01*
X96405556Y-104981289D01*
X96405556Y-104865776D01*
X96405994Y-104814078D01*
X96407958Y-104779554D01*
X96412474Y-104756978D01*
X96420567Y-104741126D01*
X96433265Y-104726776D01*
X96464643Y-104704533D01*
X96497872Y-104701844D01*
X96529734Y-104721645D01*
G37*
X101235133Y-105310396D02*
X101233163Y-105343175D01*
X101230235Y-105366095D01*
X101226158Y-105381897D01*
X101220743Y-105393319D01*
X101213803Y-105403100D01*
X101190406Y-105432845D01*
X101024714Y-105432251D01*
X100989918Y-105431953D01*
X100891435Y-105428522D01*
X100810473Y-105420839D01*
X100743379Y-105408282D01*
X100686496Y-105390227D01*
X100636169Y-105366052D01*
X100632810Y-105364135D01*
X100574998Y-105327417D01*
X100532644Y-105290451D01*
X100499828Y-105246966D01*
X100470628Y-105190689D01*
X100466346Y-105181073D01*
X100443769Y-105117887D01*
X100438034Y-105072333D01*
X100587279Y-105072333D01*
X100592892Y-105097061D01*
X100598618Y-105112939D01*
X100631548Y-105172847D01*
X100678886Y-105218600D01*
X100742652Y-105251736D01*
X100824861Y-105273790D01*
X100827655Y-105274292D01*
X100873940Y-105280255D01*
X100930336Y-105284483D01*
X100985274Y-105286089D01*
X101079156Y-105286089D01*
X101079156Y-104845822D01*
X100991667Y-104846270D01*
X100924747Y-104848746D01*
X100832349Y-104859998D01*
X100753034Y-104879537D01*
X100691060Y-104906511D01*
X100660120Y-104927240D01*
X100632000Y-104957006D01*
X100608660Y-104999434D01*
X100601533Y-105015400D01*
X100589709Y-105047902D01*
X100587279Y-105072333D01*
X100438034Y-105072333D01*
X100436797Y-105062509D01*
X100445399Y-105007483D01*
X100469541Y-104945351D01*
X100470337Y-104943658D01*
X100510788Y-104874236D01*
X100561473Y-104817638D01*
X100624198Y-104773070D01*
X100700774Y-104739741D01*
X100793009Y-104716861D01*
X100902712Y-104703636D01*
X101031691Y-104699275D01*
X101035263Y-104699270D01*
X101095283Y-104699410D01*
X101137214Y-104700446D01*
X101165328Y-104703040D01*
X101183897Y-104707853D01*
X101197194Y-104715544D01*
X101209491Y-104726776D01*
X101237200Y-104754485D01*
X101237200Y-105063920D01*
X101237175Y-105125526D01*
X101236950Y-105204311D01*
X101236332Y-105265021D01*
X101235775Y-105286089D01*
X101235133Y-105310396D01*
G36*
X101235133Y-105310396D02*
G01*
X101233163Y-105343175D01*
X101230235Y-105366095D01*
X101226158Y-105381897D01*
X101220743Y-105393319D01*
X101213803Y-105403100D01*
X101190406Y-105432845D01*
X101024714Y-105432251D01*
X100989918Y-105431953D01*
X100891435Y-105428522D01*
X100810473Y-105420839D01*
X100743379Y-105408282D01*
X100686496Y-105390227D01*
X100636169Y-105366052D01*
X100632810Y-105364135D01*
X100574998Y-105327417D01*
X100532644Y-105290451D01*
X100499828Y-105246966D01*
X100470628Y-105190689D01*
X100466346Y-105181073D01*
X100443769Y-105117887D01*
X100438034Y-105072333D01*
X100587279Y-105072333D01*
X100592892Y-105097061D01*
X100598618Y-105112939D01*
X100631548Y-105172847D01*
X100678886Y-105218600D01*
X100742652Y-105251736D01*
X100824861Y-105273790D01*
X100827655Y-105274292D01*
X100873940Y-105280255D01*
X100930336Y-105284483D01*
X100985274Y-105286089D01*
X101079156Y-105286089D01*
X101079156Y-104845822D01*
X100991667Y-104846270D01*
X100924747Y-104848746D01*
X100832349Y-104859998D01*
X100753034Y-104879537D01*
X100691060Y-104906511D01*
X100660120Y-104927240D01*
X100632000Y-104957006D01*
X100608660Y-104999434D01*
X100601533Y-105015400D01*
X100589709Y-105047902D01*
X100587279Y-105072333D01*
X100438034Y-105072333D01*
X100436797Y-105062509D01*
X100445399Y-105007483D01*
X100469541Y-104945351D01*
X100470337Y-104943658D01*
X100510788Y-104874236D01*
X100561473Y-104817638D01*
X100624198Y-104773070D01*
X100700774Y-104739741D01*
X100793009Y-104716861D01*
X100902712Y-104703636D01*
X101031691Y-104699275D01*
X101035263Y-104699270D01*
X101095283Y-104699410D01*
X101137214Y-104700446D01*
X101165328Y-104703040D01*
X101183897Y-104707853D01*
X101197194Y-104715544D01*
X101209491Y-104726776D01*
X101237200Y-104754485D01*
X101237200Y-105063920D01*
X101237175Y-105125526D01*
X101236950Y-105204311D01*
X101236332Y-105265021D01*
X101235775Y-105286089D01*
X101235133Y-105310396D01*
G37*
X108326817Y-104884427D02*
X108326870Y-104965041D01*
X108326622Y-105065956D01*
X108326583Y-105141617D01*
X108326328Y-105219526D01*
X108325684Y-105279536D01*
X108324480Y-105324264D01*
X108322543Y-105356326D01*
X108319703Y-105378340D01*
X108315788Y-105392924D01*
X108310626Y-105402694D01*
X108304045Y-105410267D01*
X108297077Y-105416501D01*
X108284079Y-105423801D01*
X108264931Y-105428554D01*
X108235528Y-105431292D01*
X108191762Y-105432545D01*
X108129528Y-105432845D01*
X108080582Y-105432469D01*
X107973722Y-105428041D01*
X107884494Y-105417953D01*
X107809696Y-105401365D01*
X107746125Y-105377435D01*
X107690579Y-105345321D01*
X107639854Y-105304182D01*
X107633866Y-105298330D01*
X107596999Y-105249821D01*
X107565899Y-105189013D01*
X107544417Y-105124769D01*
X107539136Y-105086026D01*
X107686353Y-105086026D01*
X107704635Y-105136961D01*
X107734305Y-105182878D01*
X107781002Y-105225287D01*
X107842392Y-105255090D01*
X107921538Y-105274226D01*
X107923028Y-105274464D01*
X107971999Y-105280256D01*
X108030693Y-105284396D01*
X108086734Y-105286004D01*
X108179867Y-105286089D01*
X108179867Y-104845822D01*
X108103667Y-104845808D01*
X108100639Y-104845817D01*
X108049519Y-104847782D01*
X107989416Y-104852507D01*
X107932708Y-104859035D01*
X107882750Y-104868331D01*
X107807998Y-104894600D01*
X107750489Y-104933899D01*
X107708988Y-104986933D01*
X107687771Y-105038200D01*
X107686353Y-105086026D01*
X107539136Y-105086026D01*
X107536400Y-105065956D01*
X107537679Y-105044739D01*
X107549991Y-104987323D01*
X107572520Y-104927413D01*
X107601750Y-104873363D01*
X107634167Y-104833532D01*
X107653708Y-104816510D01*
X107708420Y-104777322D01*
X107768723Y-104747193D01*
X107837919Y-104725232D01*
X107919311Y-104710550D01*
X108016200Y-104702259D01*
X108131889Y-104699467D01*
X108171371Y-104699066D01*
X108217082Y-104698653D01*
X108252883Y-104700457D01*
X108279974Y-104706739D01*
X108299556Y-104719759D01*
X108312830Y-104741778D01*
X108320998Y-104775055D01*
X108325260Y-104821851D01*
X108325857Y-104845822D01*
X108326817Y-104884427D01*
G36*
X108326817Y-104884427D02*
G01*
X108326870Y-104965041D01*
X108326622Y-105065956D01*
X108326583Y-105141617D01*
X108326328Y-105219526D01*
X108325684Y-105279536D01*
X108324480Y-105324264D01*
X108322543Y-105356326D01*
X108319703Y-105378340D01*
X108315788Y-105392924D01*
X108310626Y-105402694D01*
X108304045Y-105410267D01*
X108297077Y-105416501D01*
X108284079Y-105423801D01*
X108264931Y-105428554D01*
X108235528Y-105431292D01*
X108191762Y-105432545D01*
X108129528Y-105432845D01*
X108080582Y-105432469D01*
X107973722Y-105428041D01*
X107884494Y-105417953D01*
X107809696Y-105401365D01*
X107746125Y-105377435D01*
X107690579Y-105345321D01*
X107639854Y-105304182D01*
X107633866Y-105298330D01*
X107596999Y-105249821D01*
X107565899Y-105189013D01*
X107544417Y-105124769D01*
X107539136Y-105086026D01*
X107686353Y-105086026D01*
X107704635Y-105136961D01*
X107734305Y-105182878D01*
X107781002Y-105225287D01*
X107842392Y-105255090D01*
X107921538Y-105274226D01*
X107923028Y-105274464D01*
X107971999Y-105280256D01*
X108030693Y-105284396D01*
X108086734Y-105286004D01*
X108179867Y-105286089D01*
X108179867Y-104845822D01*
X108103667Y-104845808D01*
X108100639Y-104845817D01*
X108049519Y-104847782D01*
X107989416Y-104852507D01*
X107932708Y-104859035D01*
X107882750Y-104868331D01*
X107807998Y-104894600D01*
X107750489Y-104933899D01*
X107708988Y-104986933D01*
X107687771Y-105038200D01*
X107686353Y-105086026D01*
X107539136Y-105086026D01*
X107536400Y-105065956D01*
X107537679Y-105044739D01*
X107549991Y-104987323D01*
X107572520Y-104927413D01*
X107601750Y-104873363D01*
X107634167Y-104833532D01*
X107653708Y-104816510D01*
X107708420Y-104777322D01*
X107768723Y-104747193D01*
X107837919Y-104725232D01*
X107919311Y-104710550D01*
X108016200Y-104702259D01*
X108131889Y-104699467D01*
X108171371Y-104699066D01*
X108217082Y-104698653D01*
X108252883Y-104700457D01*
X108279974Y-104706739D01*
X108299556Y-104719759D01*
X108312830Y-104741778D01*
X108320998Y-104775055D01*
X108325260Y-104821851D01*
X108325857Y-104845822D01*
X108326817Y-104884427D01*
G37*
X103381893Y-104697892D02*
X103393301Y-104704029D01*
X103403850Y-104714691D01*
X103415136Y-104728811D01*
X103419589Y-104734772D01*
X103425588Y-104745268D01*
X103430167Y-104759093D01*
X103433519Y-104778998D01*
X103435833Y-104807732D01*
X103437301Y-104848045D01*
X103438113Y-104902687D01*
X103438460Y-104974407D01*
X103438534Y-105065956D01*
X103438511Y-105124486D01*
X103438292Y-105203573D01*
X103437683Y-105264516D01*
X103436492Y-105310062D01*
X103434529Y-105342963D01*
X103431603Y-105365968D01*
X103427523Y-105381826D01*
X103422097Y-105393286D01*
X103415136Y-105403100D01*
X103384708Y-105427493D01*
X103349765Y-105430372D01*
X103312784Y-105411282D01*
X103308600Y-105407807D01*
X103300424Y-105399279D01*
X103294364Y-105387728D01*
X103289981Y-105369896D01*
X103286839Y-105342524D01*
X103284502Y-105302354D01*
X103282531Y-105246128D01*
X103280489Y-105170589D01*
X103274845Y-104951458D01*
X103009556Y-105192099D01*
X102935722Y-105258875D01*
X102870542Y-105316991D01*
X102818348Y-105361949D01*
X102777273Y-105394871D01*
X102745455Y-105416879D01*
X102721026Y-105429094D01*
X102702124Y-105432639D01*
X102686883Y-105428636D01*
X102673439Y-105418207D01*
X102659927Y-105402474D01*
X102653682Y-105393991D01*
X102648050Y-105383413D01*
X102643839Y-105369255D01*
X102640887Y-105348803D01*
X102639032Y-105319342D01*
X102638113Y-105278161D01*
X102637968Y-105222544D01*
X102638435Y-105149779D01*
X102639352Y-105057151D01*
X102642667Y-104742199D01*
X102669318Y-104720633D01*
X102695383Y-104704441D01*
X102728241Y-104701670D01*
X102762772Y-104720623D01*
X102767084Y-104724208D01*
X102775216Y-104732737D01*
X102781245Y-104744329D01*
X102785606Y-104762235D01*
X102788734Y-104789706D01*
X102791063Y-104829994D01*
X102793029Y-104886351D01*
X102795067Y-104962029D01*
X102800711Y-105181878D01*
X102981334Y-105018084D01*
X103068072Y-104939451D01*
X103143843Y-104871058D01*
X103205980Y-104815708D01*
X103256078Y-104772338D01*
X103295735Y-104739881D01*
X103326548Y-104717273D01*
X103350114Y-104703448D01*
X103368030Y-104697343D01*
X103381893Y-104697892D01*
G36*
X103381893Y-104697892D02*
G01*
X103393301Y-104704029D01*
X103403850Y-104714691D01*
X103415136Y-104728811D01*
X103419589Y-104734772D01*
X103425588Y-104745268D01*
X103430167Y-104759093D01*
X103433519Y-104778998D01*
X103435833Y-104807732D01*
X103437301Y-104848045D01*
X103438113Y-104902687D01*
X103438460Y-104974407D01*
X103438534Y-105065956D01*
X103438511Y-105124486D01*
X103438292Y-105203573D01*
X103437683Y-105264516D01*
X103436492Y-105310062D01*
X103434529Y-105342963D01*
X103431603Y-105365968D01*
X103427523Y-105381826D01*
X103422097Y-105393286D01*
X103415136Y-105403100D01*
X103384708Y-105427493D01*
X103349765Y-105430372D01*
X103312784Y-105411282D01*
X103308600Y-105407807D01*
X103300424Y-105399279D01*
X103294364Y-105387728D01*
X103289981Y-105369896D01*
X103286839Y-105342524D01*
X103284502Y-105302354D01*
X103282531Y-105246128D01*
X103280489Y-105170589D01*
X103274845Y-104951458D01*
X103009556Y-105192099D01*
X102935722Y-105258875D01*
X102870542Y-105316991D01*
X102818348Y-105361949D01*
X102777273Y-105394871D01*
X102745455Y-105416879D01*
X102721026Y-105429094D01*
X102702124Y-105432639D01*
X102686883Y-105428636D01*
X102673439Y-105418207D01*
X102659927Y-105402474D01*
X102653682Y-105393991D01*
X102648050Y-105383413D01*
X102643839Y-105369255D01*
X102640887Y-105348803D01*
X102639032Y-105319342D01*
X102638113Y-105278161D01*
X102637968Y-105222544D01*
X102638435Y-105149779D01*
X102639352Y-105057151D01*
X102642667Y-104742199D01*
X102669318Y-104720633D01*
X102695383Y-104704441D01*
X102728241Y-104701670D01*
X102762772Y-104720623D01*
X102767084Y-104724208D01*
X102775216Y-104732737D01*
X102781245Y-104744329D01*
X102785606Y-104762235D01*
X102788734Y-104789706D01*
X102791063Y-104829994D01*
X102793029Y-104886351D01*
X102795067Y-104962029D01*
X102800711Y-105181878D01*
X102981334Y-105018084D01*
X103068072Y-104939451D01*
X103143843Y-104871058D01*
X103205980Y-104815708D01*
X103256078Y-104772338D01*
X103295735Y-104739881D01*
X103326548Y-104717273D01*
X103350114Y-104703448D01*
X103368030Y-104697343D01*
X103381893Y-104697892D01*
G37*
X104179150Y-104704179D02*
X104285157Y-104720494D01*
X104378969Y-104748545D01*
X104457765Y-104787452D01*
X104518719Y-104836334D01*
X104544789Y-104869195D01*
X104574297Y-104918394D01*
X104599568Y-104972252D01*
X104617218Y-105023419D01*
X104623858Y-105064544D01*
X104622298Y-105084259D01*
X104609357Y-105135592D01*
X104586194Y-105192118D01*
X104556302Y-105246035D01*
X104523173Y-105289539D01*
X104512977Y-105299887D01*
X104445892Y-105351662D01*
X104365766Y-105391554D01*
X104279556Y-105415956D01*
X104224592Y-105424068D01*
X104131139Y-105430673D01*
X104041358Y-105428586D01*
X103958869Y-105418340D01*
X103887286Y-105400470D01*
X103830228Y-105375508D01*
X103791311Y-105343988D01*
X103789936Y-105342012D01*
X103782848Y-105316786D01*
X103778609Y-105269535D01*
X103777200Y-105200071D01*
X103778060Y-105137838D01*
X103782780Y-105090456D01*
X103794470Y-105058353D01*
X103816239Y-105038800D01*
X103851198Y-105029070D01*
X103902456Y-105026433D01*
X103973123Y-105028161D01*
X104021743Y-105031173D01*
X104071939Y-105039366D01*
X104104433Y-105053419D01*
X104121892Y-105074654D01*
X104126983Y-105104394D01*
X104126877Y-105108936D01*
X104118175Y-105143730D01*
X104094165Y-105167147D01*
X104052900Y-105180347D01*
X103992431Y-105184489D01*
X103923956Y-105184489D01*
X103923956Y-105222841D01*
X103924006Y-105231976D01*
X103926227Y-105249227D01*
X103935494Y-105259521D01*
X103956875Y-105266459D01*
X103995436Y-105273641D01*
X104000910Y-105274575D01*
X104097860Y-105284478D01*
X104187852Y-105281559D01*
X104268760Y-105266829D01*
X104338459Y-105241299D01*
X104394824Y-105205978D01*
X104435729Y-105161879D01*
X104459051Y-105110012D01*
X104462663Y-105051388D01*
X104457145Y-105022494D01*
X104430461Y-104966604D01*
X104384273Y-104920945D01*
X104319291Y-104886108D01*
X104236229Y-104862690D01*
X104211555Y-104858241D01*
X104122226Y-104847742D01*
X104042419Y-104848971D01*
X103964326Y-104861906D01*
X103929183Y-104868696D01*
X103883745Y-104869713D01*
X103852430Y-104857182D01*
X103832277Y-104830395D01*
X103825893Y-104802148D01*
X103835379Y-104770924D01*
X103844708Y-104757499D01*
X103878943Y-104733967D01*
X103931565Y-104716095D01*
X104000081Y-104704599D01*
X104082000Y-104700192D01*
X104179150Y-104704179D01*
G36*
X104179150Y-104704179D02*
G01*
X104285157Y-104720494D01*
X104378969Y-104748545D01*
X104457765Y-104787452D01*
X104518719Y-104836334D01*
X104544789Y-104869195D01*
X104574297Y-104918394D01*
X104599568Y-104972252D01*
X104617218Y-105023419D01*
X104623858Y-105064544D01*
X104622298Y-105084259D01*
X104609357Y-105135592D01*
X104586194Y-105192118D01*
X104556302Y-105246035D01*
X104523173Y-105289539D01*
X104512977Y-105299887D01*
X104445892Y-105351662D01*
X104365766Y-105391554D01*
X104279556Y-105415956D01*
X104224592Y-105424068D01*
X104131139Y-105430673D01*
X104041358Y-105428586D01*
X103958869Y-105418340D01*
X103887286Y-105400470D01*
X103830228Y-105375508D01*
X103791311Y-105343988D01*
X103789936Y-105342012D01*
X103782848Y-105316786D01*
X103778609Y-105269535D01*
X103777200Y-105200071D01*
X103778060Y-105137838D01*
X103782780Y-105090456D01*
X103794470Y-105058353D01*
X103816239Y-105038800D01*
X103851198Y-105029070D01*
X103902456Y-105026433D01*
X103973123Y-105028161D01*
X104021743Y-105031173D01*
X104071939Y-105039366D01*
X104104433Y-105053419D01*
X104121892Y-105074654D01*
X104126983Y-105104394D01*
X104126877Y-105108936D01*
X104118175Y-105143730D01*
X104094165Y-105167147D01*
X104052900Y-105180347D01*
X103992431Y-105184489D01*
X103923956Y-105184489D01*
X103923956Y-105222841D01*
X103924006Y-105231976D01*
X103926227Y-105249227D01*
X103935494Y-105259521D01*
X103956875Y-105266459D01*
X103995436Y-105273641D01*
X104000910Y-105274575D01*
X104097860Y-105284478D01*
X104187852Y-105281559D01*
X104268760Y-105266829D01*
X104338459Y-105241299D01*
X104394824Y-105205978D01*
X104435729Y-105161879D01*
X104459051Y-105110012D01*
X104462663Y-105051388D01*
X104457145Y-105022494D01*
X104430461Y-104966604D01*
X104384273Y-104920945D01*
X104319291Y-104886108D01*
X104236229Y-104862690D01*
X104211555Y-104858241D01*
X104122226Y-104847742D01*
X104042419Y-104848971D01*
X103964326Y-104861906D01*
X103929183Y-104868696D01*
X103883745Y-104869713D01*
X103852430Y-104857182D01*
X103832277Y-104830395D01*
X103825893Y-104802148D01*
X103835379Y-104770924D01*
X103844708Y-104757499D01*
X103878943Y-104733967D01*
X103931565Y-104716095D01*
X104000081Y-104704599D01*
X104082000Y-104700192D01*
X104179150Y-104704179D01*
G37*
X102229803Y-104728811D02*
X102234752Y-104735495D01*
X102240596Y-104746066D01*
X102245057Y-104760153D01*
X102248321Y-104780478D01*
X102250574Y-104809765D01*
X102252002Y-104850737D01*
X102252792Y-104906117D01*
X102253129Y-104978628D01*
X102253200Y-105070994D01*
X102253171Y-105136911D01*
X102252939Y-105215228D01*
X102252319Y-105275496D01*
X102251126Y-105320393D01*
X102249179Y-105352602D01*
X102246294Y-105374800D01*
X102242288Y-105389669D01*
X102236979Y-105399889D01*
X102230183Y-105408138D01*
X102225668Y-105412795D01*
X102217438Y-105419282D01*
X102206078Y-105424194D01*
X102188810Y-105427749D01*
X102162855Y-105430167D01*
X102125436Y-105431667D01*
X102073773Y-105432467D01*
X102005089Y-105432787D01*
X101916606Y-105432845D01*
X101896931Y-105432838D01*
X101809906Y-105432572D01*
X101742254Y-105431806D01*
X101691299Y-105430392D01*
X101654367Y-105428180D01*
X101628783Y-105425022D01*
X101611871Y-105420769D01*
X101600957Y-105415271D01*
X101590464Y-105405285D01*
X101577203Y-105374168D01*
X101578386Y-105338280D01*
X101594550Y-105306733D01*
X101596739Y-105304457D01*
X101605427Y-105298189D01*
X101618769Y-105293523D01*
X101639752Y-105290227D01*
X101671363Y-105288068D01*
X101716590Y-105286814D01*
X101778420Y-105286231D01*
X101859839Y-105286089D01*
X102106445Y-105286089D01*
X102106445Y-105128045D01*
X101944006Y-105128045D01*
X101908338Y-105127964D01*
X101852568Y-105127167D01*
X101813430Y-105125162D01*
X101786976Y-105121521D01*
X101769259Y-105115812D01*
X101756329Y-105107607D01*
X101752686Y-105104423D01*
X101734278Y-105073448D01*
X101733644Y-105037112D01*
X101751183Y-105003493D01*
X101751245Y-105003424D01*
X101760916Y-104994798D01*
X101774209Y-104988742D01*
X101794917Y-104984811D01*
X101826828Y-104982556D01*
X101873734Y-104981531D01*
X101939424Y-104981289D01*
X102107571Y-104981289D01*
X102104186Y-104916378D01*
X102100800Y-104851467D01*
X101858723Y-104848414D01*
X101833707Y-104848086D01*
X101752087Y-104846606D01*
X101689768Y-104844222D01*
X101644154Y-104840227D01*
X101612652Y-104833913D01*
X101592667Y-104824574D01*
X101581604Y-104811503D01*
X101576869Y-104793992D01*
X101575867Y-104771335D01*
X101575873Y-104768970D01*
X101577027Y-104748939D01*
X101581824Y-104733146D01*
X101592632Y-104721090D01*
X101611817Y-104712267D01*
X101641745Y-104706175D01*
X101684783Y-104702311D01*
X101743299Y-104700174D01*
X101819657Y-104699260D01*
X101916226Y-104699067D01*
X102206406Y-104699067D01*
X102229803Y-104728811D01*
G36*
X102229803Y-104728811D02*
G01*
X102234752Y-104735495D01*
X102240596Y-104746066D01*
X102245057Y-104760153D01*
X102248321Y-104780478D01*
X102250574Y-104809765D01*
X102252002Y-104850737D01*
X102252792Y-104906117D01*
X102253129Y-104978628D01*
X102253200Y-105070994D01*
X102253171Y-105136911D01*
X102252939Y-105215228D01*
X102252319Y-105275496D01*
X102251126Y-105320393D01*
X102249179Y-105352602D01*
X102246294Y-105374800D01*
X102242288Y-105389669D01*
X102236979Y-105399889D01*
X102230183Y-105408138D01*
X102225668Y-105412795D01*
X102217438Y-105419282D01*
X102206078Y-105424194D01*
X102188810Y-105427749D01*
X102162855Y-105430167D01*
X102125436Y-105431667D01*
X102073773Y-105432467D01*
X102005089Y-105432787D01*
X101916606Y-105432845D01*
X101896931Y-105432838D01*
X101809906Y-105432572D01*
X101742254Y-105431806D01*
X101691299Y-105430392D01*
X101654367Y-105428180D01*
X101628783Y-105425022D01*
X101611871Y-105420769D01*
X101600957Y-105415271D01*
X101590464Y-105405285D01*
X101577203Y-105374168D01*
X101578386Y-105338280D01*
X101594550Y-105306733D01*
X101596739Y-105304457D01*
X101605427Y-105298189D01*
X101618769Y-105293523D01*
X101639752Y-105290227D01*
X101671363Y-105288068D01*
X101716590Y-105286814D01*
X101778420Y-105286231D01*
X101859839Y-105286089D01*
X102106445Y-105286089D01*
X102106445Y-105128045D01*
X101944006Y-105128045D01*
X101908338Y-105127964D01*
X101852568Y-105127167D01*
X101813430Y-105125162D01*
X101786976Y-105121521D01*
X101769259Y-105115812D01*
X101756329Y-105107607D01*
X101752686Y-105104423D01*
X101734278Y-105073448D01*
X101733644Y-105037112D01*
X101751183Y-105003493D01*
X101751245Y-105003424D01*
X101760916Y-104994798D01*
X101774209Y-104988742D01*
X101794917Y-104984811D01*
X101826828Y-104982556D01*
X101873734Y-104981531D01*
X101939424Y-104981289D01*
X102107571Y-104981289D01*
X102104186Y-104916378D01*
X102100800Y-104851467D01*
X101858723Y-104848414D01*
X101833707Y-104848086D01*
X101752087Y-104846606D01*
X101689768Y-104844222D01*
X101644154Y-104840227D01*
X101612652Y-104833913D01*
X101592667Y-104824574D01*
X101581604Y-104811503D01*
X101576869Y-104793992D01*
X101575867Y-104771335D01*
X101575873Y-104768970D01*
X101577027Y-104748939D01*
X101581824Y-104733146D01*
X101592632Y-104721090D01*
X101611817Y-104712267D01*
X101641745Y-104706175D01*
X101684783Y-104702311D01*
X101743299Y-104700174D01*
X101819657Y-104699260D01*
X101916226Y-104699067D01*
X102206406Y-104699067D01*
X102229803Y-104728811D01*
G37*
X106906734Y-104699083D02*
X106983831Y-104699275D01*
X107042777Y-104699860D01*
X107086364Y-104701051D01*
X107117383Y-104703064D01*
X107138625Y-104706112D01*
X107152882Y-104710409D01*
X107162945Y-104716172D01*
X107171606Y-104723612D01*
X107173391Y-104725293D01*
X107180635Y-104732832D01*
X107186277Y-104741850D01*
X107190517Y-104754984D01*
X107193556Y-104774872D01*
X107195594Y-104804151D01*
X107196830Y-104845458D01*
X107197465Y-104901431D01*
X107197700Y-104974707D01*
X107197734Y-105067923D01*
X107197697Y-105140713D01*
X107197448Y-105218889D01*
X107196812Y-105279103D01*
X107195615Y-105323982D01*
X107193684Y-105356152D01*
X107190846Y-105378239D01*
X107186927Y-105392870D01*
X107181755Y-105402670D01*
X107175156Y-105410267D01*
X107171822Y-105413444D01*
X107163300Y-105419554D01*
X107151298Y-105424229D01*
X107133087Y-105427659D01*
X107105940Y-105430036D01*
X107067129Y-105431552D01*
X107013924Y-105432398D01*
X106943598Y-105432765D01*
X106853422Y-105432845D01*
X106811314Y-105432833D01*
X106730167Y-105432651D01*
X106667675Y-105432098D01*
X106621109Y-105430982D01*
X106587741Y-105429113D01*
X106564844Y-105426298D01*
X106549688Y-105422346D01*
X106539546Y-105417066D01*
X106531689Y-105410267D01*
X106516963Y-105388667D01*
X106509111Y-105359467D01*
X106514610Y-105335560D01*
X106531689Y-105308667D01*
X106536668Y-105304059D01*
X106546443Y-105297772D01*
X106560559Y-105293146D01*
X106582054Y-105289930D01*
X106613968Y-105287870D01*
X106659342Y-105286712D01*
X106721213Y-105286202D01*
X106802622Y-105286089D01*
X107050978Y-105286089D01*
X107050978Y-105128045D01*
X106889801Y-105128045D01*
X106853983Y-105127899D01*
X106788359Y-105126176D01*
X106741118Y-105121741D01*
X106709383Y-105113637D01*
X106690277Y-105100906D01*
X106680923Y-105082592D01*
X106678445Y-105057738D01*
X106679242Y-105037482D01*
X106684494Y-105015656D01*
X106697288Y-105000304D01*
X106720628Y-104990309D01*
X106757517Y-104984553D01*
X106810959Y-104981919D01*
X106883958Y-104981289D01*
X107052105Y-104981289D01*
X107048719Y-104916378D01*
X107045334Y-104851467D01*
X106797617Y-104848418D01*
X106735026Y-104847539D01*
X106666565Y-104846095D01*
X106615661Y-104844164D01*
X106579408Y-104841514D01*
X106554901Y-104837910D01*
X106539235Y-104833121D01*
X106529506Y-104826913D01*
X106523491Y-104820510D01*
X106510482Y-104788828D01*
X106514043Y-104753142D01*
X106533818Y-104722084D01*
X106537069Y-104719161D01*
X106546049Y-104712810D01*
X106558153Y-104707957D01*
X106576159Y-104704403D01*
X106602847Y-104701946D01*
X106640997Y-104700385D01*
X106693386Y-104699518D01*
X106762794Y-104699146D01*
X106852001Y-104699067D01*
X106906734Y-104699083D01*
G36*
X106906734Y-104699083D02*
G01*
X106983831Y-104699275D01*
X107042777Y-104699860D01*
X107086364Y-104701051D01*
X107117383Y-104703064D01*
X107138625Y-104706112D01*
X107152882Y-104710409D01*
X107162945Y-104716172D01*
X107171606Y-104723612D01*
X107173391Y-104725293D01*
X107180635Y-104732832D01*
X107186277Y-104741850D01*
X107190517Y-104754984D01*
X107193556Y-104774872D01*
X107195594Y-104804151D01*
X107196830Y-104845458D01*
X107197465Y-104901431D01*
X107197700Y-104974707D01*
X107197734Y-105067923D01*
X107197697Y-105140713D01*
X107197448Y-105218889D01*
X107196812Y-105279103D01*
X107195615Y-105323982D01*
X107193684Y-105356152D01*
X107190846Y-105378239D01*
X107186927Y-105392870D01*
X107181755Y-105402670D01*
X107175156Y-105410267D01*
X107171822Y-105413444D01*
X107163300Y-105419554D01*
X107151298Y-105424229D01*
X107133087Y-105427659D01*
X107105940Y-105430036D01*
X107067129Y-105431552D01*
X107013924Y-105432398D01*
X106943598Y-105432765D01*
X106853422Y-105432845D01*
X106811314Y-105432833D01*
X106730167Y-105432651D01*
X106667675Y-105432098D01*
X106621109Y-105430982D01*
X106587741Y-105429113D01*
X106564844Y-105426298D01*
X106549688Y-105422346D01*
X106539546Y-105417066D01*
X106531689Y-105410267D01*
X106516963Y-105388667D01*
X106509111Y-105359467D01*
X106514610Y-105335560D01*
X106531689Y-105308667D01*
X106536668Y-105304059D01*
X106546443Y-105297772D01*
X106560559Y-105293146D01*
X106582054Y-105289930D01*
X106613968Y-105287870D01*
X106659342Y-105286712D01*
X106721213Y-105286202D01*
X106802622Y-105286089D01*
X107050978Y-105286089D01*
X107050978Y-105128045D01*
X106889801Y-105128045D01*
X106853983Y-105127899D01*
X106788359Y-105126176D01*
X106741118Y-105121741D01*
X106709383Y-105113637D01*
X106690277Y-105100906D01*
X106680923Y-105082592D01*
X106678445Y-105057738D01*
X106679242Y-105037482D01*
X106684494Y-105015656D01*
X106697288Y-105000304D01*
X106720628Y-104990309D01*
X106757517Y-104984553D01*
X106810959Y-104981919D01*
X106883958Y-104981289D01*
X107052105Y-104981289D01*
X107048719Y-104916378D01*
X107045334Y-104851467D01*
X106797617Y-104848418D01*
X106735026Y-104847539D01*
X106666565Y-104846095D01*
X106615661Y-104844164D01*
X106579408Y-104841514D01*
X106554901Y-104837910D01*
X106539235Y-104833121D01*
X106529506Y-104826913D01*
X106523491Y-104820510D01*
X106510482Y-104788828D01*
X106514043Y-104753142D01*
X106533818Y-104722084D01*
X106537069Y-104719161D01*
X106546049Y-104712810D01*
X106558153Y-104707957D01*
X106576159Y-104704403D01*
X106602847Y-104701946D01*
X106640997Y-104700385D01*
X106693386Y-104699518D01*
X106762794Y-104699146D01*
X106852001Y-104699067D01*
X106906734Y-104699083D01*
G37*
X98339702Y-104708478D02*
X98357663Y-104726989D01*
X98378263Y-104758071D01*
X98403095Y-104803756D01*
X98433750Y-104866078D01*
X98471820Y-104947071D01*
X98486454Y-104978454D01*
X98516203Y-105041638D01*
X98542297Y-105096244D01*
X98563292Y-105139290D01*
X98577739Y-105167793D01*
X98584191Y-105178770D01*
X98585550Y-105178189D01*
X98595542Y-105164242D01*
X98612833Y-105134704D01*
X98635430Y-105093087D01*
X98661338Y-105042903D01*
X98677311Y-105011414D01*
X98706261Y-104956061D01*
X98728749Y-104917044D01*
X98746965Y-104891566D01*
X98763096Y-104876831D01*
X98779330Y-104870042D01*
X98797857Y-104868400D01*
X98808360Y-104868875D01*
X98824476Y-104873082D01*
X98839790Y-104883946D01*
X98856388Y-104904219D01*
X98876357Y-104936654D01*
X98901783Y-104984004D01*
X98934752Y-105049022D01*
X98944485Y-105068277D01*
X98968943Y-105114946D01*
X98989178Y-105151109D01*
X99003311Y-105173497D01*
X99009460Y-105178845D01*
X99010827Y-105175573D01*
X99020202Y-105154664D01*
X99037062Y-105117725D01*
X99059979Y-105067874D01*
X99087520Y-105008226D01*
X99118255Y-104941898D01*
X99144970Y-104884677D01*
X99174593Y-104822688D01*
X99197664Y-104776949D01*
X99215643Y-104744908D01*
X99229990Y-104724014D01*
X99242166Y-104711718D01*
X99253632Y-104705466D01*
X99263042Y-104702574D01*
X99288147Y-104702425D01*
X99315290Y-104717768D01*
X99316590Y-104718753D01*
X99338674Y-104741388D01*
X99349723Y-104763613D01*
X99349769Y-104764253D01*
X99345228Y-104781915D01*
X99332364Y-104816481D01*
X99312605Y-104864826D01*
X99287381Y-104923825D01*
X99258119Y-104990355D01*
X99226250Y-105061291D01*
X99193201Y-105133507D01*
X99160401Y-105203880D01*
X99129280Y-105269285D01*
X99101265Y-105326597D01*
X99077786Y-105372692D01*
X99060272Y-105404446D01*
X99050151Y-105418733D01*
X99015743Y-105432102D01*
X98974046Y-105425741D01*
X98968681Y-105421044D01*
X98952852Y-105398893D01*
X98930650Y-105362132D01*
X98904233Y-105314415D01*
X98875760Y-105259393D01*
X98795986Y-105100150D01*
X98722799Y-105246742D01*
X98713103Y-105266032D01*
X98686125Y-105318380D01*
X98662096Y-105363170D01*
X98643332Y-105396154D01*
X98632146Y-105413089D01*
X98631000Y-105414332D01*
X98602879Y-105429619D01*
X98567817Y-105431302D01*
X98536776Y-105418733D01*
X98534350Y-105415884D01*
X98522090Y-105395259D01*
X98502352Y-105357708D01*
X98476448Y-105305880D01*
X98445685Y-105242423D01*
X98411375Y-105169985D01*
X98374825Y-105091216D01*
X98354585Y-105047093D01*
X98317812Y-104966365D01*
X98289355Y-104902687D01*
X98268331Y-104853752D01*
X98253854Y-104817257D01*
X98245039Y-104790895D01*
X98241004Y-104772361D01*
X98240862Y-104759352D01*
X98243730Y-104749561D01*
X98258387Y-104728678D01*
X98284990Y-104708377D01*
X98285745Y-104708035D01*
X98305335Y-104701034D01*
X98322790Y-104700504D01*
X98339702Y-104708478D01*
G36*
X98339702Y-104708478D02*
G01*
X98357663Y-104726989D01*
X98378263Y-104758071D01*
X98403095Y-104803756D01*
X98433750Y-104866078D01*
X98471820Y-104947071D01*
X98486454Y-104978454D01*
X98516203Y-105041638D01*
X98542297Y-105096244D01*
X98563292Y-105139290D01*
X98577739Y-105167793D01*
X98584191Y-105178770D01*
X98585550Y-105178189D01*
X98595542Y-105164242D01*
X98612833Y-105134704D01*
X98635430Y-105093087D01*
X98661338Y-105042903D01*
X98677311Y-105011414D01*
X98706261Y-104956061D01*
X98728749Y-104917044D01*
X98746965Y-104891566D01*
X98763096Y-104876831D01*
X98779330Y-104870042D01*
X98797857Y-104868400D01*
X98808360Y-104868875D01*
X98824476Y-104873082D01*
X98839790Y-104883946D01*
X98856388Y-104904219D01*
X98876357Y-104936654D01*
X98901783Y-104984004D01*
X98934752Y-105049022D01*
X98944485Y-105068277D01*
X98968943Y-105114946D01*
X98989178Y-105151109D01*
X99003311Y-105173497D01*
X99009460Y-105178845D01*
X99010827Y-105175573D01*
X99020202Y-105154664D01*
X99037062Y-105117725D01*
X99059979Y-105067874D01*
X99087520Y-105008226D01*
X99118255Y-104941898D01*
X99144970Y-104884677D01*
X99174593Y-104822688D01*
X99197664Y-104776949D01*
X99215643Y-104744908D01*
X99229990Y-104724014D01*
X99242166Y-104711718D01*
X99253632Y-104705466D01*
X99263042Y-104702574D01*
X99288147Y-104702425D01*
X99315290Y-104717768D01*
X99316590Y-104718753D01*
X99338674Y-104741388D01*
X99349723Y-104763613D01*
X99349769Y-104764253D01*
X99345228Y-104781915D01*
X99332364Y-104816481D01*
X99312605Y-104864826D01*
X99287381Y-104923825D01*
X99258119Y-104990355D01*
X99226250Y-105061291D01*
X99193201Y-105133507D01*
X99160401Y-105203880D01*
X99129280Y-105269285D01*
X99101265Y-105326597D01*
X99077786Y-105372692D01*
X99060272Y-105404446D01*
X99050151Y-105418733D01*
X99015743Y-105432102D01*
X98974046Y-105425741D01*
X98968681Y-105421044D01*
X98952852Y-105398893D01*
X98930650Y-105362132D01*
X98904233Y-105314415D01*
X98875760Y-105259393D01*
X98795986Y-105100150D01*
X98722799Y-105246742D01*
X98713103Y-105266032D01*
X98686125Y-105318380D01*
X98662096Y-105363170D01*
X98643332Y-105396154D01*
X98632146Y-105413089D01*
X98631000Y-105414332D01*
X98602879Y-105429619D01*
X98567817Y-105431302D01*
X98536776Y-105418733D01*
X98534350Y-105415884D01*
X98522090Y-105395259D01*
X98502352Y-105357708D01*
X98476448Y-105305880D01*
X98445685Y-105242423D01*
X98411375Y-105169985D01*
X98374825Y-105091216D01*
X98354585Y-105047093D01*
X98317812Y-104966365D01*
X98289355Y-104902687D01*
X98268331Y-104853752D01*
X98253854Y-104817257D01*
X98245039Y-104790895D01*
X98241004Y-104772361D01*
X98240862Y-104759352D01*
X98243730Y-104749561D01*
X98258387Y-104728678D01*
X98284990Y-104708377D01*
X98285745Y-104708035D01*
X98305335Y-104701034D01*
X98322790Y-104700504D01*
X98339702Y-104708478D01*
G37*
X105890853Y-104699936D02*
X105957100Y-104705366D01*
X106012400Y-104714964D01*
X106063283Y-104729825D01*
X106134595Y-104762958D01*
X106185752Y-104805640D01*
X106216575Y-104857705D01*
X106226889Y-104918983D01*
X106225952Y-104950232D01*
X106220160Y-104975029D01*
X106205353Y-104996699D01*
X106177380Y-105024049D01*
X106169402Y-105031378D01*
X106145692Y-105052281D01*
X106123298Y-105069251D01*
X106099265Y-105083205D01*
X106070637Y-105095056D01*
X106034460Y-105105720D01*
X105987780Y-105116111D01*
X105927641Y-105127146D01*
X105851090Y-105139738D01*
X105755171Y-105154804D01*
X105736808Y-105157838D01*
X105674478Y-105171458D01*
X105629260Y-105187192D01*
X105602976Y-105204263D01*
X105597447Y-105221897D01*
X105600068Y-105226168D01*
X105618000Y-105241233D01*
X105646126Y-105257867D01*
X105658926Y-105263857D01*
X105680224Y-105271050D01*
X105706610Y-105275827D01*
X105742454Y-105278646D01*
X105792128Y-105279964D01*
X105860000Y-105280237D01*
X105877785Y-105280164D01*
X105945406Y-105279053D01*
X106010345Y-105276828D01*
X106065970Y-105273762D01*
X106105651Y-105270127D01*
X106141162Y-105266059D01*
X106170415Y-105265276D01*
X106189315Y-105269876D01*
X106204429Y-105280551D01*
X106208085Y-105284144D01*
X106224427Y-105315918D01*
X106223107Y-105351572D01*
X106204150Y-105382190D01*
X106183780Y-105393796D01*
X106147796Y-105406491D01*
X106105372Y-105416541D01*
X106101922Y-105417140D01*
X106059252Y-105422356D01*
X106001866Y-105426730D01*
X105936849Y-105429818D01*
X105871289Y-105431177D01*
X105855057Y-105431218D01*
X105756744Y-105428741D01*
X105676692Y-105420735D01*
X105611513Y-105406203D01*
X105557817Y-105384149D01*
X105512216Y-105353576D01*
X105471323Y-105313486D01*
X105451202Y-105287259D01*
X105439576Y-105257712D01*
X105436667Y-105217995D01*
X105436808Y-105206026D01*
X105440681Y-105173345D01*
X105453065Y-105146819D01*
X105478230Y-105115971D01*
X105499442Y-105093831D01*
X105525838Y-105071285D01*
X105555555Y-105052917D01*
X105591785Y-105037661D01*
X105637717Y-105024449D01*
X105696544Y-105012214D01*
X105771456Y-104999889D01*
X105865645Y-104986406D01*
X105910957Y-104979396D01*
X105978911Y-104964837D01*
X106028047Y-104948337D01*
X106057614Y-104930439D01*
X106066864Y-104911685D01*
X106055048Y-104892615D01*
X106021416Y-104873771D01*
X106018370Y-104872557D01*
X105972011Y-104860479D01*
X105909361Y-104852279D01*
X105835927Y-104848119D01*
X105757217Y-104848161D01*
X105678739Y-104852569D01*
X105606000Y-104861505D01*
X105602073Y-104862154D01*
X105553257Y-104869861D01*
X105521005Y-104873473D01*
X105500008Y-104872876D01*
X105484954Y-104867954D01*
X105470534Y-104858596D01*
X105469364Y-104857725D01*
X105444847Y-104827351D01*
X105440054Y-104791850D01*
X105455860Y-104757269D01*
X105460406Y-104752813D01*
X105490020Y-104737673D01*
X105537002Y-104724550D01*
X105597306Y-104713750D01*
X105666888Y-104705581D01*
X105741703Y-104700351D01*
X105817706Y-104698367D01*
X105890853Y-104699936D01*
G36*
X105890853Y-104699936D02*
G01*
X105957100Y-104705366D01*
X106012400Y-104714964D01*
X106063283Y-104729825D01*
X106134595Y-104762958D01*
X106185752Y-104805640D01*
X106216575Y-104857705D01*
X106226889Y-104918983D01*
X106225952Y-104950232D01*
X106220160Y-104975029D01*
X106205353Y-104996699D01*
X106177380Y-105024049D01*
X106169402Y-105031378D01*
X106145692Y-105052281D01*
X106123298Y-105069251D01*
X106099265Y-105083205D01*
X106070637Y-105095056D01*
X106034460Y-105105720D01*
X105987780Y-105116111D01*
X105927641Y-105127146D01*
X105851090Y-105139738D01*
X105755171Y-105154804D01*
X105736808Y-105157838D01*
X105674478Y-105171458D01*
X105629260Y-105187192D01*
X105602976Y-105204263D01*
X105597447Y-105221897D01*
X105600068Y-105226168D01*
X105618000Y-105241233D01*
X105646126Y-105257867D01*
X105658926Y-105263857D01*
X105680224Y-105271050D01*
X105706610Y-105275827D01*
X105742454Y-105278646D01*
X105792128Y-105279964D01*
X105860000Y-105280237D01*
X105877785Y-105280164D01*
X105945406Y-105279053D01*
X106010345Y-105276828D01*
X106065970Y-105273762D01*
X106105651Y-105270127D01*
X106141162Y-105266059D01*
X106170415Y-105265276D01*
X106189315Y-105269876D01*
X106204429Y-105280551D01*
X106208085Y-105284144D01*
X106224427Y-105315918D01*
X106223107Y-105351572D01*
X106204150Y-105382190D01*
X106183780Y-105393796D01*
X106147796Y-105406491D01*
X106105372Y-105416541D01*
X106101922Y-105417140D01*
X106059252Y-105422356D01*
X106001866Y-105426730D01*
X105936849Y-105429818D01*
X105871289Y-105431177D01*
X105855057Y-105431218D01*
X105756744Y-105428741D01*
X105676692Y-105420735D01*
X105611513Y-105406203D01*
X105557817Y-105384149D01*
X105512216Y-105353576D01*
X105471323Y-105313486D01*
X105451202Y-105287259D01*
X105439576Y-105257712D01*
X105436667Y-105217995D01*
X105436808Y-105206026D01*
X105440681Y-105173345D01*
X105453065Y-105146819D01*
X105478230Y-105115971D01*
X105499442Y-105093831D01*
X105525838Y-105071285D01*
X105555555Y-105052917D01*
X105591785Y-105037661D01*
X105637717Y-105024449D01*
X105696544Y-105012214D01*
X105771456Y-104999889D01*
X105865645Y-104986406D01*
X105910957Y-104979396D01*
X105978911Y-104964837D01*
X106028047Y-104948337D01*
X106057614Y-104930439D01*
X106066864Y-104911685D01*
X106055048Y-104892615D01*
X106021416Y-104873771D01*
X106018370Y-104872557D01*
X105972011Y-104860479D01*
X105909361Y-104852279D01*
X105835927Y-104848119D01*
X105757217Y-104848161D01*
X105678739Y-104852569D01*
X105606000Y-104861505D01*
X105602073Y-104862154D01*
X105553257Y-104869861D01*
X105521005Y-104873473D01*
X105500008Y-104872876D01*
X105484954Y-104867954D01*
X105470534Y-104858596D01*
X105469364Y-104857725D01*
X105444847Y-104827351D01*
X105440054Y-104791850D01*
X105455860Y-104757269D01*
X105460406Y-104752813D01*
X105490020Y-104737673D01*
X105537002Y-104724550D01*
X105597306Y-104713750D01*
X105666888Y-104705581D01*
X105741703Y-104700351D01*
X105817706Y-104698367D01*
X105890853Y-104699936D01*
G37*
X102038711Y-100392033D02*
X102134268Y-100409523D01*
X102298558Y-100454564D01*
X102452589Y-100517656D01*
X102598509Y-100599915D01*
X102738466Y-100702457D01*
X102874608Y-100826399D01*
X102918473Y-100871661D01*
X103030758Y-101003865D01*
X103123972Y-101141832D01*
X103200719Y-101289750D01*
X103263603Y-101451803D01*
X103267420Y-101463391D01*
X103317507Y-101649392D01*
X103350899Y-101845521D01*
X103367584Y-102047568D01*
X103367551Y-102251325D01*
X103350791Y-102452581D01*
X103317292Y-102647128D01*
X103267044Y-102830756D01*
X103223190Y-102948053D01*
X103145348Y-103110951D01*
X103051828Y-103264866D01*
X102944822Y-103406671D01*
X102826519Y-103533239D01*
X102699111Y-103641441D01*
X102621606Y-103694120D01*
X102494725Y-103763750D01*
X102357243Y-103822468D01*
X102215716Y-103867587D01*
X102076702Y-103896422D01*
X102062597Y-103898106D01*
X102019153Y-103901434D01*
X101961723Y-103904275D01*
X101896122Y-103906373D01*
X101828167Y-103907468D01*
X101701378Y-103905140D01*
X101553673Y-103892136D01*
X101415779Y-103867133D01*
X101282014Y-103829318D01*
X101258562Y-103820889D01*
X101210612Y-103801408D01*
X101154140Y-103776473D01*
X101092379Y-103747722D01*
X101028563Y-103716790D01*
X100965926Y-103685315D01*
X100907703Y-103654934D01*
X100857127Y-103627283D01*
X100817433Y-103603999D01*
X100791854Y-103586718D01*
X100783625Y-103577079D01*
X100785076Y-103573984D01*
X100796250Y-103554079D01*
X100817134Y-103518420D01*
X100846265Y-103469459D01*
X100882181Y-103409646D01*
X100923420Y-103341433D01*
X100968517Y-103267271D01*
X101149785Y-102970008D01*
X101196315Y-103014539D01*
X101287723Y-103092865D01*
X101401334Y-103167439D01*
X101519122Y-103221474D01*
X101639559Y-103254290D01*
X101761117Y-103265211D01*
X101802585Y-103263868D01*
X101920080Y-103245612D01*
X102030089Y-103206617D01*
X102131430Y-103147670D01*
X102222921Y-103069557D01*
X102303380Y-102973064D01*
X102371627Y-102858978D01*
X102387908Y-102824724D01*
X102433982Y-102701240D01*
X102469106Y-102562918D01*
X102493197Y-102413561D01*
X102506173Y-102256973D01*
X102507949Y-102096956D01*
X102498443Y-101937314D01*
X102477572Y-101781850D01*
X102445252Y-101634366D01*
X102401399Y-101498667D01*
X102363982Y-101412076D01*
X102299185Y-101298688D01*
X102223772Y-101205070D01*
X102137418Y-101130959D01*
X102039795Y-101076094D01*
X101930577Y-101040212D01*
X101809439Y-101023051D01*
X101740038Y-101021880D01*
X101617168Y-101036141D01*
X101501664Y-101071241D01*
X101394953Y-101126682D01*
X101298464Y-101201964D01*
X101282720Y-101216440D01*
X101252150Y-101242962D01*
X101229809Y-101260138D01*
X101219691Y-101264787D01*
X101217706Y-101262597D01*
X101203241Y-101243721D01*
X101179400Y-101210397D01*
X101148029Y-101165380D01*
X101110974Y-101111425D01*
X101070083Y-101051285D01*
X101027202Y-100987718D01*
X100984178Y-100923476D01*
X100942857Y-100861315D01*
X100905086Y-100803991D01*
X100872712Y-100754257D01*
X100847582Y-100714868D01*
X100831542Y-100688580D01*
X100826439Y-100678147D01*
X100831050Y-100673941D01*
X100850267Y-100668933D01*
X100859838Y-100666386D01*
X100887809Y-100655249D01*
X100929448Y-100636802D01*
X100980995Y-100612725D01*
X101038690Y-100584699D01*
X101049957Y-100579154D01*
X101227687Y-100499889D01*
X101397490Y-100440385D01*
X101561430Y-100400245D01*
X101721571Y-100379071D01*
X101879977Y-100376466D01*
X102038711Y-100392033D01*
G36*
X102038711Y-100392033D02*
G01*
X102134268Y-100409523D01*
X102298558Y-100454564D01*
X102452589Y-100517656D01*
X102598509Y-100599915D01*
X102738466Y-100702457D01*
X102874608Y-100826399D01*
X102918473Y-100871661D01*
X103030758Y-101003865D01*
X103123972Y-101141832D01*
X103200719Y-101289750D01*
X103263603Y-101451803D01*
X103267420Y-101463391D01*
X103317507Y-101649392D01*
X103350899Y-101845521D01*
X103367584Y-102047568D01*
X103367551Y-102251325D01*
X103350791Y-102452581D01*
X103317292Y-102647128D01*
X103267044Y-102830756D01*
X103223190Y-102948053D01*
X103145348Y-103110951D01*
X103051828Y-103264866D01*
X102944822Y-103406671D01*
X102826519Y-103533239D01*
X102699111Y-103641441D01*
X102621606Y-103694120D01*
X102494725Y-103763750D01*
X102357243Y-103822468D01*
X102215716Y-103867587D01*
X102076702Y-103896422D01*
X102062597Y-103898106D01*
X102019153Y-103901434D01*
X101961723Y-103904275D01*
X101896122Y-103906373D01*
X101828167Y-103907468D01*
X101701378Y-103905140D01*
X101553673Y-103892136D01*
X101415779Y-103867133D01*
X101282014Y-103829318D01*
X101258562Y-103820889D01*
X101210612Y-103801408D01*
X101154140Y-103776473D01*
X101092379Y-103747722D01*
X101028563Y-103716790D01*
X100965926Y-103685315D01*
X100907703Y-103654934D01*
X100857127Y-103627283D01*
X100817433Y-103603999D01*
X100791854Y-103586718D01*
X100783625Y-103577079D01*
X100785076Y-103573984D01*
X100796250Y-103554079D01*
X100817134Y-103518420D01*
X100846265Y-103469459D01*
X100882181Y-103409646D01*
X100923420Y-103341433D01*
X100968517Y-103267271D01*
X101149785Y-102970008D01*
X101196315Y-103014539D01*
X101287723Y-103092865D01*
X101401334Y-103167439D01*
X101519122Y-103221474D01*
X101639559Y-103254290D01*
X101761117Y-103265211D01*
X101802585Y-103263868D01*
X101920080Y-103245612D01*
X102030089Y-103206617D01*
X102131430Y-103147670D01*
X102222921Y-103069557D01*
X102303380Y-102973064D01*
X102371627Y-102858978D01*
X102387908Y-102824724D01*
X102433982Y-102701240D01*
X102469106Y-102562918D01*
X102493197Y-102413561D01*
X102506173Y-102256973D01*
X102507949Y-102096956D01*
X102498443Y-101937314D01*
X102477572Y-101781850D01*
X102445252Y-101634366D01*
X102401399Y-101498667D01*
X102363982Y-101412076D01*
X102299185Y-101298688D01*
X102223772Y-101205070D01*
X102137418Y-101130959D01*
X102039795Y-101076094D01*
X101930577Y-101040212D01*
X101809439Y-101023051D01*
X101740038Y-101021880D01*
X101617168Y-101036141D01*
X101501664Y-101071241D01*
X101394953Y-101126682D01*
X101298464Y-101201964D01*
X101282720Y-101216440D01*
X101252150Y-101242962D01*
X101229809Y-101260138D01*
X101219691Y-101264787D01*
X101217706Y-101262597D01*
X101203241Y-101243721D01*
X101179400Y-101210397D01*
X101148029Y-101165380D01*
X101110974Y-101111425D01*
X101070083Y-101051285D01*
X101027202Y-100987718D01*
X100984178Y-100923476D01*
X100942857Y-100861315D01*
X100905086Y-100803991D01*
X100872712Y-100754257D01*
X100847582Y-100714868D01*
X100831542Y-100688580D01*
X100826439Y-100678147D01*
X100831050Y-100673941D01*
X100850267Y-100668933D01*
X100859838Y-100666386D01*
X100887809Y-100655249D01*
X100929448Y-100636802D01*
X100980995Y-100612725D01*
X101038690Y-100584699D01*
X101049957Y-100579154D01*
X101227687Y-100499889D01*
X101397490Y-100440385D01*
X101561430Y-100400245D01*
X101721571Y-100379071D01*
X101879977Y-100376466D01*
X102038711Y-100392033D01*
G37*
X98235994Y-102672711D02*
X98235268Y-102750158D01*
X98226689Y-102901594D01*
X98207833Y-103038283D01*
X98177837Y-103164276D01*
X98135836Y-103283625D01*
X98080969Y-103400381D01*
X98014167Y-103511179D01*
X97923363Y-103624739D01*
X97819708Y-103720211D01*
X97703887Y-103797073D01*
X97576586Y-103854797D01*
X97438489Y-103892858D01*
X97400793Y-103898666D01*
X97321752Y-103904396D01*
X97233629Y-103904583D01*
X97144236Y-103899539D01*
X97061384Y-103889578D01*
X96992887Y-103875012D01*
X96962035Y-103865364D01*
X96884730Y-103835123D01*
X96807679Y-103797617D01*
X96738200Y-103756614D01*
X96683615Y-103715879D01*
X96660916Y-103696505D01*
X96638201Y-103678662D01*
X96626779Y-103671778D01*
X96625537Y-103673424D01*
X96622728Y-103691205D01*
X96620776Y-103724370D01*
X96620045Y-103767733D01*
X96620045Y-103863689D01*
X95761896Y-103863689D01*
X95796161Y-103802974D01*
X95801355Y-103793868D01*
X95809715Y-103779249D01*
X95817288Y-103765173D01*
X95824112Y-103750540D01*
X95830227Y-103734249D01*
X95835673Y-103715198D01*
X95840487Y-103692286D01*
X95844708Y-103664413D01*
X95848377Y-103630478D01*
X95851531Y-103589379D01*
X95854211Y-103540015D01*
X95856454Y-103481286D01*
X95858299Y-103412090D01*
X95859787Y-103331326D01*
X95860955Y-103237894D01*
X95861844Y-103130692D01*
X95862491Y-103008620D01*
X95862936Y-102870576D01*
X95863218Y-102715459D01*
X95863375Y-102542168D01*
X95863448Y-102349603D01*
X95863474Y-102136662D01*
X95863485Y-102000530D01*
X96665200Y-102000530D01*
X96665200Y-103150721D01*
X96735756Y-103197089D01*
X96776417Y-103220791D01*
X96830546Y-103246639D01*
X96879689Y-103264829D01*
X96943165Y-103280551D01*
X97039331Y-103291541D01*
X97123900Y-103283365D01*
X97197219Y-103255805D01*
X97259637Y-103208642D01*
X97311502Y-103141658D01*
X97353160Y-103054633D01*
X97384962Y-102947350D01*
X97387545Y-102935009D01*
X97396000Y-102873772D01*
X97401663Y-102796692D01*
X97404576Y-102709002D01*
X97404783Y-102615934D01*
X97402330Y-102522720D01*
X97397261Y-102434594D01*
X97389619Y-102356788D01*
X97379448Y-102294533D01*
X97378167Y-102288666D01*
X97349126Y-102178121D01*
X97314610Y-102087575D01*
X97273456Y-102014953D01*
X97224499Y-101958181D01*
X97166574Y-101915184D01*
X97134620Y-101899615D01*
X97061784Y-101880722D01*
X96980443Y-101877465D01*
X96895319Y-101889389D01*
X96811133Y-101916040D01*
X96732608Y-101956962D01*
X96665200Y-102000530D01*
X95863485Y-102000530D01*
X95863493Y-101902245D01*
X95863689Y-100217378D01*
X96769017Y-100217378D01*
X96744585Y-100254067D01*
X96738318Y-100263647D01*
X96712208Y-100309981D01*
X96694469Y-100357102D01*
X96682908Y-100412251D01*
X96675331Y-100482667D01*
X96674839Y-100489650D01*
X96673062Y-100527641D01*
X96671444Y-100581576D01*
X96669999Y-100648703D01*
X96668740Y-100726271D01*
X96667680Y-100811528D01*
X96666829Y-100901724D01*
X96666203Y-100994107D01*
X96665812Y-101085925D01*
X96665670Y-101174427D01*
X96665790Y-101256862D01*
X96666183Y-101330479D01*
X96666862Y-101392526D01*
X96667841Y-101440251D01*
X96669132Y-101470904D01*
X96670747Y-101481733D01*
X96678957Y-101477333D01*
X96700647Y-101462362D01*
X96730014Y-101440448D01*
X96778879Y-101406236D01*
X96867125Y-101359714D01*
X96965916Y-101326046D01*
X97078510Y-101304231D01*
X97208164Y-101293265D01*
X97300670Y-101292219D01*
X97422011Y-101302014D01*
X97532099Y-101326174D01*
X97635389Y-101365785D01*
X97736338Y-101421932D01*
X97781503Y-101452883D01*
X97886911Y-101544115D01*
X97978538Y-101653106D01*
X98056332Y-101779726D01*
X98120241Y-101923845D01*
X98170214Y-102085332D01*
X98206198Y-102264059D01*
X98228143Y-102459895D01*
X98233900Y-102615934D01*
X98235994Y-102672711D01*
G36*
X98235994Y-102672711D02*
G01*
X98235268Y-102750158D01*
X98226689Y-102901594D01*
X98207833Y-103038283D01*
X98177837Y-103164276D01*
X98135836Y-103283625D01*
X98080969Y-103400381D01*
X98014167Y-103511179D01*
X97923363Y-103624739D01*
X97819708Y-103720211D01*
X97703887Y-103797073D01*
X97576586Y-103854797D01*
X97438489Y-103892858D01*
X97400793Y-103898666D01*
X97321752Y-103904396D01*
X97233629Y-103904583D01*
X97144236Y-103899539D01*
X97061384Y-103889578D01*
X96992887Y-103875012D01*
X96962035Y-103865364D01*
X96884730Y-103835123D01*
X96807679Y-103797617D01*
X96738200Y-103756614D01*
X96683615Y-103715879D01*
X96660916Y-103696505D01*
X96638201Y-103678662D01*
X96626779Y-103671778D01*
X96625537Y-103673424D01*
X96622728Y-103691205D01*
X96620776Y-103724370D01*
X96620045Y-103767733D01*
X96620045Y-103863689D01*
X95761896Y-103863689D01*
X95796161Y-103802974D01*
X95801355Y-103793868D01*
X95809715Y-103779249D01*
X95817288Y-103765173D01*
X95824112Y-103750540D01*
X95830227Y-103734249D01*
X95835673Y-103715198D01*
X95840487Y-103692286D01*
X95844708Y-103664413D01*
X95848377Y-103630478D01*
X95851531Y-103589379D01*
X95854211Y-103540015D01*
X95856454Y-103481286D01*
X95858299Y-103412090D01*
X95859787Y-103331326D01*
X95860955Y-103237894D01*
X95861844Y-103130692D01*
X95862491Y-103008620D01*
X95862936Y-102870576D01*
X95863218Y-102715459D01*
X95863375Y-102542168D01*
X95863448Y-102349603D01*
X95863474Y-102136662D01*
X95863485Y-102000530D01*
X96665200Y-102000530D01*
X96665200Y-103150721D01*
X96735756Y-103197089D01*
X96776417Y-103220791D01*
X96830546Y-103246639D01*
X96879689Y-103264829D01*
X96943165Y-103280551D01*
X97039331Y-103291541D01*
X97123900Y-103283365D01*
X97197219Y-103255805D01*
X97259637Y-103208642D01*
X97311502Y-103141658D01*
X97353160Y-103054633D01*
X97384962Y-102947350D01*
X97387545Y-102935009D01*
X97396000Y-102873772D01*
X97401663Y-102796692D01*
X97404576Y-102709002D01*
X97404783Y-102615934D01*
X97402330Y-102522720D01*
X97397261Y-102434594D01*
X97389619Y-102356788D01*
X97379448Y-102294533D01*
X97378167Y-102288666D01*
X97349126Y-102178121D01*
X97314610Y-102087575D01*
X97273456Y-102014953D01*
X97224499Y-101958181D01*
X97166574Y-101915184D01*
X97134620Y-101899615D01*
X97061784Y-101880722D01*
X96980443Y-101877465D01*
X96895319Y-101889389D01*
X96811133Y-101916040D01*
X96732608Y-101956962D01*
X96665200Y-102000530D01*
X95863485Y-102000530D01*
X95863493Y-101902245D01*
X95863689Y-100217378D01*
X96769017Y-100217378D01*
X96744585Y-100254067D01*
X96738318Y-100263647D01*
X96712208Y-100309981D01*
X96694469Y-100357102D01*
X96682908Y-100412251D01*
X96675331Y-100482667D01*
X96674839Y-100489650D01*
X96673062Y-100527641D01*
X96671444Y-100581576D01*
X96669999Y-100648703D01*
X96668740Y-100726271D01*
X96667680Y-100811528D01*
X96666829Y-100901724D01*
X96666203Y-100994107D01*
X96665812Y-101085925D01*
X96665670Y-101174427D01*
X96665790Y-101256862D01*
X96666183Y-101330479D01*
X96666862Y-101392526D01*
X96667841Y-101440251D01*
X96669132Y-101470904D01*
X96670747Y-101481733D01*
X96678957Y-101477333D01*
X96700647Y-101462362D01*
X96730014Y-101440448D01*
X96778879Y-101406236D01*
X96867125Y-101359714D01*
X96965916Y-101326046D01*
X97078510Y-101304231D01*
X97208164Y-101293265D01*
X97300670Y-101292219D01*
X97422011Y-101302014D01*
X97532099Y-101326174D01*
X97635389Y-101365785D01*
X97736338Y-101421932D01*
X97781503Y-101452883D01*
X97886911Y-101544115D01*
X97978538Y-101653106D01*
X98056332Y-101779726D01*
X98120241Y-101923845D01*
X98170214Y-102085332D01*
X98206198Y-102264059D01*
X98228143Y-102459895D01*
X98233900Y-102615934D01*
X98235994Y-102672711D01*
G37*
X100777755Y-103073467D02*
X100777261Y-103107363D01*
X100773632Y-103182202D01*
X100766022Y-103244401D01*
X100753688Y-103300984D01*
X100709313Y-103427076D01*
X100646400Y-103541679D01*
X100566238Y-103642568D01*
X100469740Y-103728924D01*
X100357822Y-103799932D01*
X100231397Y-103854776D01*
X100091378Y-103892638D01*
X100055149Y-103898351D01*
X99976155Y-103904313D01*
X99887841Y-103904646D01*
X99798075Y-103899659D01*
X99714722Y-103889666D01*
X99645651Y-103874978D01*
X99559187Y-103844749D01*
X99449286Y-103790057D01*
X99351956Y-103722543D01*
X99289867Y-103671556D01*
X99286605Y-103767622D01*
X99283343Y-103863689D01*
X98860450Y-103863689D01*
X98849543Y-103863686D01*
X98755056Y-103863380D01*
X98668331Y-103862616D01*
X98591837Y-103861451D01*
X98528043Y-103859942D01*
X98479418Y-103858147D01*
X98448433Y-103856121D01*
X98437556Y-103853922D01*
X98437578Y-103853463D01*
X98444614Y-103837910D01*
X98460434Y-103815071D01*
X98464734Y-103809638D01*
X98475777Y-103795606D01*
X98485311Y-103782186D01*
X98493461Y-103767722D01*
X98500352Y-103750556D01*
X98506111Y-103729034D01*
X98510862Y-103701498D01*
X98514731Y-103666292D01*
X98517844Y-103621760D01*
X98520325Y-103566246D01*
X98522300Y-103498093D01*
X98523894Y-103415645D01*
X98525234Y-103317246D01*
X98526444Y-103201239D01*
X98527649Y-103065968D01*
X98528595Y-102954586D01*
X99329378Y-102954586D01*
X99329378Y-103150462D01*
X99374048Y-103206973D01*
X99386785Y-103222212D01*
X99433604Y-103264844D01*
X99494255Y-103300672D01*
X99504897Y-103305850D01*
X99543676Y-103322745D01*
X99578692Y-103332909D01*
X99618722Y-103338325D01*
X99672541Y-103340978D01*
X99690648Y-103341383D01*
X99766011Y-103338540D01*
X99826743Y-103326620D01*
X99878452Y-103304037D01*
X99926746Y-103269211D01*
X99931803Y-103264798D01*
X99980272Y-103209160D01*
X100008459Y-103145333D01*
X100017752Y-103070282D01*
X100010520Y-102998693D01*
X99985796Y-102935645D01*
X99941249Y-102877758D01*
X99886319Y-102830808D01*
X99813894Y-102790961D01*
X99727340Y-102763263D01*
X99624670Y-102747096D01*
X99503894Y-102741842D01*
X99495007Y-102741857D01*
X99439660Y-102742655D01*
X99392736Y-102744488D01*
X99358953Y-102747111D01*
X99343028Y-102750274D01*
X99338943Y-102756741D01*
X99334572Y-102778875D01*
X99331604Y-102817988D01*
X99329914Y-102875939D01*
X99329378Y-102954586D01*
X98528595Y-102954586D01*
X98528975Y-102909778D01*
X98530228Y-102767012D01*
X98531651Y-102621942D01*
X98533176Y-102496027D01*
X98534933Y-102387436D01*
X98537051Y-102294334D01*
X98539660Y-102214891D01*
X98542890Y-102147273D01*
X98546869Y-102089649D01*
X98551728Y-102040185D01*
X98557597Y-101997050D01*
X98564604Y-101958410D01*
X98572880Y-101922434D01*
X98582554Y-101887289D01*
X98593756Y-101851142D01*
X98606616Y-101812161D01*
X98622090Y-101769091D01*
X98664994Y-101676871D01*
X98718735Y-101597099D01*
X98787576Y-101522965D01*
X98865185Y-101459405D01*
X98969761Y-101397725D01*
X99089244Y-101350202D01*
X99224508Y-101316567D01*
X99376426Y-101296552D01*
X99545872Y-101289889D01*
X99603890Y-101290287D01*
X99669398Y-101292335D01*
X99730693Y-101296704D01*
X99792097Y-101304035D01*
X99857932Y-101314969D01*
X99932520Y-101330147D01*
X100020184Y-101350209D01*
X100125245Y-101375797D01*
X100153806Y-101382820D01*
X100229054Y-101400776D01*
X100299388Y-101416820D01*
X100360567Y-101430028D01*
X100408354Y-101439474D01*
X100438511Y-101444231D01*
X100466783Y-101447910D01*
X100493060Y-101453187D01*
X100503059Y-101457942D01*
X100499952Y-101466781D01*
X100489194Y-101494072D01*
X100471864Y-101536906D01*
X100449126Y-101592425D01*
X100422147Y-101657772D01*
X100392090Y-101730089D01*
X100385493Y-101745879D01*
X100346907Y-101836484D01*
X100315768Y-101906217D01*
X100291917Y-101955405D01*
X100275198Y-101984374D01*
X100265454Y-101993452D01*
X100257766Y-101991405D01*
X100231415Y-101981760D01*
X100192982Y-101966190D01*
X100147822Y-101946815D01*
X100053293Y-101908814D01*
X99916480Y-101867780D01*
X99775289Y-101842612D01*
X99737314Y-101838611D01*
X99634059Y-101836447D01*
X99546952Y-101849622D01*
X99475129Y-101878756D01*
X99417731Y-101924466D01*
X99373896Y-101987372D01*
X99342762Y-102068092D01*
X99323470Y-102167245D01*
X99316050Y-102226224D01*
X99477936Y-102219445D01*
X99604495Y-102217813D01*
X99755951Y-102224194D01*
X99904396Y-102238777D01*
X100040578Y-102260882D01*
X100105245Y-102275821D01*
X100237490Y-102318741D01*
X100359762Y-102375340D01*
X100469685Y-102444017D01*
X100564883Y-102523170D01*
X100642980Y-102611196D01*
X100701599Y-102706493D01*
X100725595Y-102758864D01*
X100751232Y-102829590D01*
X100767478Y-102900812D01*
X100775822Y-102979712D01*
X100777690Y-103070282D01*
X100777755Y-103073467D01*
G36*
X100777755Y-103073467D02*
G01*
X100777261Y-103107363D01*
X100773632Y-103182202D01*
X100766022Y-103244401D01*
X100753688Y-103300984D01*
X100709313Y-103427076D01*
X100646400Y-103541679D01*
X100566238Y-103642568D01*
X100469740Y-103728924D01*
X100357822Y-103799932D01*
X100231397Y-103854776D01*
X100091378Y-103892638D01*
X100055149Y-103898351D01*
X99976155Y-103904313D01*
X99887841Y-103904646D01*
X99798075Y-103899659D01*
X99714722Y-103889666D01*
X99645651Y-103874978D01*
X99559187Y-103844749D01*
X99449286Y-103790057D01*
X99351956Y-103722543D01*
X99289867Y-103671556D01*
X99286605Y-103767622D01*
X99283343Y-103863689D01*
X98860450Y-103863689D01*
X98849543Y-103863686D01*
X98755056Y-103863380D01*
X98668331Y-103862616D01*
X98591837Y-103861451D01*
X98528043Y-103859942D01*
X98479418Y-103858147D01*
X98448433Y-103856121D01*
X98437556Y-103853922D01*
X98437578Y-103853463D01*
X98444614Y-103837910D01*
X98460434Y-103815071D01*
X98464734Y-103809638D01*
X98475777Y-103795606D01*
X98485311Y-103782186D01*
X98493461Y-103767722D01*
X98500352Y-103750556D01*
X98506111Y-103729034D01*
X98510862Y-103701498D01*
X98514731Y-103666292D01*
X98517844Y-103621760D01*
X98520325Y-103566246D01*
X98522300Y-103498093D01*
X98523894Y-103415645D01*
X98525234Y-103317246D01*
X98526444Y-103201239D01*
X98527649Y-103065968D01*
X98528595Y-102954586D01*
X99329378Y-102954586D01*
X99329378Y-103150462D01*
X99374048Y-103206973D01*
X99386785Y-103222212D01*
X99433604Y-103264844D01*
X99494255Y-103300672D01*
X99504897Y-103305850D01*
X99543676Y-103322745D01*
X99578692Y-103332909D01*
X99618722Y-103338325D01*
X99672541Y-103340978D01*
X99690648Y-103341383D01*
X99766011Y-103338540D01*
X99826743Y-103326620D01*
X99878452Y-103304037D01*
X99926746Y-103269211D01*
X99931803Y-103264798D01*
X99980272Y-103209160D01*
X100008459Y-103145333D01*
X100017752Y-103070282D01*
X100010520Y-102998693D01*
X99985796Y-102935645D01*
X99941249Y-102877758D01*
X99886319Y-102830808D01*
X99813894Y-102790961D01*
X99727340Y-102763263D01*
X99624670Y-102747096D01*
X99503894Y-102741842D01*
X99495007Y-102741857D01*
X99439660Y-102742655D01*
X99392736Y-102744488D01*
X99358953Y-102747111D01*
X99343028Y-102750274D01*
X99338943Y-102756741D01*
X99334572Y-102778875D01*
X99331604Y-102817988D01*
X99329914Y-102875939D01*
X99329378Y-102954586D01*
X98528595Y-102954586D01*
X98528975Y-102909778D01*
X98530228Y-102767012D01*
X98531651Y-102621942D01*
X98533176Y-102496027D01*
X98534933Y-102387436D01*
X98537051Y-102294334D01*
X98539660Y-102214891D01*
X98542890Y-102147273D01*
X98546869Y-102089649D01*
X98551728Y-102040185D01*
X98557597Y-101997050D01*
X98564604Y-101958410D01*
X98572880Y-101922434D01*
X98582554Y-101887289D01*
X98593756Y-101851142D01*
X98606616Y-101812161D01*
X98622090Y-101769091D01*
X98664994Y-101676871D01*
X98718735Y-101597099D01*
X98787576Y-101522965D01*
X98865185Y-101459405D01*
X98969761Y-101397725D01*
X99089244Y-101350202D01*
X99224508Y-101316567D01*
X99376426Y-101296552D01*
X99545872Y-101289889D01*
X99603890Y-101290287D01*
X99669398Y-101292335D01*
X99730693Y-101296704D01*
X99792097Y-101304035D01*
X99857932Y-101314969D01*
X99932520Y-101330147D01*
X100020184Y-101350209D01*
X100125245Y-101375797D01*
X100153806Y-101382820D01*
X100229054Y-101400776D01*
X100299388Y-101416820D01*
X100360567Y-101430028D01*
X100408354Y-101439474D01*
X100438511Y-101444231D01*
X100466783Y-101447910D01*
X100493060Y-101453187D01*
X100503059Y-101457942D01*
X100499952Y-101466781D01*
X100489194Y-101494072D01*
X100471864Y-101536906D01*
X100449126Y-101592425D01*
X100422147Y-101657772D01*
X100392090Y-101730089D01*
X100385493Y-101745879D01*
X100346907Y-101836484D01*
X100315768Y-101906217D01*
X100291917Y-101955405D01*
X100275198Y-101984374D01*
X100265454Y-101993452D01*
X100257766Y-101991405D01*
X100231415Y-101981760D01*
X100192982Y-101966190D01*
X100147822Y-101946815D01*
X100053293Y-101908814D01*
X99916480Y-101867780D01*
X99775289Y-101842612D01*
X99737314Y-101838611D01*
X99634059Y-101836447D01*
X99546952Y-101849622D01*
X99475129Y-101878756D01*
X99417731Y-101924466D01*
X99373896Y-101987372D01*
X99342762Y-102068092D01*
X99323470Y-102167245D01*
X99316050Y-102226224D01*
X99477936Y-102219445D01*
X99604495Y-102217813D01*
X99755951Y-102224194D01*
X99904396Y-102238777D01*
X100040578Y-102260882D01*
X100105245Y-102275821D01*
X100237490Y-102318741D01*
X100359762Y-102375340D01*
X100469685Y-102444017D01*
X100564883Y-102523170D01*
X100642980Y-102611196D01*
X100701599Y-102706493D01*
X100725595Y-102758864D01*
X100751232Y-102829590D01*
X100767478Y-102900812D01*
X100775822Y-102979712D01*
X100777690Y-103070282D01*
X100777755Y-103073467D01*
G37*
X108325614Y-100541792D02*
X108326059Y-100673011D01*
X108326362Y-100820216D01*
X108326548Y-100984349D01*
X108326642Y-101166352D01*
X108326671Y-101367165D01*
X108326661Y-101587732D01*
X108326636Y-101828992D01*
X108326622Y-102091889D01*
X108326622Y-102134040D01*
X108326646Y-102394668D01*
X108326685Y-102633796D01*
X108326708Y-102852360D01*
X108326687Y-103051295D01*
X108326593Y-103231535D01*
X108326395Y-103394015D01*
X108326063Y-103539670D01*
X108325569Y-103669434D01*
X108324883Y-103784243D01*
X108323976Y-103885030D01*
X108322817Y-103972730D01*
X108321378Y-104048279D01*
X108319629Y-104112611D01*
X108317540Y-104166661D01*
X108315083Y-104211363D01*
X108312227Y-104247652D01*
X108308943Y-104276463D01*
X108305202Y-104298731D01*
X108300974Y-104315390D01*
X108296229Y-104327375D01*
X108290939Y-104335621D01*
X108285073Y-104341062D01*
X108278602Y-104344634D01*
X108271497Y-104347270D01*
X108263728Y-104349906D01*
X108255266Y-104353477D01*
X108250908Y-104355145D01*
X108242395Y-104357111D01*
X108229694Y-104358911D01*
X108211885Y-104360555D01*
X108188049Y-104362047D01*
X108157266Y-104363397D01*
X108118617Y-104364611D01*
X108071182Y-104365697D01*
X108014043Y-104366661D01*
X107946279Y-104367511D01*
X107866971Y-104368253D01*
X107775199Y-104368897D01*
X107670044Y-104369447D01*
X107550587Y-104369913D01*
X107415908Y-104370300D01*
X107265088Y-104370616D01*
X107097206Y-104370869D01*
X106911345Y-104371066D01*
X106706583Y-104371213D01*
X106482002Y-104371318D01*
X106236682Y-104371389D01*
X105969704Y-104371432D01*
X105931321Y-104371437D01*
X105665922Y-104371480D01*
X105422050Y-104371525D01*
X105198783Y-104371548D01*
X104995196Y-104371524D01*
X104810367Y-104371430D01*
X104643373Y-104371243D01*
X104493290Y-104370939D01*
X104359196Y-104370494D01*
X104240166Y-104369885D01*
X104135279Y-104369089D01*
X104043610Y-104368080D01*
X103964237Y-104366837D01*
X103896237Y-104365335D01*
X103838686Y-104363551D01*
X103790662Y-104361461D01*
X103751240Y-104359042D01*
X103719499Y-104356270D01*
X103694514Y-104353121D01*
X103675364Y-104349572D01*
X103661123Y-104345598D01*
X103650871Y-104341178D01*
X103643682Y-104336286D01*
X103638635Y-104330900D01*
X103634805Y-104324996D01*
X103631271Y-104318549D01*
X103627108Y-104311537D01*
X103626025Y-104309687D01*
X103623813Y-104304180D01*
X103621786Y-104295868D01*
X103619938Y-104283809D01*
X103618261Y-104267063D01*
X103616745Y-104244687D01*
X103615383Y-104215740D01*
X103614167Y-104179280D01*
X103613089Y-104134367D01*
X103612140Y-104080057D01*
X103611312Y-104015410D01*
X103610597Y-103939484D01*
X103609987Y-103851338D01*
X103609942Y-103842493D01*
X103901378Y-103842493D01*
X103905260Y-103843765D01*
X103928520Y-103845791D01*
X103970874Y-103847626D01*
X104030132Y-103849227D01*
X104104107Y-103850549D01*
X104190610Y-103851548D01*
X104287452Y-103852180D01*
X104392445Y-103852400D01*
X105090651Y-103852400D01*
X106245090Y-103852400D01*
X106244456Y-103776200D01*
X106245574Y-103734160D01*
X106251304Y-103698334D01*
X106263890Y-103660772D01*
X106285568Y-103612577D01*
X106288789Y-103605897D01*
X106314188Y-103556359D01*
X106340996Y-103508369D01*
X106363917Y-103471466D01*
X106368485Y-103464834D01*
X106390516Y-103433593D01*
X106422693Y-103388654D01*
X106463457Y-103332147D01*
X106511245Y-103266204D01*
X106564498Y-103192957D01*
X106621655Y-103114536D01*
X106681155Y-103033072D01*
X106741437Y-102950698D01*
X106800940Y-102869544D01*
X106858105Y-102791742D01*
X106911370Y-102719423D01*
X106959174Y-102654718D01*
X106999957Y-102599759D01*
X107032158Y-102556676D01*
X107054216Y-102527602D01*
X107064571Y-102514667D01*
X107069044Y-102510351D01*
X107073236Y-102508312D01*
X107076643Y-102510926D01*
X107079325Y-102519986D01*
X107081341Y-102537285D01*
X107082748Y-102564614D01*
X107083605Y-102603765D01*
X107083970Y-102656533D01*
X107083903Y-102724707D01*
X107083460Y-102810082D01*
X107082702Y-102914449D01*
X107081685Y-103039600D01*
X107081308Y-103084300D01*
X107080169Y-103205395D01*
X107078972Y-103306688D01*
X107077636Y-103390262D01*
X107076077Y-103458204D01*
X107074215Y-103512599D01*
X107071966Y-103555532D01*
X107069248Y-103589089D01*
X107065979Y-103615355D01*
X107062078Y-103636416D01*
X107057461Y-103654357D01*
X107049192Y-103680770D01*
X107025583Y-103742772D01*
X106999685Y-103795573D01*
X106974535Y-103832645D01*
X106973339Y-103834075D01*
X106971168Y-103838424D01*
X106973328Y-103842026D01*
X106981644Y-103844951D01*
X106997940Y-103847269D01*
X107024041Y-103849051D01*
X107061771Y-103850367D01*
X107112956Y-103851286D01*
X107179420Y-103851878D01*
X107262987Y-103852215D01*
X107365483Y-103852365D01*
X107488732Y-103852400D01*
X108020296Y-103852400D01*
X107981523Y-103794783D01*
X107975432Y-103785893D01*
X107964976Y-103771069D01*
X107955579Y-103757422D01*
X107947183Y-103743765D01*
X107939733Y-103728911D01*
X107933173Y-103711670D01*
X107927446Y-103690855D01*
X107922495Y-103665280D01*
X107918266Y-103633755D01*
X107914701Y-103595093D01*
X107911744Y-103548107D01*
X107909340Y-103491608D01*
X107907431Y-103424409D01*
X107905962Y-103345322D01*
X107904876Y-103253160D01*
X107904118Y-103146734D01*
X107903630Y-103024857D01*
X107903358Y-102886341D01*
X107903243Y-102729999D01*
X107903231Y-102554642D01*
X107903265Y-102359082D01*
X107903289Y-102142133D01*
X107903280Y-102019513D01*
X107903243Y-101814447D01*
X107903227Y-101630116D01*
X107903288Y-101465334D01*
X107903484Y-101318916D01*
X107903870Y-101189674D01*
X107904505Y-101076422D01*
X107905444Y-100977975D01*
X107906745Y-100893144D01*
X107908464Y-100820744D01*
X107910659Y-100759589D01*
X107913385Y-100708492D01*
X107916701Y-100666267D01*
X107920662Y-100631727D01*
X107925325Y-100603686D01*
X107930747Y-100580958D01*
X107936986Y-100562356D01*
X107944097Y-100546693D01*
X107952138Y-100532784D01*
X107961166Y-100519441D01*
X107971236Y-100505479D01*
X107982407Y-100489711D01*
X108022197Y-100431867D01*
X106962314Y-100431867D01*
X107000311Y-100494966D01*
X107014993Y-100520005D01*
X107029531Y-100547586D01*
X107041627Y-100575700D01*
X107051532Y-100606551D01*
X107059494Y-100642344D01*
X107065761Y-100685283D01*
X107070582Y-100737574D01*
X107074206Y-100801419D01*
X107076881Y-100879025D01*
X107078857Y-100972594D01*
X107080382Y-101084333D01*
X107081704Y-101216445D01*
X107082613Y-101336434D01*
X107083020Y-101453063D01*
X107082767Y-101548531D01*
X107081857Y-101622556D01*
X107080293Y-101674855D01*
X107078079Y-101705149D01*
X107075220Y-101713156D01*
X107072161Y-101709858D01*
X107054006Y-101688408D01*
X107024275Y-101651889D01*
X106984639Y-101602442D01*
X106936771Y-101542207D01*
X106882343Y-101473327D01*
X106823027Y-101397943D01*
X106760495Y-101318196D01*
X106696421Y-101236228D01*
X106632475Y-101154180D01*
X106570331Y-101074194D01*
X106511661Y-100998411D01*
X106458137Y-100928973D01*
X106411430Y-100868021D01*
X106373214Y-100817696D01*
X106345161Y-100780140D01*
X106328943Y-100757495D01*
X106283635Y-100685212D01*
X106243661Y-100605463D01*
X106222130Y-100537188D01*
X106218827Y-100479844D01*
X106224116Y-100431867D01*
X105092356Y-100432117D01*
X105131867Y-100462722D01*
X105141248Y-100470089D01*
X105204183Y-100524438D01*
X105272997Y-100592259D01*
X105349596Y-100675516D01*
X105435888Y-100776178D01*
X105453052Y-100796847D01*
X105493833Y-100846409D01*
X105543588Y-100907326D01*
X105600955Y-100977898D01*
X105664569Y-101056424D01*
X105733069Y-101141204D01*
X105805090Y-101230537D01*
X105879270Y-101322722D01*
X105894517Y-101341702D01*
X105954246Y-101416060D01*
X106028653Y-101508848D01*
X106101131Y-101599388D01*
X106170314Y-101685978D01*
X106234841Y-101766918D01*
X106293347Y-101840506D01*
X106344470Y-101905044D01*
X106386847Y-101958829D01*
X106419115Y-102000162D01*
X106439910Y-102027342D01*
X106447869Y-102038668D01*
X106446111Y-102042771D01*
X106433230Y-102063334D01*
X106408885Y-102099561D01*
X106374247Y-102149824D01*
X106330486Y-102212492D01*
X106278775Y-102285936D01*
X106220284Y-102368527D01*
X106156184Y-102458636D01*
X106087646Y-102554631D01*
X106015843Y-102654885D01*
X105941944Y-102757768D01*
X105867121Y-102861650D01*
X105792545Y-102964901D01*
X105719387Y-103065892D01*
X105648819Y-103162994D01*
X105582011Y-103254577D01*
X105520135Y-103339011D01*
X105464361Y-103414667D01*
X105415862Y-103479916D01*
X105375807Y-103533128D01*
X105345369Y-103572673D01*
X105324944Y-103598026D01*
X105278899Y-103652295D01*
X105228612Y-103708775D01*
X105181815Y-103758669D01*
X105090651Y-103852400D01*
X104392445Y-103852400D01*
X104461356Y-103852349D01*
X104559607Y-103852091D01*
X104649030Y-103851637D01*
X104727333Y-103851010D01*
X104792223Y-103850235D01*
X104841411Y-103849335D01*
X104872604Y-103848334D01*
X104883511Y-103847257D01*
X104882322Y-103844037D01*
X104872176Y-103826452D01*
X104855040Y-103800158D01*
X104846540Y-103787691D01*
X104837329Y-103773622D01*
X104829233Y-103759351D01*
X104822185Y-103743479D01*
X104816117Y-103724609D01*
X104810961Y-103701341D01*
X104806651Y-103672278D01*
X104803119Y-103636021D01*
X104800297Y-103591170D01*
X104798118Y-103536328D01*
X104796514Y-103470097D01*
X104795419Y-103391077D01*
X104794765Y-103297871D01*
X104794484Y-103189079D01*
X104794509Y-103063303D01*
X104794772Y-102919145D01*
X104795206Y-102755207D01*
X104795745Y-102570089D01*
X104796279Y-102391232D01*
X104796805Y-102232374D01*
X104797350Y-102093316D01*
X104797945Y-101972665D01*
X104798619Y-101869028D01*
X104799403Y-101781011D01*
X104800326Y-101707223D01*
X104801419Y-101646269D01*
X104802712Y-101596757D01*
X104804235Y-101557293D01*
X104806019Y-101526484D01*
X104808092Y-101502938D01*
X104810486Y-101485260D01*
X104813230Y-101472059D01*
X104816356Y-101461940D01*
X104819892Y-101453511D01*
X104823791Y-101445375D01*
X104843438Y-101408544D01*
X104862225Y-101378391D01*
X104863272Y-101376908D01*
X104877602Y-101354659D01*
X104883511Y-101341702D01*
X104882504Y-101341249D01*
X104865305Y-101339803D01*
X104828656Y-101338480D01*
X104774962Y-101337316D01*
X104706630Y-101336347D01*
X104626064Y-101335611D01*
X104535670Y-101335142D01*
X104437853Y-101334978D01*
X103992195Y-101334978D01*
X103989120Y-102511845D01*
X103986045Y-103688711D01*
X103959407Y-103747622D01*
X103947485Y-103772183D01*
X103930246Y-103802434D01*
X103917074Y-103819560D01*
X103909076Y-103827591D01*
X103901378Y-103842493D01*
X103609942Y-103842493D01*
X103609474Y-103750029D01*
X103609050Y-103634617D01*
X103608706Y-103504160D01*
X103608434Y-103357716D01*
X103608227Y-103194344D01*
X103608076Y-103013101D01*
X103607972Y-102813048D01*
X103607908Y-102593241D01*
X103607876Y-102352739D01*
X103607867Y-102090602D01*
X103607867Y-99899031D01*
X103646249Y-99860649D01*
X103673355Y-99836911D01*
X103700253Y-99825111D01*
X103736560Y-99822267D01*
X103788489Y-99822267D01*
X103788489Y-99910206D01*
X103790427Y-99960102D01*
X103809199Y-100070523D01*
X103846217Y-100171987D01*
X103899369Y-100263152D01*
X103966546Y-100342673D01*
X104045638Y-100409205D01*
X104134534Y-100461406D01*
X104231125Y-100497930D01*
X104333300Y-100517434D01*
X104438950Y-100518573D01*
X104545964Y-100500005D01*
X104652232Y-100460384D01*
X104749219Y-100402516D01*
X104834293Y-100327684D01*
X104903015Y-100239615D01*
X104953918Y-100140616D01*
X104985535Y-100032993D01*
X104996400Y-99919054D01*
X104996400Y-99822267D01*
X106616753Y-99822267D01*
X106827897Y-99822280D01*
X107032020Y-99822330D01*
X107215686Y-99822430D01*
X107379991Y-99822592D01*
X107526029Y-99822829D01*
X107654894Y-99823153D01*
X107767683Y-99823575D01*
X107865488Y-99824109D01*
X107949404Y-99824767D01*
X108020527Y-99825561D01*
X108079950Y-99826504D01*
X108128768Y-99827608D01*
X108168077Y-99828884D01*
X108198969Y-99830347D01*
X108222541Y-99832007D01*
X108239886Y-99833878D01*
X108252099Y-99835972D01*
X108260275Y-99838300D01*
X108265508Y-99840876D01*
X108271504Y-99844445D01*
X108278279Y-99847978D01*
X108284478Y-99851488D01*
X108290126Y-99855918D01*
X108295247Y-99862208D01*
X108299869Y-99871301D01*
X108304015Y-99884139D01*
X108307713Y-99901662D01*
X108310987Y-99924813D01*
X108313863Y-99954534D01*
X108316367Y-99991765D01*
X108318524Y-100037449D01*
X108320360Y-100092527D01*
X108321900Y-100157941D01*
X108323170Y-100234633D01*
X108324195Y-100323544D01*
X108325001Y-100425617D01*
X108325034Y-100431867D01*
X108325614Y-100541792D01*
G36*
X108325614Y-100541792D02*
G01*
X108326059Y-100673011D01*
X108326362Y-100820216D01*
X108326548Y-100984349D01*
X108326642Y-101166352D01*
X108326671Y-101367165D01*
X108326661Y-101587732D01*
X108326636Y-101828992D01*
X108326622Y-102091889D01*
X108326622Y-102134040D01*
X108326646Y-102394668D01*
X108326685Y-102633796D01*
X108326708Y-102852360D01*
X108326687Y-103051295D01*
X108326593Y-103231535D01*
X108326395Y-103394015D01*
X108326063Y-103539670D01*
X108325569Y-103669434D01*
X108324883Y-103784243D01*
X108323976Y-103885030D01*
X108322817Y-103972730D01*
X108321378Y-104048279D01*
X108319629Y-104112611D01*
X108317540Y-104166661D01*
X108315083Y-104211363D01*
X108312227Y-104247652D01*
X108308943Y-104276463D01*
X108305202Y-104298731D01*
X108300974Y-104315390D01*
X108296229Y-104327375D01*
X108290939Y-104335621D01*
X108285073Y-104341062D01*
X108278602Y-104344634D01*
X108271497Y-104347270D01*
X108263728Y-104349906D01*
X108255266Y-104353477D01*
X108250908Y-104355145D01*
X108242395Y-104357111D01*
X108229694Y-104358911D01*
X108211885Y-104360555D01*
X108188049Y-104362047D01*
X108157266Y-104363397D01*
X108118617Y-104364611D01*
X108071182Y-104365697D01*
X108014043Y-104366661D01*
X107946279Y-104367511D01*
X107866971Y-104368253D01*
X107775199Y-104368897D01*
X107670044Y-104369447D01*
X107550587Y-104369913D01*
X107415908Y-104370300D01*
X107265088Y-104370616D01*
X107097206Y-104370869D01*
X106911345Y-104371066D01*
X106706583Y-104371213D01*
X106482002Y-104371318D01*
X106236682Y-104371389D01*
X105969704Y-104371432D01*
X105931321Y-104371437D01*
X105665922Y-104371480D01*
X105422050Y-104371525D01*
X105198783Y-104371548D01*
X104995196Y-104371524D01*
X104810367Y-104371430D01*
X104643373Y-104371243D01*
X104493290Y-104370939D01*
X104359196Y-104370494D01*
X104240166Y-104369885D01*
X104135279Y-104369089D01*
X104043610Y-104368080D01*
X103964237Y-104366837D01*
X103896237Y-104365335D01*
X103838686Y-104363551D01*
X103790662Y-104361461D01*
X103751240Y-104359042D01*
X103719499Y-104356270D01*
X103694514Y-104353121D01*
X103675364Y-104349572D01*
X103661123Y-104345598D01*
X103650871Y-104341178D01*
X103643682Y-104336286D01*
X103638635Y-104330900D01*
X103634805Y-104324996D01*
X103631271Y-104318549D01*
X103627108Y-104311537D01*
X103626025Y-104309687D01*
X103623813Y-104304180D01*
X103621786Y-104295868D01*
X103619938Y-104283809D01*
X103618261Y-104267063D01*
X103616745Y-104244687D01*
X103615383Y-104215740D01*
X103614167Y-104179280D01*
X103613089Y-104134367D01*
X103612140Y-104080057D01*
X103611312Y-104015410D01*
X103610597Y-103939484D01*
X103609987Y-103851338D01*
X103609942Y-103842493D01*
X103901378Y-103842493D01*
X103905260Y-103843765D01*
X103928520Y-103845791D01*
X103970874Y-103847626D01*
X104030132Y-103849227D01*
X104104107Y-103850549D01*
X104190610Y-103851548D01*
X104287452Y-103852180D01*
X104392445Y-103852400D01*
X105090651Y-103852400D01*
X106245090Y-103852400D01*
X106244456Y-103776200D01*
X106245574Y-103734160D01*
X106251304Y-103698334D01*
X106263890Y-103660772D01*
X106285568Y-103612577D01*
X106288789Y-103605897D01*
X106314188Y-103556359D01*
X106340996Y-103508369D01*
X106363917Y-103471466D01*
X106368485Y-103464834D01*
X106390516Y-103433593D01*
X106422693Y-103388654D01*
X106463457Y-103332147D01*
X106511245Y-103266204D01*
X106564498Y-103192957D01*
X106621655Y-103114536D01*
X106681155Y-103033072D01*
X106741437Y-102950698D01*
X106800940Y-102869544D01*
X106858105Y-102791742D01*
X106911370Y-102719423D01*
X106959174Y-102654718D01*
X106999957Y-102599759D01*
X107032158Y-102556676D01*
X107054216Y-102527602D01*
X107064571Y-102514667D01*
X107069044Y-102510351D01*
X107073236Y-102508312D01*
X107076643Y-102510926D01*
X107079325Y-102519986D01*
X107081341Y-102537285D01*
X107082748Y-102564614D01*
X107083605Y-102603765D01*
X107083970Y-102656533D01*
X107083903Y-102724707D01*
X107083460Y-102810082D01*
X107082702Y-102914449D01*
X107081685Y-103039600D01*
X107081308Y-103084300D01*
X107080169Y-103205395D01*
X107078972Y-103306688D01*
X107077636Y-103390262D01*
X107076077Y-103458204D01*
X107074215Y-103512599D01*
X107071966Y-103555532D01*
X107069248Y-103589089D01*
X107065979Y-103615355D01*
X107062078Y-103636416D01*
X107057461Y-103654357D01*
X107049192Y-103680770D01*
X107025583Y-103742772D01*
X106999685Y-103795573D01*
X106974535Y-103832645D01*
X106973339Y-103834075D01*
X106971168Y-103838424D01*
X106973328Y-103842026D01*
X106981644Y-103844951D01*
X106997940Y-103847269D01*
X107024041Y-103849051D01*
X107061771Y-103850367D01*
X107112956Y-103851286D01*
X107179420Y-103851878D01*
X107262987Y-103852215D01*
X107365483Y-103852365D01*
X107488732Y-103852400D01*
X108020296Y-103852400D01*
X107981523Y-103794783D01*
X107975432Y-103785893D01*
X107964976Y-103771069D01*
X107955579Y-103757422D01*
X107947183Y-103743765D01*
X107939733Y-103728911D01*
X107933173Y-103711670D01*
X107927446Y-103690855D01*
X107922495Y-103665280D01*
X107918266Y-103633755D01*
X107914701Y-103595093D01*
X107911744Y-103548107D01*
X107909340Y-103491608D01*
X107907431Y-103424409D01*
X107905962Y-103345322D01*
X107904876Y-103253160D01*
X107904118Y-103146734D01*
X107903630Y-103024857D01*
X107903358Y-102886341D01*
X107903243Y-102729999D01*
X107903231Y-102554642D01*
X107903265Y-102359082D01*
X107903289Y-102142133D01*
X107903280Y-102019513D01*
X107903243Y-101814447D01*
X107903227Y-101630116D01*
X107903288Y-101465334D01*
X107903484Y-101318916D01*
X107903870Y-101189674D01*
X107904505Y-101076422D01*
X107905444Y-100977975D01*
X107906745Y-100893144D01*
X107908464Y-100820744D01*
X107910659Y-100759589D01*
X107913385Y-100708492D01*
X107916701Y-100666267D01*
X107920662Y-100631727D01*
X107925325Y-100603686D01*
X107930747Y-100580958D01*
X107936986Y-100562356D01*
X107944097Y-100546693D01*
X107952138Y-100532784D01*
X107961166Y-100519441D01*
X107971236Y-100505479D01*
X107982407Y-100489711D01*
X108022197Y-100431867D01*
X106962314Y-100431867D01*
X107000311Y-100494966D01*
X107014993Y-100520005D01*
X107029531Y-100547586D01*
X107041627Y-100575700D01*
X107051532Y-100606551D01*
X107059494Y-100642344D01*
X107065761Y-100685283D01*
X107070582Y-100737574D01*
X107074206Y-100801419D01*
X107076881Y-100879025D01*
X107078857Y-100972594D01*
X107080382Y-101084333D01*
X107081704Y-101216445D01*
X107082613Y-101336434D01*
X107083020Y-101453063D01*
X107082767Y-101548531D01*
X107081857Y-101622556D01*
X107080293Y-101674855D01*
X107078079Y-101705149D01*
X107075220Y-101713156D01*
X107072161Y-101709858D01*
X107054006Y-101688408D01*
X107024275Y-101651889D01*
X106984639Y-101602442D01*
X106936771Y-101542207D01*
X106882343Y-101473327D01*
X106823027Y-101397943D01*
X106760495Y-101318196D01*
X106696421Y-101236228D01*
X106632475Y-101154180D01*
X106570331Y-101074194D01*
X106511661Y-100998411D01*
X106458137Y-100928973D01*
X106411430Y-100868021D01*
X106373214Y-100817696D01*
X106345161Y-100780140D01*
X106328943Y-100757495D01*
X106283635Y-100685212D01*
X106243661Y-100605463D01*
X106222130Y-100537188D01*
X106218827Y-100479844D01*
X106224116Y-100431867D01*
X105092356Y-100432117D01*
X105131867Y-100462722D01*
X105141248Y-100470089D01*
X105204183Y-100524438D01*
X105272997Y-100592259D01*
X105349596Y-100675516D01*
X105435888Y-100776178D01*
X105453052Y-100796847D01*
X105493833Y-100846409D01*
X105543588Y-100907326D01*
X105600955Y-100977898D01*
X105664569Y-101056424D01*
X105733069Y-101141204D01*
X105805090Y-101230537D01*
X105879270Y-101322722D01*
X105894517Y-101341702D01*
X105954246Y-101416060D01*
X106028653Y-101508848D01*
X106101131Y-101599388D01*
X106170314Y-101685978D01*
X106234841Y-101766918D01*
X106293347Y-101840506D01*
X106344470Y-101905044D01*
X106386847Y-101958829D01*
X106419115Y-102000162D01*
X106439910Y-102027342D01*
X106447869Y-102038668D01*
X106446111Y-102042771D01*
X106433230Y-102063334D01*
X106408885Y-102099561D01*
X106374247Y-102149824D01*
X106330486Y-102212492D01*
X106278775Y-102285936D01*
X106220284Y-102368527D01*
X106156184Y-102458636D01*
X106087646Y-102554631D01*
X106015843Y-102654885D01*
X105941944Y-102757768D01*
X105867121Y-102861650D01*
X105792545Y-102964901D01*
X105719387Y-103065892D01*
X105648819Y-103162994D01*
X105582011Y-103254577D01*
X105520135Y-103339011D01*
X105464361Y-103414667D01*
X105415862Y-103479916D01*
X105375807Y-103533128D01*
X105345369Y-103572673D01*
X105324944Y-103598026D01*
X105278899Y-103652295D01*
X105228612Y-103708775D01*
X105181815Y-103758669D01*
X105090651Y-103852400D01*
X104392445Y-103852400D01*
X104461356Y-103852349D01*
X104559607Y-103852091D01*
X104649030Y-103851637D01*
X104727333Y-103851010D01*
X104792223Y-103850235D01*
X104841411Y-103849335D01*
X104872604Y-103848334D01*
X104883511Y-103847257D01*
X104882322Y-103844037D01*
X104872176Y-103826452D01*
X104855040Y-103800158D01*
X104846540Y-103787691D01*
X104837329Y-103773622D01*
X104829233Y-103759351D01*
X104822185Y-103743479D01*
X104816117Y-103724609D01*
X104810961Y-103701341D01*
X104806651Y-103672278D01*
X104803119Y-103636021D01*
X104800297Y-103591170D01*
X104798118Y-103536328D01*
X104796514Y-103470097D01*
X104795419Y-103391077D01*
X104794765Y-103297871D01*
X104794484Y-103189079D01*
X104794509Y-103063303D01*
X104794772Y-102919145D01*
X104795206Y-102755207D01*
X104795745Y-102570089D01*
X104796279Y-102391232D01*
X104796805Y-102232374D01*
X104797350Y-102093316D01*
X104797945Y-101972665D01*
X104798619Y-101869028D01*
X104799403Y-101781011D01*
X104800326Y-101707223D01*
X104801419Y-101646269D01*
X104802712Y-101596757D01*
X104804235Y-101557293D01*
X104806019Y-101526484D01*
X104808092Y-101502938D01*
X104810486Y-101485260D01*
X104813230Y-101472059D01*
X104816356Y-101461940D01*
X104819892Y-101453511D01*
X104823791Y-101445375D01*
X104843438Y-101408544D01*
X104862225Y-101378391D01*
X104863272Y-101376908D01*
X104877602Y-101354659D01*
X104883511Y-101341702D01*
X104882504Y-101341249D01*
X104865305Y-101339803D01*
X104828656Y-101338480D01*
X104774962Y-101337316D01*
X104706630Y-101336347D01*
X104626064Y-101335611D01*
X104535670Y-101335142D01*
X104437853Y-101334978D01*
X103992195Y-101334978D01*
X103989120Y-102511845D01*
X103986045Y-103688711D01*
X103959407Y-103747622D01*
X103947485Y-103772183D01*
X103930246Y-103802434D01*
X103917074Y-103819560D01*
X103909076Y-103827591D01*
X103901378Y-103842493D01*
X103609942Y-103842493D01*
X103609474Y-103750029D01*
X103609050Y-103634617D01*
X103608706Y-103504160D01*
X103608434Y-103357716D01*
X103608227Y-103194344D01*
X103608076Y-103013101D01*
X103607972Y-102813048D01*
X103607908Y-102593241D01*
X103607876Y-102352739D01*
X103607867Y-102090602D01*
X103607867Y-99899031D01*
X103646249Y-99860649D01*
X103673355Y-99836911D01*
X103700253Y-99825111D01*
X103736560Y-99822267D01*
X103788489Y-99822267D01*
X103788489Y-99910206D01*
X103790427Y-99960102D01*
X103809199Y-100070523D01*
X103846217Y-100171987D01*
X103899369Y-100263152D01*
X103966546Y-100342673D01*
X104045638Y-100409205D01*
X104134534Y-100461406D01*
X104231125Y-100497930D01*
X104333300Y-100517434D01*
X104438950Y-100518573D01*
X104545964Y-100500005D01*
X104652232Y-100460384D01*
X104749219Y-100402516D01*
X104834293Y-100327684D01*
X104903015Y-100239615D01*
X104953918Y-100140616D01*
X104985535Y-100032993D01*
X104996400Y-99919054D01*
X104996400Y-99822267D01*
X106616753Y-99822267D01*
X106827897Y-99822280D01*
X107032020Y-99822330D01*
X107215686Y-99822430D01*
X107379991Y-99822592D01*
X107526029Y-99822829D01*
X107654894Y-99823153D01*
X107767683Y-99823575D01*
X107865488Y-99824109D01*
X107949404Y-99824767D01*
X108020527Y-99825561D01*
X108079950Y-99826504D01*
X108128768Y-99827608D01*
X108168077Y-99828884D01*
X108198969Y-99830347D01*
X108222541Y-99832007D01*
X108239886Y-99833878D01*
X108252099Y-99835972D01*
X108260275Y-99838300D01*
X108265508Y-99840876D01*
X108271504Y-99844445D01*
X108278279Y-99847978D01*
X108284478Y-99851488D01*
X108290126Y-99855918D01*
X108295247Y-99862208D01*
X108299869Y-99871301D01*
X108304015Y-99884139D01*
X108307713Y-99901662D01*
X108310987Y-99924813D01*
X108313863Y-99954534D01*
X108316367Y-99991765D01*
X108318524Y-100037449D01*
X108320360Y-100092527D01*
X108321900Y-100157941D01*
X108323170Y-100234633D01*
X108324195Y-100323544D01*
X108325001Y-100425617D01*
X108325034Y-100431867D01*
X108325614Y-100541792D01*
G37*
%TD*%
M02*
